<ttFont>
    <TTGlyph name="A" xMin="10" yMin="-85" xMax="567" yMax="676">
      <contour>
        <pt x="567" y="-49" on="1"/>
        <pt x="557" y="-63" on="0"/>
        <pt x="531" y="-78" on="0"/>
        <pt x="519" y="-81" on="1"/>
        <pt x="505" y="-85" on="0"/>
        <pt x="489" y="-84" on="1"/>
        <pt x="483" y="-84" on="0"/>
        <pt x="476" y="-81" on="1"/>
        <pt x="470" y="-79" on="0"/>
        <pt x="456" y="-72" on="0"/>
        <pt x="451" y="-65" on="1"/>
        <pt x="437" y="-15" on="0"/>
        <pt x="415" y="79" on="0"/>
        <pt x="407" y="116" on="1"/>
        <pt x="397" y="159" on="0"/>
        <pt x="390" y="197" on="1"/>
        <pt x="363" y="198" on="0"/>
        <pt x="256" y="197" on="0"/>
        <pt x="194" y="191" on="1"/>
        <pt x="175" y="131" on="0"/>
        <pt x="153" y="49" on="0"/>
        <pt x="143" y="-5" on="0"/>
        <pt x="145" y="-40" on="0"/>
        <pt x="150" y="-53" on="1"/>
        <pt x="136" y="-67" on="0"/>
        <pt x="109" y="-80" on="0"/>
        <pt x="98" y="-82" on="1"/>
        <pt x="85" y="-85" on="0"/>
        <pt x="73" y="-84" on="1"/>
        <pt x="57" y="-82" on="0"/>
        <pt x="37" y="-75" on="0"/>
        <pt x="28" y="-60" on="0"/>
        <pt x="31" y="-32" on="0"/>
        <pt x="37" y="-9" on="1"/>
        <pt x="43" y="11" on="0"/>
        <pt x="76" y="114" on="0"/>
        <pt x="97" y="180" on="1"/>
        <pt x="59" y="177" on="0"/>
        <pt x="18" y="191" on="0"/>
        <pt x="10" y="222" on="1"/>
        <pt x="26" y="227" on="0"/>
        <pt x="63" y="236" on="0"/>
        <pt x="80" y="240" on="1"/>
        <pt x="99" y="244" on="0"/>
        <pt x="119" y="247" on="1"/>
        <pt x="140" y="313" on="0"/>
        <pt x="184" y="441" on="0"/>
        <pt x="203" y="492" on="1"/>
        <pt x="261" y="647" on="1"/>
        <pt x="263" y="653" on="0"/>
        <pt x="301" y="667" on="0"/>
        <pt x="347" y="676" on="0"/>
        <pt x="389" y="676" on="0"/>
        <pt x="395" y="667" on="1"/>
        <pt x="398" y="646" on="0"/>
        <pt x="409" y="584" on="0"/>
        <pt x="414" y="555" on="1"/>
        <pt x="420" y="521" on="0"/>
        <pt x="428" y="485" on="1"/>
        <pt x="437" y="435" on="0"/>
        <pt x="458" y="313" on="0"/>
        <pt x="490" y="175" on="0"/>
        <pt x="534" y="27" on="0"/>
      </contour>
      <contour>
        <pt x="289" y="264" on="1"/>
        <pt x="321" y="265" on="0"/>
        <pt x="363" y="265" on="0"/>
        <pt x="378" y="264" on="1"/>
        <pt x="375" y="279" on="1"/>
        <pt x="369" y="316" on="0"/>
        <pt x="356" y="400" on="0"/>
        <pt x="343" y="482" on="0"/>
        <pt x="331" y="556" on="0"/>
        <pt x="327" y="584" on="1"/>
        <pt x="317" y="558" on="0"/>
        <pt x="291" y="485" on="0"/>
        <pt x="261" y="399" on="0"/>
        <pt x="230" y="305" on="0"/>
        <pt x="215" y="259" on="1"/>
        <pt x="233" y="261" on="0"/>
        <pt x="269" y="263" on="0"/>
      </contour>
    </TTGlyph>
    <TTGlyph name="AE" xMin="-12" yMin="-97" xMax="829" yMax="674">
      <contour>
        <pt x="799" y="-31" on="1"/>
        <pt x="797" y="-45" on="0"/>
        <pt x="794" y="-57" on="1"/>
        <pt x="791" y="-68" on="0"/>
        <pt x="783" y="-90" on="0"/>
        <pt x="776" y="-97" on="1"/>
        <pt x="758" y="-84" on="0"/>
        <pt x="708" y="-70" on="0"/>
        <pt x="685" y="-66" on="1"/>
        <pt x="659" y="-62" on="0"/>
        <pt x="631" y="-61" on="1"/>
        <pt x="595" y="-60" on="0"/>
        <pt x="534" y="-66" on="0"/>
        <pt x="488" y="-75" on="0"/>
        <pt x="455" y="-84" on="0"/>
        <pt x="447" y="-86" on="1"/>
        <pt x="432" y="-91" on="0"/>
        <pt x="401" y="-70" on="0"/>
        <pt x="393" y="-50" on="1"/>
        <pt x="385" y="-31" on="0"/>
        <pt x="388" y="5" on="0"/>
        <pt x="390" y="15" on="1"/>
        <pt x="390" y="18" on="0"/>
        <pt x="394" y="43" on="0"/>
        <pt x="399" y="92" on="0"/>
        <pt x="406" y="169" on="0"/>
        <pt x="410" y="224" on="1"/>
        <pt x="350" y="222" on="0"/>
        <pt x="240" y="211" on="0"/>
        <pt x="196" y="206" on="1"/>
        <pt x="188" y="189" on="0"/>
        <pt x="171" y="156" on="0"/>
        <pt x="163" y="137" on="1"/>
        <pt x="146" y="99" on="0"/>
        <pt x="124" y="41" on="0"/>
        <pt x="112" y="-7" on="0"/>
        <pt x="110" y="-48" on="0"/>
        <pt x="114" y="-68" on="1"/>
        <pt x="63" y="-87" on="1"/>
        <pt x="56" y="-89" on="0"/>
        <pt x="40" y="-93" on="0"/>
        <pt x="24" y="-89" on="0"/>
        <pt x="7" y="-75" on="0"/>
        <pt x="-1" y="-60" on="1"/>
        <pt x="-12" y="-41" on="0"/>
        <pt x="-8" y="-7" on="0"/>
        <pt x="0" y="14" on="1"/>
        <pt x="4" y="24" on="0"/>
        <pt x="9" y="40" on="0"/>
        <pt x="14" y="55" on="0"/>
        <pt x="20" y="71" on="0"/>
        <pt x="25" y="81" on="1"/>
        <pt x="33" y="96" on="0"/>
        <pt x="63" y="155" on="0"/>
        <pt x="84" y="194" on="1"/>
        <pt x="76" y="197" on="0"/>
        <pt x="49" y="213" on="0"/>
        <pt x="41" y="225" on="1"/>
        <pt x="38" y="232" on="0"/>
        <pt x="36" y="239" on="1"/>
        <pt x="34" y="245" on="0"/>
        <pt x="35" y="259" on="0"/>
        <pt x="39" y="266" on="1"/>
        <pt x="53" y="268" on="0"/>
        <pt x="85" y="275" on="0"/>
        <pt x="99" y="277" on="1"/>
        <pt x="116" y="280" on="0"/>
        <pt x="132" y="282" on="1"/>
        <pt x="157" y="328" on="0"/>
        <pt x="213" y="425" on="0"/>
        <pt x="267" y="518" on="0"/>
        <pt x="318" y="600" on="0"/>
        <pt x="338" y="630" on="1"/>
        <pt x="379" y="642" on="0"/>
        <pt x="461" y="657" on="0"/>
        <pt x="496" y="662" on="1"/>
        <pt x="536" y="667" on="0"/>
        <pt x="574" y="669" on="1"/>
        <pt x="622" y="671" on="0"/>
        <pt x="716" y="674" on="0"/>
        <pt x="788" y="663" on="0"/>
        <pt x="829" y="635" on="0"/>
        <pt x="825" y="607" on="1"/>
        <pt x="823" y="596" on="0"/>
        <pt x="820" y="587" on="1"/>
        <pt x="817" y="579" on="0"/>
        <pt x="809" y="566" on="0"/>
        <pt x="802" y="564" on="1"/>
        <pt x="791" y="572" on="0"/>
        <pt x="757" y="581" on="0"/>
        <pt x="742" y="583" on="1"/>
        <pt x="724" y="586" on="0"/>
        <pt x="705" y="587" on="1"/>
        <pt x="686" y="588" on="0"/>
        <pt x="634" y="585" on="0"/>
        <pt x="580" y="581" on="0"/>
        <pt x="530" y="575" on="0"/>
        <pt x="512" y="572" on="1"/>
        <pt x="510" y="542" on="0"/>
        <pt x="506" y="423" on="0"/>
        <pt x="503" y="325" on="1"/>
        <pt x="503" y="323" on="0"/>
        <pt x="502" y="316" on="0"/>
        <pt x="502" y="314" on="1"/>
        <pt x="538" y="316" on="0"/>
        <pt x="577" y="318" on="1"/>
        <pt x="610" y="320" on="0"/>
        <pt x="688" y="322" on="0"/>
        <pt x="725" y="322" on="1"/>
        <pt x="737" y="322" on="0"/>
        <pt x="742" y="292" on="0"/>
        <pt x="732" y="254" on="0"/>
        <pt x="711" y="224" on="0"/>
        <pt x="698" y="224" on="1"/>
        <pt x="669" y="226" on="0"/>
        <pt x="600" y="227" on="0"/>
        <pt x="570" y="227" on="1"/>
        <pt x="500" y="227" on="1"/>
        <pt x="498" y="152" on="0"/>
        <pt x="499" y="39" on="0"/>
        <pt x="500" y="7" on="1"/>
        <pt x="536" y="16" on="0"/>
        <pt x="612" y="26" on="0"/>
        <pt x="677" y="31" on="0"/>
        <pt x="727" y="32" on="0"/>
        <pt x="738" y="31" on="1"/>
        <pt x="751" y="30" on="0"/>
        <pt x="774" y="23" on="0"/>
        <pt x="792" y="10" on="0"/>
        <pt x="801" y="-13" on="0"/>
      </contour>
      <contour>
        <pt x="416" y="310" on="1"/>
        <pt x="420" y="397" on="0"/>
        <pt x="421" y="544" on="0"/>
        <pt x="421" y="586" on="1"/>
        <pt x="407" y="569" on="0"/>
        <pt x="355" y="493" on="0"/>
        <pt x="318" y="429" on="1"/>
        <pt x="295" y="389" on="0"/>
        <pt x="259" y="324" on="0"/>
        <pt x="243" y="295" on="1"/>
        <pt x="272" y="298" on="0"/>
        <pt x="337" y="304" on="0"/>
        <pt x="371" y="307" on="1"/>
        <pt x="392" y="308" on="0"/>
      </contour>
    </TTGlyph>
    <TTGlyph name="Aacute" xMin="10" yMin="-85" xMax="567" yMax="919">
      <component glyphName="A" x="0" y="0" flags="0x204"/>
      <component glyphName="acute" x="72" y="215" flags="0x4"/>
    </TTGlyph>
    <TTGlyph name="Acircumflex" xMin="10" yMin="-85" xMax="567" yMax="872">
      <component glyphName="A" x="0" y="0" flags="0x204"/>
      <component glyphName="circumflex" x="51" y="184" flags="0x4"/>
    </TTGlyph>
    <TTGlyph name="Adieresis" xMin="10" yMin="-85" xMax="567" yMax="836">
      <component glyphName="A" x="0" y="0" flags="0x204"/>
      <component glyphName="dieresis" x="61" y="164" flags="0x4"/>
    </TTGlyph>
    <TTGlyph name="Agrave" xMin="10" yMin="-85" xMax="567" yMax="919">
      <component glyphName="A" x="0" y="0" flags="0x204"/>
      <component glyphName="grave" x="20" y="215" flags="0x4"/>
    </TTGlyph>
    <TTGlyph name="Aring" xMin="10" yMin="-85" xMax="567" yMax="821">
      <contour>
        <pt x="289" y="264" on="1"/>
        <pt x="321" y="265" on="0"/>
        <pt x="363" y="265" on="0"/>
        <pt x="378" y="264" on="1"/>
        <pt x="375" y="279" on="1"/>
        <pt x="369" y="316" on="0"/>
        <pt x="355" y="400" on="0"/>
        <pt x="342" y="482" on="0"/>
        <pt x="331" y="556" on="0"/>
        <pt x="327" y="584" on="1"/>
        <pt x="317" y="558" on="0"/>
        <pt x="291" y="485" on="0"/>
        <pt x="261" y="399" on="0"/>
        <pt x="230" y="305" on="0"/>
        <pt x="215" y="259" on="1"/>
        <pt x="233" y="261" on="0"/>
        <pt x="269" y="263" on="0"/>
      </contour>
      <contour>
        <pt x="332" y="821" on="1"/>
        <pt x="363" y="821" on="0"/>
        <pt x="406" y="784" on="0"/>
        <pt x="406" y="745" on="1"/>
        <pt x="406" y="722" on="0"/>
        <pt x="388" y="687" on="0"/>
        <pt x="374" y="676" on="1"/>
        <pt x="389" y="674" on="0"/>
        <pt x="395" y="667" on="1"/>
        <pt x="398" y="646" on="0"/>
        <pt x="409" y="584" on="0"/>
        <pt x="414" y="555" on="1"/>
        <pt x="420" y="521" on="0"/>
        <pt x="428" y="485" on="1"/>
        <pt x="437" y="435" on="0"/>
        <pt x="458" y="313" on="0"/>
        <pt x="490" y="175" on="0"/>
        <pt x="534" y="27" on="0"/>
        <pt x="567" y="-49" on="1"/>
        <pt x="557" y="-63" on="0"/>
        <pt x="531" y="-78" on="0"/>
        <pt x="519" y="-81" on="1"/>
        <pt x="505" y="-85" on="0"/>
        <pt x="489" y="-84" on="1"/>
        <pt x="483" y="-84" on="0"/>
        <pt x="476" y="-81" on="1"/>
        <pt x="470" y="-79" on="0"/>
        <pt x="456" y="-72" on="0"/>
        <pt x="451" y="-65" on="1"/>
        <pt x="437" y="-15" on="0"/>
        <pt x="415" y="79" on="0"/>
        <pt x="407" y="116" on="1"/>
        <pt x="397" y="159" on="0"/>
        <pt x="390" y="197" on="1"/>
        <pt x="363" y="198" on="0"/>
        <pt x="256" y="197" on="0"/>
        <pt x="194" y="191" on="1"/>
        <pt x="175" y="131" on="0"/>
        <pt x="153" y="49" on="0"/>
        <pt x="143" y="-5" on="0"/>
        <pt x="145" y="-40" on="0"/>
        <pt x="150" y="-53" on="1"/>
        <pt x="136" y="-67" on="0"/>
        <pt x="109" y="-80" on="0"/>
        <pt x="98" y="-82" on="1"/>
        <pt x="85" y="-85" on="0"/>
        <pt x="73" y="-84" on="1"/>
        <pt x="57" y="-82" on="0"/>
        <pt x="37" y="-75" on="0"/>
        <pt x="28" y="-60" on="0"/>
        <pt x="31" y="-32" on="0"/>
        <pt x="37" y="-9" on="1"/>
        <pt x="43" y="11" on="0"/>
        <pt x="76" y="114" on="0"/>
        <pt x="97" y="180" on="1"/>
        <pt x="59" y="177" on="0"/>
        <pt x="18" y="191" on="0"/>
        <pt x="10" y="222" on="1"/>
        <pt x="26" y="227" on="0"/>
        <pt x="63" y="236" on="0"/>
        <pt x="80" y="240" on="1"/>
        <pt x="99" y="244" on="0"/>
        <pt x="119" y="247" on="1"/>
        <pt x="140" y="313" on="0"/>
        <pt x="184" y="441" on="0"/>
        <pt x="203" y="492" on="1"/>
        <pt x="261" y="647" on="1"/>
        <pt x="264" y="654" on="0"/>
        <pt x="296" y="665" on="1"/>
        <pt x="272" y="673" on="0"/>
        <pt x="245" y="712" on="0"/>
        <pt x="245" y="738" on="1"/>
        <pt x="245" y="755" on="0"/>
        <pt x="260" y="785" on="0"/>
        <pt x="284" y="808" on="0"/>
        <pt x="315" y="821" on="0"/>
      </contour>
      <contour>
        <pt x="329" y="707" on="1"/>
        <pt x="343" y="707" on="0"/>
        <pt x="359" y="728" on="0"/>
        <pt x="359" y="745" on="1"/>
        <pt x="359" y="759" on="0"/>
        <pt x="343" y="773" on="0"/>
        <pt x="334" y="773" on="1"/>
        <pt x="319" y="773" on="0"/>
        <pt x="296" y="752" on="0"/>
        <pt x="296" y="738" on="1"/>
        <pt x="296" y="724" on="0"/>
        <pt x="316" y="707" on="0"/>
      </contour>
    </TTGlyph>
    <TTGlyph name="Atilde" xMin="10" yMin="-85" xMax="567" yMax="844">
      <component glyphName="A" x="0" y="0" flags="0x204"/>
      <component glyphName="tilde" x="61" y="164" flags="0x4"/>
    </TTGlyph>
    <TTGlyph name="B" xMin="-12" yMin="-114" xMax="526" yMax="705">
      <contour>
        <pt x="66" y="464" on="1"/>
        <pt x="52" y="468" on="0"/>
        <pt x="23" y="485" on="0"/>
        <pt x="0" y="508" on="0"/>
        <pt x="-12" y="536" on="0"/>
        <pt x="-9" y="552" on="1"/>
        <pt x="-3" y="585" on="0"/>
        <pt x="61" y="643" on="0"/>
        <pt x="115" y="660" on="1"/>
        <pt x="115" y="663" on="1"/>
        <pt x="116" y="674" on="0"/>
        <pt x="143" y="697" on="0"/>
        <pt x="163" y="701" on="1"/>
        <pt x="182" y="705" on="0"/>
        <pt x="199" y="697" on="0"/>
        <pt x="199" y="690" on="1"/>
        <pt x="199" y="688" on="0"/>
        <pt x="198" y="683" on="0"/>
        <pt x="198" y="681" on="1"/>
        <pt x="198" y="676" on="1"/>
        <pt x="247" y="680" on="0"/>
        <pt x="307" y="673" on="1"/>
        <pt x="379" y="664" on="0"/>
        <pt x="469" y="614" on="0"/>
        <pt x="515" y="549" on="0"/>
        <pt x="526" y="479" on="0"/>
        <pt x="520" y="450" on="1"/>
        <pt x="514" y="416" on="0"/>
        <pt x="482" y="361" on="0"/>
        <pt x="438" y="318" on="0"/>
        <pt x="384" y="286" on="0"/>
        <pt x="354" y="275" on="1"/>
        <pt x="386" y="268" on="0"/>
        <pt x="431" y="237" on="0"/>
        <pt x="459" y="195" on="0"/>
        <pt x="471" y="143" on="0"/>
        <pt x="469" y="116" on="1"/>
        <pt x="467" y="74" on="0"/>
        <pt x="428" y="1" on="0"/>
        <pt x="362" y="-53" on="0"/>
        <pt x="271" y="-83" on="0"/>
        <pt x="216" y="-81" on="1"/>
        <pt x="204" y="-81" on="1"/>
        <pt x="189" y="-94" on="0"/>
        <pt x="154" y="-107" on="0"/>
        <pt x="138" y="-110" on="1"/>
        <pt x="120" y="-114" on="0"/>
        <pt x="102" y="-113" on="1"/>
        <pt x="102" y="-106" on="0"/>
        <pt x="103" y="-91" on="0"/>
        <pt x="103" y="-84" on="1"/>
        <pt x="103" y="-76" on="0"/>
        <pt x="104" y="-68" on="1"/>
        <pt x="92" y="-66" on="0"/>
        <pt x="81" y="-62" on="1"/>
        <pt x="71" y="-59" on="0"/>
        <pt x="50" y="-52" on="0"/>
        <pt x="42" y="-48" on="1"/>
        <pt x="38" y="-42" on="0"/>
        <pt x="36" y="-33" on="1"/>
        <pt x="34" y="-25" on="0"/>
        <pt x="33" y="-6" on="0"/>
        <pt x="37" y="6" on="1"/>
        <pt x="68" y="-6" on="0"/>
        <pt x="108" y="-12" on="1"/>
        <pt x="110" y="39" on="0"/>
        <pt x="113" y="179" on="0"/>
        <pt x="113" y="256" on="1"/>
        <pt x="113" y="343" on="0"/>
        <pt x="114" y="511" on="0"/>
        <pt x="114" y="571" on="1"/>
        <pt x="85" y="556" on="0"/>
        <pt x="53" y="504" on="0"/>
      </contour>
      <contour>
        <pt x="374" y="111" on="1"/>
        <pt x="378" y="155" on="0"/>
        <pt x="344" y="208" on="0"/>
        <pt x="289" y="235" on="0"/>
        <pt x="224" y="241" on="0"/>
        <pt x="198" y="239" on="1"/>
        <pt x="200" y="156" on="0"/>
        <pt x="202" y="21" on="0"/>
        <pt x="203" y="-22" on="1"/>
        <pt x="234" y="-23" on="0"/>
        <pt x="292" y="-7" on="0"/>
        <pt x="339" y="27" on="0"/>
        <pt x="371" y="78" on="0"/>
      </contour>
      <contour>
        <pt x="196" y="594" on="1"/>
        <pt x="194" y="543" on="0"/>
        <pt x="194" y="403" on="0"/>
        <pt x="196" y="317" on="1"/>
        <pt x="196" y="309" on="0"/>
        <pt x="196" y="294" on="0"/>
        <pt x="197" y="286" on="1"/>
        <pt x="233" y="289" on="0"/>
        <pt x="311" y="318" on="0"/>
        <pt x="376" y="366" on="0"/>
        <pt x="418" y="431" on="0"/>
        <pt x="418" y="470" on="1"/>
        <pt x="418" y="500" on="0"/>
        <pt x="386" y="547" on="0"/>
        <pt x="333" y="579" on="0"/>
        <pt x="264" y="595" on="0"/>
        <pt x="227" y="595" on="1"/>
        <pt x="219" y="595" on="0"/>
        <pt x="204" y="595" on="0"/>
      </contour>
    </TTGlyph>
    <TTGlyph name="C" xMin="10" yMin="-88" xMax="465" yMax="690">
      <contour>
        <pt x="246" y="-88" on="1"/>
        <pt x="192" y="-88" on="0"/>
        <pt x="104" y="-35" on="0"/>
        <pt x="43" y="57" on="0"/>
        <pt x="10" y="181" on="0"/>
        <pt x="10" y="253" on="1"/>
        <pt x="10" y="356" on="0"/>
        <pt x="58" y="518" on="0"/>
        <pt x="137" y="630" on="0"/>
        <pt x="238" y="690" on="0"/>
        <pt x="291" y="690" on="1"/>
        <pt x="341" y="690" on="0"/>
        <pt x="409" y="654" on="0"/>
        <pt x="450" y="598" on="0"/>
        <pt x="465" y="531" on="0"/>
        <pt x="462" y="501" on="1"/>
        <pt x="457" y="443" on="0"/>
        <pt x="388" y="371" on="0"/>
        <pt x="343" y="371" on="1"/>
        <pt x="328" y="372" on="0"/>
        <pt x="312" y="376" on="1"/>
        <pt x="298" y="380" on="0"/>
        <pt x="268" y="396" on="0"/>
        <pt x="255" y="411" on="1"/>
        <pt x="297" y="408" on="0"/>
        <pt x="343" y="448" on="0"/>
        <pt x="354" y="473" on="1"/>
        <pt x="366" y="502" on="0"/>
        <pt x="368" y="541" on="1"/>
        <pt x="368" y="563" on="0"/>
        <pt x="354" y="596" on="0"/>
        <pt x="331" y="617" on="0"/>
        <pt x="305" y="627" on="0"/>
        <pt x="293" y="627" on="1"/>
        <pt x="266" y="627" on="0"/>
        <pt x="203" y="585" on="0"/>
        <pt x="147" y="500" on="0"/>
        <pt x="110" y="369" on="0"/>
        <pt x="110" y="279" on="1"/>
        <pt x="110" y="190" on="0"/>
        <pt x="142" y="77" on="0"/>
        <pt x="188" y="14" on="0"/>
        <pt x="239" y="-9" on="0"/>
        <pt x="257" y="-9" on="1"/>
        <pt x="292" y="-6" on="0"/>
        <pt x="321" y="15" on="1"/>
        <pt x="346" y="33" on="0"/>
        <pt x="391" y="112" on="0"/>
        <pt x="399" y="186" on="1"/>
        <pt x="412" y="185" on="0"/>
        <pt x="429" y="175" on="0"/>
        <pt x="435" y="170" on="1"/>
        <pt x="441" y="164" on="0"/>
        <pt x="446" y="156" on="1"/>
        <pt x="447" y="155" on="0"/>
        <pt x="445" y="117" on="0"/>
        <pt x="433" y="63" on="0"/>
        <pt x="408" y="1" on="0"/>
        <pt x="363" y="-53" on="0"/>
        <pt x="295" y="-88" on="0"/>
      </contour>
    </TTGlyph>
    <TTGlyph name="Ccedilla" xMin="10" yMin="-285" xMax="465" yMax="690">
      <contour>
        <pt x="288" y="-138" on="1"/>
        <pt x="297" y="-138" on="0"/>
        <pt x="322" y="-145" on="0"/>
        <pt x="345" y="-162" on="0"/>
        <pt x="360" y="-191" on="0"/>
        <pt x="359" y="-214" on="1"/>
        <pt x="358" y="-232" on="0"/>
        <pt x="340" y="-259" on="0"/>
        <pt x="313" y="-277" on="0"/>
        <pt x="279" y="-285" on="0"/>
        <pt x="262" y="-285" on="1"/>
        <pt x="250" y="-285" on="0"/>
        <pt x="239" y="-283" on="1"/>
        <pt x="229" y="-281" on="0"/>
        <pt x="207" y="-274" on="0"/>
        <pt x="197" y="-267" on="1"/>
        <pt x="198" y="-229" on="1"/>
        <pt x="211" y="-234" on="0"/>
        <pt x="247" y="-235" on="0"/>
        <pt x="280" y="-229" on="0"/>
        <pt x="303" y="-216" on="0"/>
        <pt x="304" y="-205" on="1"/>
        <pt x="304" y="-194" on="0"/>
        <pt x="285" y="-184" on="0"/>
        <pt x="260" y="-181" on="0"/>
        <pt x="234" y="-183" on="0"/>
        <pt x="227" y="-184" on="1"/>
        <pt x="207" y="-188" on="0"/>
        <pt x="206" y="-165" on="1"/>
        <pt x="206" y="-158" on="0"/>
        <pt x="205" y="-147" on="1"/>
        <pt x="204" y="-137" on="0"/>
        <pt x="203" y="-106" on="0"/>
        <pt x="202" y="-83" on="1"/>
        <pt x="157" y="-73" on="0"/>
        <pt x="86" y="-13" on="0"/>
        <pt x="37" y="76" on="0"/>
        <pt x="10" y="189" on="0"/>
        <pt x="10" y="253" on="1"/>
        <pt x="10" y="356" on="0"/>
        <pt x="58" y="518" on="0"/>
        <pt x="137" y="630" on="0"/>
        <pt x="238" y="690" on="0"/>
        <pt x="291" y="690" on="1"/>
        <pt x="341" y="690" on="0"/>
        <pt x="409" y="654" on="0"/>
        <pt x="450" y="598" on="0"/>
        <pt x="465" y="531" on="0"/>
        <pt x="462" y="501" on="1"/>
        <pt x="457" y="443" on="0"/>
        <pt x="388" y="371" on="0"/>
        <pt x="343" y="371" on="1"/>
        <pt x="328" y="372" on="0"/>
        <pt x="312" y="376" on="1"/>
        <pt x="298" y="380" on="0"/>
        <pt x="268" y="396" on="0"/>
        <pt x="255" y="411" on="1"/>
        <pt x="297" y="408" on="0"/>
        <pt x="343" y="448" on="0"/>
        <pt x="354" y="473" on="1"/>
        <pt x="366" y="502" on="0"/>
        <pt x="368" y="541" on="1"/>
        <pt x="368" y="563" on="0"/>
        <pt x="354" y="596" on="0"/>
        <pt x="331" y="617" on="0"/>
        <pt x="305" y="627" on="0"/>
        <pt x="293" y="627" on="1"/>
        <pt x="266" y="627" on="0"/>
        <pt x="203" y="585" on="0"/>
        <pt x="147" y="500" on="0"/>
        <pt x="110" y="369" on="0"/>
        <pt x="110" y="279" on="1"/>
        <pt x="110" y="190" on="0"/>
        <pt x="142" y="77" on="0"/>
        <pt x="188" y="14" on="0"/>
        <pt x="239" y="-9" on="0"/>
        <pt x="257" y="-9" on="1"/>
        <pt x="292" y="-6" on="0"/>
        <pt x="321" y="15" on="1"/>
        <pt x="346" y="33" on="0"/>
        <pt x="391" y="112" on="0"/>
        <pt x="399" y="186" on="1"/>
        <pt x="412" y="185" on="0"/>
        <pt x="429" y="175" on="0"/>
        <pt x="435" y="170" on="1"/>
        <pt x="441" y="164" on="0"/>
        <pt x="446" y="156" on="1"/>
        <pt x="447" y="154" on="0"/>
        <pt x="445" y="120" on="0"/>
        <pt x="435" y="69" on="0"/>
        <pt x="413" y="10" on="0"/>
        <pt x="373" y="-43" on="0"/>
        <pt x="313" y="-82" on="0"/>
        <pt x="270" y="-86" on="1"/>
        <pt x="271" y="-96" on="0"/>
        <pt x="269" y="-114" on="0"/>
        <pt x="268" y="-122" on="1"/>
        <pt x="266" y="-131" on="0"/>
        <pt x="265" y="-139" on="1"/>
        <pt x="270" y="-138" on="0"/>
        <pt x="281" y="-138" on="0"/>
      </contour>
    </TTGlyph>
    <TTGlyph name="D" xMin="9" yMin="-102" xMax="545" yMax="713">
      <contour>
        <pt x="61" y="444" on="1"/>
        <pt x="53" y="445" on="0"/>
        <pt x="38" y="463" on="0"/>
        <pt x="32" y="474" on="1"/>
        <pt x="25" y="486" on="0"/>
        <pt x="19" y="502" on="1"/>
        <pt x="12" y="522" on="0"/>
        <pt x="9" y="551" on="0"/>
        <pt x="15" y="573" on="0"/>
        <pt x="29" y="591" on="0"/>
        <pt x="39" y="600" on="1"/>
        <pt x="51" y="611" on="0"/>
        <pt x="115" y="645" on="0"/>
        <pt x="157" y="657" on="1"/>
        <pt x="157" y="667" on="1"/>
        <pt x="157" y="672" on="0"/>
        <pt x="158" y="680" on="0"/>
        <pt x="158" y="684" on="1"/>
        <pt x="237" y="710" on="1"/>
        <pt x="245" y="713" on="0"/>
        <pt x="263" y="708" on="0"/>
        <pt x="261" y="692" on="1"/>
        <pt x="261" y="687" on="0"/>
        <pt x="260" y="677" on="0"/>
        <pt x="259" y="671" on="1"/>
        <pt x="323" y="669" on="0"/>
        <pt x="428" y="621" on="0"/>
        <pt x="503" y="538" on="0"/>
        <pt x="545" y="424" on="0"/>
        <pt x="545" y="357" on="1"/>
        <pt x="545" y="258" on="0"/>
        <pt x="489" y="112" on="0"/>
        <pt x="399" y="10" on="0"/>
        <pt x="285" y="-52" on="0"/>
        <pt x="228" y="-66" on="1"/>
        <pt x="221" y="-73" on="0"/>
        <pt x="197" y="-87" on="0"/>
        <pt x="169" y="-97" on="0"/>
        <pt x="140" y="-102" on="0"/>
        <pt x="129" y="-100" on="1"/>
        <pt x="129" y="-98" on="0"/>
        <pt x="130" y="-90" on="0"/>
        <pt x="130" y="-87" on="1"/>
        <pt x="130" y="-83" on="0"/>
        <pt x="131" y="-79" on="1"/>
        <pt x="92" y="-81" on="0"/>
        <pt x="63" y="-75" on="1"/>
        <pt x="56" y="-71" on="0"/>
        <pt x="50" y="-60" on="1"/>
        <pt x="47" y="-56" on="0"/>
        <pt x="45" y="-50" on="1"/>
        <pt x="42" y="-45" on="0"/>
        <pt x="41" y="-40" on="1"/>
        <pt x="38" y="-31" on="0"/>
        <pt x="41" y="-18" on="1"/>
        <pt x="90" y="-24" on="0"/>
        <pt x="135" y="-18" on="1"/>
        <pt x="138" y="25" on="0"/>
        <pt x="144" y="148" on="0"/>
        <pt x="147" y="220" on="1"/>
        <pt x="149" y="262" on="0"/>
        <pt x="152" y="357" on="0"/>
        <pt x="154" y="452" on="0"/>
        <pt x="156" y="542" on="0"/>
        <pt x="156" y="580" on="1"/>
        <pt x="108" y="561" on="0"/>
        <pt x="55" y="490" on="0"/>
      </contour>
      <contour>
        <pt x="240" y="438" on="1"/>
        <pt x="236" y="371" on="0"/>
        <pt x="232" y="243" on="0"/>
        <pt x="231" y="129" on="0"/>
        <pt x="233" y="36" on="0"/>
        <pt x="234" y="4" on="1"/>
        <pt x="330" y="40" on="0"/>
        <pt x="445" y="210" on="0"/>
        <pt x="445" y="338" on="1"/>
        <pt x="445" y="394" on="0"/>
        <pt x="418" y="487" on="0"/>
        <pt x="368" y="554" on="0"/>
        <pt x="298" y="592" on="0"/>
        <pt x="256" y="594" on="1"/>
        <pt x="252" y="594" on="1"/>
        <pt x="249" y="564" on="0"/>
        <pt x="243" y="487" on="0"/>
      </contour>
    </TTGlyph>
    <TTGlyph name="E" xMin="19" yMin="-92" xMax="484" yMax="684">
      <contour>
        <pt x="38" y="555" on="1"/>
        <pt x="32" y="561" on="0"/>
        <pt x="25" y="577" on="0"/>
        <pt x="23" y="584" on="1"/>
        <pt x="20" y="592" on="0"/>
        <pt x="20" y="601" on="1"/>
        <pt x="19" y="609" on="0"/>
        <pt x="20" y="617" on="1"/>
        <pt x="21" y="623" on="0"/>
        <pt x="23" y="636" on="0"/>
        <pt x="27" y="639" on="1"/>
        <pt x="35" y="641" on="0"/>
        <pt x="56" y="644" on="0"/>
        <pt x="65" y="646" on="1"/>
        <pt x="76" y="648" on="0"/>
        <pt x="87" y="650" on="1"/>
        <pt x="91" y="656" on="0"/>
        <pt x="116" y="669" on="0"/>
        <pt x="145" y="679" on="0"/>
        <pt x="171" y="684" on="0"/>
        <pt x="176" y="681" on="1"/>
        <pt x="176" y="660" on="1"/>
        <pt x="202" y="663" on="0"/>
        <pt x="258" y="668" on="0"/>
        <pt x="290" y="668" on="1"/>
        <pt x="329" y="669" on="0"/>
        <pt x="363" y="670" on="1"/>
        <pt x="392" y="671" on="0"/>
        <pt x="451" y="670" on="0"/>
        <pt x="467" y="669" on="1"/>
        <pt x="475" y="668" on="0"/>
        <pt x="484" y="647" on="0"/>
        <pt x="481" y="615" on="0"/>
        <pt x="463" y="577" on="0"/>
        <pt x="444" y="560" on="1"/>
        <pt x="420" y="565" on="0"/>
        <pt x="368" y="571" on="0"/>
        <pt x="346" y="573" on="1"/>
        <pt x="320" y="575" on="0"/>
        <pt x="296" y="574" on="1"/>
        <pt x="265" y="574" on="0"/>
        <pt x="205" y="571" on="0"/>
        <pt x="177" y="569" on="1"/>
        <pt x="178" y="520" on="0"/>
        <pt x="179" y="395" on="0"/>
        <pt x="180" y="331" on="1"/>
        <pt x="193" y="332" on="0"/>
        <pt x="219" y="334" on="0"/>
        <pt x="233" y="335" on="1"/>
        <pt x="269" y="337" on="0"/>
        <pt x="338" y="341" on="0"/>
        <pt x="389" y="334" on="0"/>
        <pt x="415" y="310" on="0"/>
        <pt x="408" y="284" on="1"/>
        <pt x="394" y="236" on="1"/>
        <pt x="392" y="241" on="0"/>
        <pt x="375" y="248" on="0"/>
        <pt x="364" y="250" on="1"/>
        <pt x="352" y="253" on="0"/>
        <pt x="337" y="255" on="1"/>
        <pt x="302" y="259" on="0"/>
        <pt x="218" y="253" on="0"/>
        <pt x="180" y="247" on="1"/>
        <pt x="180" y="246" on="1"/>
        <pt x="181" y="158" on="0"/>
        <pt x="178" y="42" on="0"/>
        <pt x="176" y="10" on="1"/>
        <pt x="189" y="12" on="0"/>
        <pt x="214" y="14" on="0"/>
        <pt x="228" y="16" on="1"/>
        <pt x="264" y="19" on="0"/>
        <pt x="303" y="20" on="1"/>
        <pt x="336" y="21" on="0"/>
        <pt x="417" y="20" on="0"/>
        <pt x="455" y="15" on="1"/>
        <pt x="461" y="5" on="0"/>
        <pt x="457" y="-27" on="0"/>
        <pt x="452" y="-42" on="1"/>
        <pt x="446" y="-60" on="0"/>
        <pt x="437" y="-80" on="1"/>
        <pt x="392" y="-75" on="0"/>
        <pt x="308" y="-71" on="0"/>
        <pt x="275" y="-70" on="1"/>
        <pt x="236" y="-69" on="0"/>
        <pt x="202" y="-70" on="1"/>
        <pt x="140" y="-68" on="0"/>
        <pt x="68" y="-85" on="0"/>
        <pt x="53" y="-89" on="1"/>
        <pt x="43" y="-92" on="0"/>
        <pt x="38" y="-86" on="1"/>
        <pt x="33" y="-80" on="0"/>
        <pt x="21" y="-53" on="0"/>
        <pt x="23" y="-29" on="1"/>
        <pt x="23" y="-27" on="0"/>
        <pt x="25" y="-20" on="0"/>
        <pt x="30" y="-18" on="1"/>
        <pt x="36" y="-16" on="0"/>
        <pt x="62" y="-10" on="0"/>
        <pt x="81" y="-6" on="1"/>
        <pt x="83" y="35" on="0"/>
        <pt x="85" y="161" on="0"/>
        <pt x="87" y="226" on="1"/>
        <pt x="70" y="229" on="0"/>
        <pt x="44" y="278" on="0"/>
        <pt x="45" y="308" on="1"/>
        <pt x="51" y="310" on="0"/>
        <pt x="66" y="312" on="0"/>
        <pt x="73" y="314" on="1"/>
        <pt x="81" y="316" on="0"/>
        <pt x="89" y="317" on="1"/>
        <pt x="90" y="343" on="0"/>
        <pt x="90" y="385" on="0"/>
        <pt x="91" y="401" on="1"/>
        <pt x="93" y="443" on="0"/>
        <pt x="91" y="526" on="0"/>
        <pt x="90" y="561" on="1"/>
        <pt x="81" y="560" on="0"/>
        <pt x="71" y="559" on="1"/>
        <pt x="63" y="558" on="0"/>
        <pt x="45" y="556" on="0"/>
      </contour>
    </TTGlyph>
    <TTGlyph name="Eacute" xMin="19" yMin="-92" xMax="484" yMax="919">
      <component glyphName="E" x="0" y="0" flags="0x204"/>
      <component glyphName="acute" x="10" y="215" flags="0x4"/>
    </TTGlyph>
    <TTGlyph name="Ecircumflex" xMin="19" yMin="-92" xMax="484" yMax="883">
      <component glyphName="E" x="0" y="0" flags="0x204"/>
      <component glyphName="circumflex" x="-19" y="195" flags="0x4"/>
    </TTGlyph>
    <TTGlyph name="Edieresis" xMin="19" yMin="-92" xMax="484" yMax="836">
      <component glyphName="E" x="0" y="0" flags="0x204"/>
      <component glyphName="dieresis" x="-9" y="164" flags="0x4"/>
    </TTGlyph>
    <TTGlyph name="Egrave" xMin="19" yMin="-92" xMax="484" yMax="919">
      <component glyphName="E" x="0" y="0" flags="0x204"/>
      <component glyphName="grave" x="-30" y="215" flags="0x4"/>
    </TTGlyph>
    <TTGlyph name="Eth" xMin="9" yMin="-102" xMax="545" yMax="713">
      <contour>
        <pt x="151" y="332" on="1"/>
        <pt x="153" y="398" on="0"/>
        <pt x="155" y="528" on="0"/>
        <pt x="156" y="580" on="1"/>
        <pt x="108" y="561" on="0"/>
        <pt x="55" y="490" on="0"/>
        <pt x="61" y="444" on="1"/>
        <pt x="53" y="445" on="0"/>
        <pt x="38" y="463" on="0"/>
        <pt x="32" y="474" on="1"/>
        <pt x="25" y="486" on="0"/>
        <pt x="19" y="502" on="1"/>
        <pt x="12" y="522" on="0"/>
        <pt x="9" y="551" on="0"/>
        <pt x="15" y="573" on="0"/>
        <pt x="29" y="591" on="0"/>
        <pt x="39" y="600" on="1"/>
        <pt x="51" y="611" on="0"/>
        <pt x="115" y="645" on="0"/>
        <pt x="157" y="657" on="1"/>
        <pt x="158" y="684" on="1"/>
        <pt x="237" y="710" on="1"/>
        <pt x="245" y="713" on="0"/>
        <pt x="263" y="708" on="0"/>
        <pt x="261" y="692" on="1"/>
        <pt x="261" y="687" on="0"/>
        <pt x="260" y="677" on="0"/>
        <pt x="259" y="671" on="1"/>
        <pt x="323" y="669" on="0"/>
        <pt x="428" y="621" on="0"/>
        <pt x="503" y="538" on="0"/>
        <pt x="545" y="424" on="0"/>
        <pt x="545" y="357" on="1"/>
        <pt x="545" y="258" on="0"/>
        <pt x="489" y="112" on="0"/>
        <pt x="399" y="10" on="0"/>
        <pt x="285" y="-52" on="0"/>
        <pt x="228" y="-66" on="1"/>
        <pt x="221" y="-73" on="0"/>
        <pt x="197" y="-87" on="0"/>
        <pt x="169" y="-97" on="0"/>
        <pt x="140" y="-102" on="0"/>
        <pt x="129" y="-100" on="1"/>
        <pt x="131" y="-79" on="1"/>
        <pt x="92" y="-81" on="0"/>
        <pt x="63" y="-75" on="1"/>
        <pt x="56" y="-71" on="0"/>
        <pt x="50" y="-60" on="1"/>
        <pt x="47" y="-56" on="0"/>
        <pt x="45" y="-50" on="1"/>
        <pt x="42" y="-45" on="0"/>
        <pt x="41" y="-40" on="1"/>
        <pt x="38" y="-31" on="0"/>
        <pt x="41" y="-18" on="1"/>
        <pt x="90" y="-24" on="0"/>
        <pt x="135" y="-18" on="1"/>
        <pt x="138" y="25" on="0"/>
        <pt x="144" y="148" on="0"/>
        <pt x="147" y="220" on="1"/>
        <pt x="148" y="231" on="0"/>
        <pt x="148" y="253" on="0"/>
        <pt x="150" y="264" on="1"/>
        <pt x="122" y="262" on="0"/>
        <pt x="58" y="252" on="0"/>
        <pt x="42" y="243" on="1"/>
        <pt x="34" y="250" on="0"/>
        <pt x="29" y="287" on="0"/>
        <pt x="36" y="311" on="1"/>
        <pt x="49" y="315" on="0"/>
        <pt x="81" y="321" on="0"/>
        <pt x="113" y="326" on="0"/>
        <pt x="141" y="330" on="0"/>
      </contour>
      <contour>
        <pt x="336" y="334" on="1"/>
        <pt x="344" y="328" on="0"/>
        <pt x="348" y="307" on="0"/>
        <pt x="346" y="286" on="0"/>
        <pt x="342" y="266" on="0"/>
        <pt x="342" y="260" on="1"/>
        <pt x="335" y="263" on="0"/>
        <pt x="309" y="265" on="0"/>
        <pt x="279" y="267" on="0"/>
        <pt x="247" y="267" on="0"/>
        <pt x="233" y="267" on="1"/>
        <pt x="231" y="184" on="0"/>
        <pt x="232" y="47" on="0"/>
        <pt x="234" y="4" on="1"/>
        <pt x="330" y="40" on="0"/>
        <pt x="445" y="210" on="0"/>
        <pt x="445" y="338" on="1"/>
        <pt x="445" y="394" on="0"/>
        <pt x="418" y="487" on="0"/>
        <pt x="368" y="554" on="0"/>
        <pt x="298" y="592" on="0"/>
        <pt x="256" y="594" on="1"/>
        <pt x="252" y="594" on="1"/>
        <pt x="249" y="564" on="0"/>
        <pt x="243" y="487" on="0"/>
        <pt x="240" y="438" on="1"/>
        <pt x="239" y="415" on="0"/>
        <pt x="237" y="367" on="0"/>
        <pt x="236" y="344" on="1"/>
        <pt x="311" y="352" on="0"/>
      </contour>
    </TTGlyph>
    <TTGlyph name="Euro" xMin="9" yMin="-25" xMax="508" yMax="622">
      <contour>
        <pt x="485" y="186" on="1"/>
        <pt x="493" y="181" on="0"/>
        <pt x="503" y="170" on="0"/>
        <pt x="505" y="165" on="1"/>
        <pt x="508" y="159" on="0"/>
        <pt x="508" y="152" on="1"/>
        <pt x="508" y="146" on="0"/>
        <pt x="497" y="115" on="0"/>
        <pt x="474" y="75" on="0"/>
        <pt x="440" y="33" on="0"/>
        <pt x="395" y="-2" on="0"/>
        <pt x="340" y="-25" on="0"/>
        <pt x="307" y="-25" on="1"/>
        <pt x="259" y="-25" on="0"/>
        <pt x="183" y="7" on="0"/>
        <pt x="127" y="65" on="0"/>
        <pt x="91" y="145" on="0"/>
        <pt x="83" y="193" on="1"/>
        <pt x="55" y="189" on="0"/>
        <pt x="21" y="185" on="0"/>
        <pt x="18" y="188" on="1"/>
        <pt x="16" y="191" on="0"/>
        <pt x="15" y="208" on="0"/>
        <pt x="15" y="228" on="0"/>
        <pt x="17" y="245" on="0"/>
        <pt x="18" y="247" on="1"/>
        <pt x="25" y="252" on="0"/>
        <pt x="76" y="257" on="1"/>
        <pt x="75" y="271" on="0"/>
        <pt x="76" y="297" on="0"/>
        <pt x="76" y="309" on="1"/>
        <pt x="65" y="308" on="0"/>
        <pt x="54" y="307" on="1"/>
        <pt x="45" y="306" on="0"/>
        <pt x="23" y="303" on="0"/>
        <pt x="14" y="301" on="1"/>
        <pt x="9" y="315" on="0"/>
        <pt x="10" y="339" on="0"/>
        <pt x="13" y="347" on="1"/>
        <pt x="16" y="357" on="0"/>
        <pt x="22" y="364" on="1"/>
        <pt x="30" y="373" on="0"/>
        <pt x="65" y="381" on="0"/>
        <pt x="86" y="382" on="1"/>
        <pt x="98" y="437" on="0"/>
        <pt x="144" y="525" on="0"/>
        <pt x="209" y="588" on="0"/>
        <pt x="288" y="622" on="0"/>
        <pt x="333" y="622" on="1"/>
        <pt x="378" y="622" on="0"/>
        <pt x="436" y="590" on="0"/>
        <pt x="470" y="541" on="0"/>
        <pt x="484" y="482" on="0"/>
        <pt x="486" y="428" on="0"/>
        <pt x="478" y="386" on="0"/>
        <pt x="473" y="379" on="1"/>
        <pt x="459" y="356" on="0"/>
        <pt x="408" y="331" on="0"/>
        <pt x="368" y="337" on="1"/>
        <pt x="386" y="371" on="0"/>
        <pt x="398" y="442" on="0"/>
        <pt x="396" y="471" on="1"/>
        <pt x="395" y="486" on="0"/>
        <pt x="389" y="523" on="0"/>
        <pt x="375" y="556" on="0"/>
        <pt x="352" y="578" on="0"/>
        <pt x="334" y="578" on="1"/>
        <pt x="304" y="578" on="0"/>
        <pt x="254" y="545" on="0"/>
        <pt x="215" y="491" on="0"/>
        <pt x="186" y="419" on="0"/>
        <pt x="178" y="380" on="1"/>
        <pt x="199" y="379" on="0"/>
        <pt x="223" y="377" on="1"/>
        <pt x="243" y="375" on="0"/>
        <pt x="292" y="371" on="0"/>
        <pt x="317" y="368" on="1"/>
        <pt x="315" y="337" on="0"/>
        <pt x="298" y="306" on="0"/>
        <pt x="275" y="308" on="1"/>
        <pt x="255" y="310" on="0"/>
        <pt x="205" y="313" on="0"/>
        <pt x="169" y="313" on="1"/>
        <pt x="167" y="287" on="0"/>
        <pt x="169" y="262" on="1"/>
        <pt x="169" y="261" on="1"/>
        <pt x="187" y="261" on="0"/>
        <pt x="206" y="260" on="1"/>
        <pt x="223" y="259" on="0"/>
        <pt x="266" y="258" on="0"/>
        <pt x="291" y="256" on="1"/>
        <pt x="282" y="199" on="1"/>
        <pt x="213" y="199" on="1"/>
        <pt x="195" y="199" on="0"/>
        <pt x="178" y="198" on="1"/>
        <pt x="184" y="173" on="0"/>
        <pt x="203" y="118" on="0"/>
        <pt x="235" y="73" on="0"/>
        <pt x="281" y="43" on="0"/>
        <pt x="313" y="43" on="1"/>
        <pt x="343" y="45" on="0"/>
        <pt x="374" y="61" on="1"/>
        <pt x="400" y="75" on="0"/>
        <pt x="460" y="132" on="0"/>
      </contour>
    </TTGlyph>
    <TTGlyph name="F" xMin="25" yMin="-93" xMax="489" yMax="693">
      <contour>
        <pt x="43" y="553" on="1"/>
        <pt x="37" y="559" on="0"/>
        <pt x="31" y="574" on="0"/>
        <pt x="29" y="582" on="1"/>
        <pt x="27" y="591" on="0"/>
        <pt x="26" y="600" on="1"/>
        <pt x="25" y="608" on="0"/>
        <pt x="26" y="616" on="1"/>
        <pt x="26" y="631" on="0"/>
        <pt x="32" y="639" on="1"/>
        <pt x="43" y="641" on="0"/>
        <pt x="69" y="646" on="0"/>
        <pt x="81" y="648" on="1"/>
        <pt x="95" y="650" on="0"/>
        <pt x="110" y="652" on="1"/>
        <pt x="118" y="660" on="0"/>
        <pt x="145" y="679" on="0"/>
        <pt x="162" y="687" on="1"/>
        <pt x="175" y="693" on="0"/>
        <pt x="185" y="681" on="0"/>
        <pt x="187" y="662" on="1"/>
        <pt x="212" y="664" on="0"/>
        <pt x="266" y="668" on="0"/>
        <pt x="295" y="668" on="1"/>
        <pt x="334" y="669" on="0"/>
        <pt x="368" y="670" on="1"/>
        <pt x="397" y="671" on="0"/>
        <pt x="456" y="670" on="0"/>
        <pt x="472" y="669" on="1"/>
        <pt x="480" y="668" on="0"/>
        <pt x="489" y="647" on="0"/>
        <pt x="486" y="614" on="0"/>
        <pt x="468" y="576" on="0"/>
        <pt x="450" y="558" on="1"/>
        <pt x="426" y="563" on="0"/>
        <pt x="373" y="569" on="0"/>
        <pt x="351" y="571" on="1"/>
        <pt x="325" y="573" on="0"/>
        <pt x="301" y="572" on="1"/>
        <pt x="272" y="572" on="0"/>
        <pt x="214" y="569" on="0"/>
        <pt x="188" y="567" on="1"/>
        <pt x="187" y="522" on="0"/>
        <pt x="186" y="403" on="0"/>
        <pt x="185" y="331" on="1"/>
        <pt x="199" y="333" on="0"/>
        <pt x="225" y="334" on="0"/>
        <pt x="239" y="335" on="1"/>
        <pt x="275" y="337" on="0"/>
        <pt x="343" y="341" on="0"/>
        <pt x="394" y="334" on="0"/>
        <pt x="420" y="310" on="0"/>
        <pt x="413" y="284" on="1"/>
        <pt x="399" y="236" on="1"/>
        <pt x="397" y="241" on="0"/>
        <pt x="380" y="248" on="0"/>
        <pt x="369" y="250" on="1"/>
        <pt x="357" y="253" on="0"/>
        <pt x="342" y="255" on="1"/>
        <pt x="307" y="259" on="0"/>
        <pt x="223" y="253" on="0"/>
        <pt x="184" y="247" on="1"/>
        <pt x="184" y="197" on="0"/>
        <pt x="187" y="108" on="0"/>
        <pt x="192" y="36" on="0"/>
        <pt x="196" y="-16" on="0"/>
        <pt x="197" y="-29" on="1"/>
        <pt x="198" y="-38" on="0"/>
        <pt x="195" y="-43" on="1"/>
        <pt x="190" y="-49" on="0"/>
        <pt x="176" y="-65" on="0"/>
        <pt x="154" y="-81" on="0"/>
        <pt x="123" y="-92" on="0"/>
        <pt x="103" y="-93" on="1"/>
        <pt x="94" y="-93" on="0"/>
        <pt x="94" y="-84" on="1"/>
        <pt x="94" y="226" on="1"/>
        <pt x="77" y="227" on="0"/>
        <pt x="49" y="277" on="0"/>
        <pt x="50" y="308" on="1"/>
        <pt x="57" y="310" on="0"/>
        <pt x="72" y="312" on="0"/>
        <pt x="79" y="314" on="1"/>
        <pt x="87" y="316" on="0"/>
        <pt x="94" y="317" on="1"/>
        <pt x="94" y="389" on="0"/>
        <pt x="96" y="514" on="0"/>
        <pt x="98" y="559" on="1"/>
        <pt x="89" y="558" on="0"/>
        <pt x="79" y="557" on="1"/>
        <pt x="71" y="556" on="0"/>
        <pt x="51" y="554" on="0"/>
      </contour>
    </TTGlyph>
    <TTGlyph name="G" xMin="26" yMin="-102" xMax="482" yMax="682">
      <contour>
        <pt x="251" y="-82" on="1"/>
        <pt x="204" y="-82" on="0"/>
        <pt x="123" y="-32" on="0"/>
        <pt x="61" y="62" on="0"/>
        <pt x="26" y="197" on="0"/>
        <pt x="26" y="282" on="1"/>
        <pt x="26" y="367" on="0"/>
        <pt x="72" y="513" on="0"/>
        <pt x="148" y="621" on="0"/>
        <pt x="249" y="682" on="0"/>
        <pt x="303" y="682" on="1"/>
        <pt x="358" y="682" on="0"/>
        <pt x="428" y="652" on="0"/>
        <pt x="468" y="601" on="0"/>
        <pt x="482" y="533" on="0"/>
        <pt x="480" y="496" on="1"/>
        <pt x="479" y="472" on="0"/>
        <pt x="461" y="423" on="0"/>
        <pt x="435" y="385" on="0"/>
        <pt x="405" y="365" on="0"/>
        <pt x="391" y="371" on="1"/>
        <pt x="380" y="374" on="0"/>
        <pt x="367" y="378" on="1"/>
        <pt x="343" y="386" on="0"/>
        <pt x="310" y="401" on="1"/>
        <pt x="330" y="415" on="0"/>
        <pt x="347" y="433" on="1"/>
        <pt x="361" y="449" on="0"/>
        <pt x="384" y="495" on="0"/>
        <pt x="384" y="525" on="1"/>
        <pt x="384" y="551" on="0"/>
        <pt x="371" y="588" on="0"/>
        <pt x="350" y="611" on="0"/>
        <pt x="324" y="622" on="0"/>
        <pt x="311" y="622" on="1"/>
        <pt x="278" y="622" on="0"/>
        <pt x="213" y="570" on="0"/>
        <pt x="162" y="477" on="0"/>
        <pt x="130" y="349" on="0"/>
        <pt x="130" y="274" on="1"/>
        <pt x="130" y="215" on="0"/>
        <pt x="153" y="114" on="0"/>
        <pt x="191" y="41" on="0"/>
        <pt x="242" y="0" on="0"/>
        <pt x="271" y="0" on="1"/>
        <pt x="293" y="0" on="0"/>
        <pt x="333" y="24" on="0"/>
        <pt x="361" y="66" on="0"/>
        <pt x="378" y="126" on="0"/>
        <pt x="378" y="162" on="1"/>
        <pt x="378" y="195" on="0"/>
        <pt x="375" y="232" on="0"/>
        <pt x="372" y="251" on="0"/>
        <pt x="369" y="255" on="0"/>
        <pt x="369" y="255" on="1"/>
        <pt x="370" y="255" on="0"/>
        <pt x="400" y="253" on="0"/>
        <pt x="437" y="246" on="0"/>
        <pt x="469" y="231" on="0"/>
        <pt x="474" y="218" on="1"/>
        <pt x="478" y="205" on="0"/>
        <pt x="480" y="134" on="0"/>
        <pt x="477" y="49" on="0"/>
        <pt x="474" y="-35" on="0"/>
        <pt x="474" y="-62" on="1"/>
        <pt x="474" y="-69" on="0"/>
        <pt x="447" y="-87" on="0"/>
        <pt x="414" y="-100" on="0"/>
        <pt x="386" y="-102" on="0"/>
        <pt x="385" y="-94" on="1"/>
        <pt x="385" y="-31" on="1"/>
        <pt x="385" y="1" on="1"/>
        <pt x="369" y="-31" on="0"/>
        <pt x="305" y="-82" on="0"/>
      </contour>
    </TTGlyph>
    <TTGlyph name="H" xMin="5" yMin="-92" xMax="511" yMax="678">
      <contour>
        <pt x="73" y="217" on="1"/>
        <pt x="61" y="213" on="0"/>
        <pt x="36" y="224" on="0"/>
        <pt x="16" y="248" on="0"/>
        <pt x="5" y="280" on="0"/>
        <pt x="5" y="298" on="1"/>
        <pt x="18" y="300" on="0"/>
        <pt x="48" y="305" on="0"/>
        <pt x="61" y="307" on="1"/>
        <pt x="76" y="309" on="0"/>
        <pt x="90" y="311" on="1"/>
        <pt x="91" y="369" on="0"/>
        <pt x="94" y="474" on="0"/>
        <pt x="97" y="557" on="0"/>
        <pt x="100" y="614" on="0"/>
        <pt x="101" y="624" on="1"/>
        <pt x="101" y="629" on="0"/>
        <pt x="106" y="634" on="1"/>
        <pt x="114" y="640" on="0"/>
        <pt x="145" y="662" on="0"/>
        <pt x="165" y="671" on="1"/>
        <pt x="182" y="678" on="0"/>
        <pt x="193" y="655" on="0"/>
        <pt x="193" y="623" on="1"/>
        <pt x="191" y="578" on="0"/>
        <pt x="187" y="426" on="0"/>
        <pt x="185" y="323" on="1"/>
        <pt x="201" y="325" on="0"/>
        <pt x="231" y="327" on="0"/>
        <pt x="248" y="328" on="1"/>
        <pt x="294" y="330" on="0"/>
        <pt x="381" y="336" on="0"/>
        <pt x="414" y="333" on="1"/>
        <pt x="419" y="476" on="0"/>
        <pt x="415" y="619" on="0"/>
        <pt x="415" y="632" on="1"/>
        <pt x="415" y="638" on="0"/>
        <pt x="441" y="654" on="0"/>
        <pt x="472" y="667" on="0"/>
        <pt x="498" y="672" on="0"/>
        <pt x="499" y="668" on="1"/>
        <pt x="500" y="661" on="0"/>
        <pt x="499" y="605" on="0"/>
        <pt x="498" y="504" on="0"/>
        <pt x="499" y="354" on="0"/>
        <pt x="502" y="254" on="1"/>
        <pt x="500" y="208" on="0"/>
        <pt x="500" y="158" on="1"/>
        <pt x="500" y="115" on="0"/>
        <pt x="504" y="9" on="0"/>
        <pt x="511" y="-45" on="1"/>
        <pt x="498" y="-56" on="0"/>
        <pt x="468" y="-68" on="0"/>
        <pt x="454" y="-72" on="1"/>
        <pt x="438" y="-76" on="0"/>
        <pt x="422" y="-78" on="1"/>
        <pt x="413" y="-79" on="0"/>
        <pt x="402" y="-70" on="0"/>
        <pt x="398" y="-57" on="0"/>
        <pt x="397" y="-43" on="0"/>
        <pt x="397" y="-37" on="1"/>
        <pt x="397" y="-24" on="0"/>
        <pt x="398" y="-1" on="0"/>
        <pt x="399" y="6" on="1"/>
        <pt x="401" y="49" on="0"/>
        <pt x="407" y="171" on="0"/>
        <pt x="410" y="246" on="1"/>
        <pt x="403" y="247" on="0"/>
        <pt x="391" y="248" on="0"/>
        <pt x="383" y="249" on="1"/>
        <pt x="338" y="252" on="0"/>
        <pt x="233" y="246" on="0"/>
        <pt x="183" y="239" on="1"/>
        <pt x="182" y="190" on="0"/>
        <pt x="184" y="103" on="0"/>
        <pt x="187" y="32" on="0"/>
        <pt x="191" y="-19" on="0"/>
        <pt x="193" y="-31" on="1"/>
        <pt x="194" y="-41" on="0"/>
        <pt x="190" y="-45" on="1"/>
        <pt x="186" y="-50" on="0"/>
        <pt x="171" y="-66" on="0"/>
        <pt x="148" y="-81" on="0"/>
        <pt x="116" y="-92" on="0"/>
        <pt x="95" y="-92" on="1"/>
        <pt x="85" y="-92" on="0"/>
        <pt x="85" y="-83" on="1"/>
        <pt x="85" y="-70" on="0"/>
        <pt x="86" y="-14" on="0"/>
        <pt x="87" y="66" on="0"/>
        <pt x="88" y="165" on="0"/>
        <pt x="89" y="221" on="1"/>
        <pt x="84" y="220" on="0"/>
        <pt x="77" y="218" on="0"/>
      </contour>
    </TTGlyph>
    <TTGlyph name="I" xMin="-1" yMin="-100" xMax="290" yMax="664">
      <contour>
        <pt x="87" y="574" on="1"/>
        <pt x="73" y="571" on="0"/>
        <pt x="60" y="567" on="1"/>
        <pt x="49" y="563" on="0"/>
        <pt x="22" y="554" on="0"/>
        <pt x="10" y="548" on="1"/>
        <pt x="6" y="563" on="0"/>
        <pt x="-1" y="599" on="0"/>
        <pt x="3" y="632" on="0"/>
        <pt x="22" y="657" on="0"/>
        <pt x="45" y="659" on="1"/>
        <pt x="67" y="662" on="0"/>
        <pt x="125" y="664" on="0"/>
        <pt x="188" y="664" on="0"/>
        <pt x="254" y="661" on="0"/>
        <pt x="286" y="657" on="1"/>
        <pt x="288" y="641" on="0"/>
        <pt x="290" y="618" on="0"/>
        <pt x="290" y="610" on="1"/>
        <pt x="290" y="594" on="1"/>
        <pt x="290" y="588" on="0"/>
        <pt x="288" y="584" on="1"/>
        <pt x="284" y="574" on="0"/>
        <pt x="274" y="571" on="1"/>
        <pt x="263" y="574" on="0"/>
        <pt x="234" y="577" on="0"/>
        <pt x="220" y="579" on="1"/>
        <pt x="204" y="581" on="0"/>
        <pt x="187" y="582" on="1"/>
        <pt x="189" y="547" on="0"/>
        <pt x="192" y="414" on="0"/>
        <pt x="190" y="306" on="1"/>
        <pt x="188" y="196" on="0"/>
        <pt x="185" y="57" on="0"/>
        <pt x="184" y="19" on="1"/>
        <pt x="222" y="16" on="0"/>
        <pt x="259" y="-3" on="0"/>
        <pt x="272" y="-28" on="0"/>
        <pt x="269" y="-58" on="0"/>
        <pt x="268" y="-72" on="1"/>
        <pt x="251" y="-68" on="0"/>
        <pt x="208" y="-65" on="0"/>
        <pt x="189" y="-65" on="1"/>
        <pt x="167" y="-65" on="0"/>
        <pt x="144" y="-67" on="1"/>
        <pt x="118" y="-69" on="0"/>
        <pt x="94" y="-73" on="1"/>
        <pt x="74" y="-77" on="0"/>
        <pt x="34" y="-89" on="0"/>
        <pt x="24" y="-100" on="1"/>
        <pt x="16" y="-85" on="0"/>
        <pt x="12" y="-68" on="1"/>
        <pt x="8" y="-54" on="0"/>
        <pt x="4" y="-16" on="0"/>
        <pt x="7" y="4" on="1"/>
        <pt x="18" y="8" on="0"/>
        <pt x="46" y="13" on="0"/>
        <pt x="58" y="15" on="1"/>
        <pt x="72" y="17" on="0"/>
        <pt x="87" y="18" on="1"/>
        <pt x="89" y="50" on="0"/>
        <pt x="95" y="165" on="0"/>
        <pt x="97" y="262" on="1"/>
        <pt x="99" y="384" on="0"/>
        <pt x="91" y="537" on="0"/>
      </contour>
    </TTGlyph>
    <TTGlyph name="Iacute" xMin="-1" yMin="-100" xMax="290" yMax="919">
      <component glyphName="I" x="0" y="0" flags="0x204"/>
      <component glyphName="acute" x="-112" y="215" flags="0x4"/>
    </TTGlyph>
    <TTGlyph name="Icircumflex" xMin="-1" yMin="-100" xMax="290" yMax="872">
      <component glyphName="I" x="0" y="0" flags="0x204"/>
      <component glyphName="circumflex" x="-132" y="184" flags="0x4"/>
    </TTGlyph>
    <TTGlyph name="Idieresis" xMin="-1" yMin="-100" xMax="290" yMax="826">
      <component glyphName="I" x="0" y="0" flags="0x204"/>
      <component glyphName="dieresis" x="-122" y="154" flags="0x4"/>
    </TTGlyph>
    <TTGlyph name="Igrave" xMin="-1" yMin="-100" xMax="290" yMax="919">
      <component glyphName="I" x="0" y="0" flags="0x204"/>
      <component glyphName="grave" x="-142" y="215" flags="0x4"/>
    </TTGlyph>
    <TTGlyph name="J" xMin="0" yMin="-95" xMax="462" yMax="672">
      <contour>
        <pt x="168" y="-95" on="1"/>
        <pt x="121" y="-95" on="0"/>
        <pt x="56" y="-55" on="0"/>
        <pt x="17" y="6" on="0"/>
        <pt x="0" y="82" on="0"/>
        <pt x="0" y="118" on="1"/>
        <pt x="0" y="149" on="0"/>
        <pt x="17" y="204" on="0"/>
        <pt x="24" y="214" on="1"/>
        <pt x="29" y="221" on="0"/>
        <pt x="45" y="237" on="0"/>
        <pt x="60" y="240" on="1"/>
        <pt x="76" y="243" on="0"/>
        <pt x="92" y="247" on="1"/>
        <pt x="106" y="250" on="0"/>
        <pt x="133" y="254" on="0"/>
        <pt x="144" y="256" on="1"/>
        <pt x="129" y="239" on="0"/>
        <pt x="109" y="195" on="0"/>
        <pt x="99" y="148" on="0"/>
        <pt x="95" y="104" on="0"/>
        <pt x="97" y="86" on="1"/>
        <pt x="100" y="36" on="0"/>
        <pt x="153" y="-27" on="0"/>
        <pt x="185" y="-27" on="1"/>
        <pt x="210" y="-27" on="0"/>
        <pt x="246" y="2" on="0"/>
        <pt x="270" y="48" on="0"/>
        <pt x="284" y="108" on="0"/>
        <pt x="290" y="169" on="0"/>
        <pt x="292" y="228" on="0"/>
        <pt x="292" y="250" on="1"/>
        <pt x="292" y="287" on="0"/>
        <pt x="285" y="375" on="0"/>
        <pt x="275" y="463" on="0"/>
        <pt x="264" y="542" on="0"/>
        <pt x="260" y="569" on="1"/>
        <pt x="220" y="563" on="0"/>
        <pt x="164" y="545" on="0"/>
        <pt x="140" y="539" on="1"/>
        <pt x="129" y="537" on="0"/>
        <pt x="126" y="543" on="1"/>
        <pt x="109" y="571" on="0"/>
        <pt x="107" y="615" on="0"/>
        <pt x="110" y="626" on="1"/>
        <pt x="111" y="631" on="0"/>
        <pt x="121" y="635" on="1"/>
        <pt x="157" y="647" on="0"/>
        <pt x="271" y="669" on="0"/>
        <pt x="343" y="672" on="1"/>
        <pt x="363" y="672" on="0"/>
        <pt x="381" y="671" on="1"/>
        <pt x="397" y="670" on="0"/>
        <pt x="432" y="664" on="0"/>
        <pt x="446" y="658" on="1"/>
        <pt x="452" y="653" on="0"/>
        <pt x="458" y="638" on="0"/>
        <pt x="460" y="630" on="1"/>
        <pt x="462" y="620" on="0"/>
        <pt x="462" y="610" on="1"/>
        <pt x="462" y="599" on="0"/>
        <pt x="460" y="588" on="1"/>
        <pt x="458" y="578" on="0"/>
        <pt x="452" y="554" on="0"/>
        <pt x="447" y="542" on="1"/>
        <pt x="442" y="548" on="0"/>
        <pt x="431" y="559" on="0"/>
        <pt x="411" y="568" on="0"/>
        <pt x="379" y="573" on="0"/>
        <pt x="352" y="574" on="1"/>
        <pt x="361" y="518" on="0"/>
        <pt x="374" y="434" on="0"/>
        <pt x="383" y="354" on="0"/>
        <pt x="388" y="266" on="0"/>
        <pt x="388" y="206" on="1"/>
        <pt x="388" y="124" on="0"/>
        <pt x="352" y="9" on="0"/>
        <pt x="291" y="-63" on="0"/>
        <pt x="211" y="-95" on="0"/>
      </contour>
    </TTGlyph>
    <TTGlyph name="K" xMin="26" yMin="-96" xMax="518" yMax="673">
      <contour>
        <pt x="51" y="217" on="1"/>
        <pt x="52" y="269" on="0"/>
        <pt x="53" y="366" on="0"/>
        <pt x="54" y="401" on="1"/>
        <pt x="55" y="437" on="0"/>
        <pt x="57" y="514" on="0"/>
        <pt x="56" y="583" on="0"/>
        <pt x="52" y="637" on="0"/>
        <pt x="48" y="649" on="1"/>
        <pt x="70" y="663" on="0"/>
        <pt x="91" y="668" on="1"/>
        <pt x="102" y="671" on="0"/>
        <pt x="113" y="672" on="1"/>
        <pt x="127" y="673" on="0"/>
        <pt x="141" y="668" on="0"/>
        <pt x="147" y="654" on="0"/>
        <pt x="148" y="635" on="0"/>
        <pt x="148" y="623" on="1"/>
        <pt x="148" y="611" on="0"/>
        <pt x="145" y="551" on="0"/>
        <pt x="141" y="467" on="0"/>
        <pt x="139" y="366" on="0"/>
        <pt x="139" y="314" on="1"/>
        <pt x="166" y="345" on="0"/>
        <pt x="221" y="409" on="0"/>
        <pt x="241" y="437" on="1"/>
        <pt x="294" y="510" on="0"/>
        <pt x="350" y="621" on="0"/>
        <pt x="350" y="643" on="1"/>
        <pt x="367" y="654" on="0"/>
        <pt x="397" y="666" on="0"/>
        <pt x="408" y="669" on="1"/>
        <pt x="420" y="673" on="0"/>
        <pt x="430" y="673" on="1"/>
        <pt x="452" y="673" on="0"/>
        <pt x="457" y="635" on="0"/>
        <pt x="450" y="613" on="1"/>
        <pt x="443" y="594" on="0"/>
        <pt x="404" y="529" on="0"/>
        <pt x="350" y="449" on="0"/>
        <pt x="284" y="362" on="0"/>
        <pt x="249" y="321" on="1"/>
        <pt x="267" y="288" on="0"/>
        <pt x="316" y="197" on="0"/>
        <pt x="367" y="108" on="0"/>
        <pt x="413" y="33" on="0"/>
        <pt x="428" y="15" on="1"/>
        <pt x="447" y="-10" on="0"/>
        <pt x="471" y="-38" on="0"/>
        <pt x="489" y="-56" on="0"/>
        <pt x="506" y="-68" on="0"/>
        <pt x="518" y="-76" on="1"/>
        <pt x="501" y="-84" on="0"/>
        <pt x="468" y="-92" on="0"/>
        <pt x="455" y="-94" on="1"/>
        <pt x="439" y="-96" on="0"/>
        <pt x="426" y="-96" on="1"/>
        <pt x="399" y="-95" on="0"/>
        <pt x="352" y="-48" on="0"/>
        <pt x="334" y="-16" on="1"/>
        <pt x="327" y="-5" on="0"/>
        <pt x="294" y="59" on="0"/>
        <pt x="253" y="140" on="0"/>
        <pt x="209" y="225" on="0"/>
        <pt x="193" y="257" on="1"/>
        <pt x="179" y="243" on="0"/>
        <pt x="154" y="217" on="0"/>
        <pt x="140" y="206" on="1"/>
        <pt x="141" y="162" on="0"/>
        <pt x="142" y="85" on="0"/>
        <pt x="142" y="22" on="0"/>
        <pt x="141" y="-21" on="0"/>
        <pt x="141" y="-30" on="1"/>
        <pt x="141" y="-42" on="0"/>
        <pt x="129" y="-63" on="0"/>
        <pt x="104" y="-79" on="0"/>
        <pt x="61" y="-87" on="0"/>
        <pt x="30" y="-86" on="1"/>
        <pt x="32" y="-72" on="0"/>
        <pt x="38" y="-30" on="0"/>
        <pt x="40" y="-10" on="1"/>
        <pt x="43" y="13" on="0"/>
        <pt x="45" y="36" on="1"/>
        <pt x="47" y="59" on="0"/>
        <pt x="49" y="121" on="0"/>
        <pt x="50" y="157" on="1"/>
        <pt x="44" y="163" on="0"/>
        <pt x="31" y="179" on="0"/>
        <pt x="26" y="190" on="1"/>
        <pt x="30" y="194" on="0"/>
        <pt x="38" y="204" on="0"/>
        <pt x="42" y="208" on="1"/>
        <pt x="51" y="217" on="1"/>
      </contour>
    </TTGlyph>
    <TTGlyph name="L" xMin="26" yMin="-90" xMax="400" yMax="673">
      <contour>
        <pt x="26" y="-50" on="1"/>
        <pt x="30" y="-37" on="0"/>
        <pt x="37" y="24" on="0"/>
        <pt x="39" y="55" on="1"/>
        <pt x="42" y="91" on="0"/>
        <pt x="44" y="133" on="1"/>
        <pt x="47" y="164" on="0"/>
        <pt x="51" y="258" on="0"/>
        <pt x="53" y="364" on="0"/>
        <pt x="53" y="473" on="0"/>
        <pt x="51" y="567" on="0"/>
        <pt x="46" y="635" on="0"/>
        <pt x="42" y="647" on="1"/>
        <pt x="61" y="658" on="0"/>
        <pt x="91" y="668" on="0"/>
        <pt x="102" y="670" on="1"/>
        <pt x="114" y="673" on="0"/>
        <pt x="124" y="672" on="1"/>
        <pt x="132" y="671" on="0"/>
        <pt x="140" y="669" on="1"/>
        <pt x="147" y="667" on="0"/>
        <pt x="159" y="660" on="0"/>
        <pt x="162" y="654" on="1"/>
        <pt x="160" y="591" on="0"/>
        <pt x="155" y="464" on="0"/>
        <pt x="152" y="411" on="1"/>
        <pt x="148" y="349" on="0"/>
        <pt x="144" y="292" on="1"/>
        <pt x="141" y="232" on="0"/>
        <pt x="136" y="145" on="0"/>
        <pt x="132" y="80" on="0"/>
        <pt x="130" y="29" on="0"/>
        <pt x="130" y="4" on="1"/>
        <pt x="154" y="9" on="0"/>
        <pt x="220" y="22" on="0"/>
        <pt x="262" y="29" on="1"/>
        <pt x="302" y="35" on="0"/>
        <pt x="356" y="30" on="0"/>
        <pt x="388" y="11" on="0"/>
        <pt x="400" y="-18" on="0"/>
        <pt x="399" y="-36" on="1"/>
        <pt x="397" y="-56" on="0"/>
        <pt x="395" y="-78" on="0"/>
        <pt x="395" y="-84" on="1"/>
        <pt x="384" y="-77" on="0"/>
        <pt x="346" y="-71" on="0"/>
        <pt x="327" y="-69" on="1"/>
        <pt x="305" y="-67" on="0"/>
        <pt x="281" y="-68" on="1"/>
        <pt x="255" y="-69" on="0"/>
        <pt x="224" y="-72" on="1"/>
        <pt x="198" y="-74" on="0"/>
        <pt x="128" y="-82" on="0"/>
        <pt x="90" y="-90" on="1"/>
        <pt x="63" y="-71" on="0"/>
        <pt x="45" y="-60" on="1"/>
        <pt x="34" y="-54" on="0"/>
      </contour>
    </TTGlyph>
    <TTGlyph name="Lslash" xMin="-48" yMin="-90" xMax="400" yMax="673">
      <contour>
        <pt x="220" y="396" on="1"/>
        <pt x="230" y="393" on="0"/>
        <pt x="242" y="376" on="0"/>
        <pt x="248" y="356" on="0"/>
        <pt x="252" y="336" on="0"/>
        <pt x="254" y="330" on="1"/>
        <pt x="246" y="330" on="0"/>
        <pt x="219" y="322" on="0"/>
        <pt x="188" y="310" on="0"/>
        <pt x="157" y="297" on="0"/>
        <pt x="144" y="292" on="1"/>
        <pt x="140" y="232" on="0"/>
        <pt x="134" y="145" on="0"/>
        <pt x="131" y="80" on="0"/>
        <pt x="130" y="29" on="0"/>
        <pt x="130" y="4" on="1"/>
        <pt x="154" y="9" on="0"/>
        <pt x="220" y="22" on="0"/>
        <pt x="262" y="29" on="1"/>
        <pt x="302" y="35" on="0"/>
        <pt x="356" y="30" on="0"/>
        <pt x="388" y="11" on="0"/>
        <pt x="400" y="-18" on="0"/>
        <pt x="399" y="-36" on="1"/>
        <pt x="397" y="-56" on="0"/>
        <pt x="395" y="-78" on="0"/>
        <pt x="395" y="-84" on="1"/>
        <pt x="384" y="-77" on="0"/>
        <pt x="346" y="-71" on="0"/>
        <pt x="327" y="-69" on="1"/>
        <pt x="305" y="-67" on="0"/>
        <pt x="281" y="-68" on="1"/>
        <pt x="255" y="-69" on="0"/>
        <pt x="224" y="-72" on="1"/>
        <pt x="198" y="-74" on="0"/>
        <pt x="128" y="-82" on="0"/>
        <pt x="90" y="-90" on="1"/>
        <pt x="63" y="-71" on="0"/>
        <pt x="45" y="-60" on="1"/>
        <pt x="34" y="-54" on="0"/>
        <pt x="26" y="-50" on="1"/>
        <pt x="30" y="-37" on="0"/>
        <pt x="37" y="24" on="0"/>
        <pt x="39" y="55" on="1"/>
        <pt x="42" y="91" on="0"/>
        <pt x="44" y="133" on="1"/>
        <pt x="46" y="155" on="0"/>
        <pt x="49" y="212" on="0"/>
        <pt x="50" y="246" on="1"/>
        <pt x="30" y="234" on="0"/>
        <pt x="-7" y="210" on="0"/>
        <pt x="-15" y="199" on="1"/>
        <pt x="-26" y="202" on="0"/>
        <pt x="-45" y="233" on="0"/>
        <pt x="-48" y="258" on="1"/>
        <pt x="-37" y="267" on="0"/>
        <pt x="-9" y="286" on="0"/>
        <pt x="19" y="304" on="0"/>
        <pt x="44" y="319" on="0"/>
        <pt x="52" y="324" on="1"/>
        <pt x="53" y="376" on="0"/>
        <pt x="53" y="481" on="0"/>
        <pt x="51" y="570" on="0"/>
        <pt x="46" y="635" on="0"/>
        <pt x="42" y="647" on="1"/>
        <pt x="61" y="658" on="0"/>
        <pt x="91" y="668" on="0"/>
        <pt x="102" y="670" on="1"/>
        <pt x="114" y="673" on="0"/>
        <pt x="124" y="672" on="1"/>
        <pt x="132" y="671" on="0"/>
        <pt x="140" y="669" on="1"/>
        <pt x="147" y="667" on="0"/>
        <pt x="159" y="660" on="0"/>
        <pt x="162" y="654" on="1"/>
        <pt x="160" y="582" on="0"/>
        <pt x="154" y="435" on="0"/>
        <pt x="151" y="380" on="1"/>
        <pt x="198" y="402" on="0"/>
      </contour>
    </TTGlyph>
    <TTGlyph name="M" xMin="46" yMin="-87" xMax="673" yMax="674">
      <contour>
        <pt x="593" y="-85" on="1"/>
        <pt x="563" y="-84" on="0"/>
        <pt x="541" y="-49" on="0"/>
        <pt x="537" y="13" on="0"/>
        <pt x="545" y="98" on="0"/>
        <pt x="545" y="148" on="1"/>
        <pt x="546" y="247" on="0"/>
        <pt x="559" y="410" on="0"/>
        <pt x="556" y="487" on="1"/>
        <pt x="556" y="493" on="0"/>
        <pt x="556" y="503" on="0"/>
        <pt x="555" y="508" on="1"/>
        <pt x="550" y="491" on="0"/>
        <pt x="537" y="448" on="0"/>
        <pt x="528" y="422" on="1"/>
        <pt x="510" y="366" on="0"/>
        <pt x="475" y="248" on="0"/>
        <pt x="442" y="137" on="0"/>
        <pt x="413" y="42" on="0"/>
        <pt x="402" y="10" on="1"/>
        <pt x="391" y="-22" on="0"/>
        <pt x="370" y="-53" on="0"/>
        <pt x="349" y="-65" on="0"/>
        <pt x="328" y="-63" on="0"/>
        <pt x="318" y="-62" on="1"/>
        <pt x="314" y="-28" on="0"/>
        <pt x="292" y="64" on="0"/>
        <pt x="280" y="106" on="1"/>
        <pt x="266" y="155" on="0"/>
        <pt x="249" y="206" on="1"/>
        <pt x="226" y="294" on="0"/>
        <pt x="176" y="440" on="0"/>
        <pt x="162" y="487" on="1"/>
        <pt x="156" y="436" on="0"/>
        <pt x="150" y="304" on="0"/>
        <pt x="148" y="172" on="0"/>
        <pt x="152" y="55" on="0"/>
        <pt x="156" y="19" on="1"/>
        <pt x="157" y="4" on="0"/>
        <pt x="160" y="-11" on="1"/>
        <pt x="162" y="-24" on="0"/>
        <pt x="169" y="-51" on="0"/>
        <pt x="174" y="-62" on="1"/>
        <pt x="169" y="-66" on="0"/>
        <pt x="155" y="-72" on="0"/>
        <pt x="147" y="-74" on="1"/>
        <pt x="138" y="-77" on="0"/>
        <pt x="128" y="-79" on="1"/>
        <pt x="89" y="-87" on="0"/>
        <pt x="54" y="-67" on="0"/>
        <pt x="50" y="-37" on="1"/>
        <pt x="48" y="-22" on="0"/>
        <pt x="46" y="60" on="0"/>
        <pt x="47" y="167" on="0"/>
        <pt x="51" y="285" on="0"/>
        <pt x="55" y="336" on="1"/>
        <pt x="59" y="377" on="0"/>
        <pt x="63" y="425" on="1"/>
        <pt x="67" y="467" on="0"/>
        <pt x="75" y="577" on="0"/>
        <pt x="80" y="641" on="1"/>
        <pt x="83" y="647" on="0"/>
        <pt x="97" y="656" on="0"/>
        <pt x="105" y="659" on="1"/>
        <pt x="114" y="663" on="0"/>
        <pt x="125" y="665" on="1"/>
        <pt x="142" y="668" on="0"/>
        <pt x="155" y="670" on="1"/>
        <pt x="166" y="672" on="0"/>
        <pt x="185" y="674" on="0"/>
        <pt x="183" y="673" on="1"/>
        <pt x="196" y="646" on="0"/>
        <pt x="210" y="611" on="0"/>
        <pt x="225" y="563" on="0"/>
        <pt x="248" y="485" on="0"/>
        <pt x="270" y="415" on="1"/>
        <pt x="300" y="318" on="0"/>
        <pt x="343" y="174" on="0"/>
        <pt x="354" y="136" on="1"/>
        <pt x="361" y="149" on="0"/>
        <pt x="375" y="180" on="0"/>
        <pt x="390" y="224" on="0"/>
        <pt x="407" y="283" on="0"/>
        <pt x="418" y="324" on="1"/>
        <pt x="432" y="369" on="0"/>
        <pt x="447" y="421" on="1"/>
        <pt x="459" y="465" on="0"/>
        <pt x="488" y="578" on="0"/>
        <pt x="501" y="639" on="1"/>
        <pt x="533" y="652" on="0"/>
        <pt x="573" y="665" on="0"/>
        <pt x="584" y="669" on="1"/>
        <pt x="597" y="673" on="0"/>
        <pt x="603" y="674" on="1"/>
        <pt x="609" y="673" on="0"/>
        <pt x="615" y="668" on="1"/>
        <pt x="620" y="663" on="0"/>
        <pt x="634" y="645" on="0"/>
        <pt x="642" y="627" on="1"/>
        <pt x="642" y="613" on="0"/>
        <pt x="642" y="551" on="0"/>
        <pt x="642" y="470" on="0"/>
        <pt x="640" y="376" on="0"/>
        <pt x="639" y="281" on="0"/>
        <pt x="638" y="191" on="0"/>
        <pt x="637" y="156" on="1"/>
        <pt x="635" y="103" on="0"/>
        <pt x="638" y="29" on="0"/>
        <pt x="647" y="-20" on="0"/>
        <pt x="662" y="-50" on="0"/>
        <pt x="673" y="-59" on="1"/>
        <pt x="670" y="-61" on="0"/>
        <pt x="653" y="-70" on="0"/>
        <pt x="629" y="-79" on="0"/>
        <pt x="603" y="-85" on="0"/>
      </contour>
    </TTGlyph>
    <TTGlyph name="N" xMin="46" yMin="-87" xMax="521" yMax="672">
      <contour>
        <pt x="47" y="37" on="1"/>
        <pt x="46" y="57" on="0"/>
        <pt x="47" y="127" on="0"/>
        <pt x="50" y="212" on="0"/>
        <pt x="54" y="307" on="0"/>
        <pt x="57" y="399" on="0"/>
        <pt x="60" y="482" on="0"/>
        <pt x="61" y="513" on="1"/>
        <pt x="62" y="535" on="0"/>
        <pt x="63" y="556" on="1"/>
        <pt x="64" y="574" on="0"/>
        <pt x="64" y="616" on="0"/>
        <pt x="62" y="633" on="1"/>
        <pt x="70" y="636" on="0"/>
        <pt x="80" y="642" on="0"/>
        <pt x="90" y="649" on="0"/>
        <pt x="103" y="658" on="0"/>
        <pt x="115" y="663" on="1"/>
        <pt x="122" y="666" on="0"/>
        <pt x="130" y="668" on="1"/>
        <pt x="137" y="670" on="0"/>
        <pt x="154" y="672" on="0"/>
        <pt x="164" y="671" on="1"/>
        <pt x="181" y="615" on="0"/>
        <pt x="216" y="520" on="0"/>
        <pt x="252" y="431" on="0"/>
        <pt x="292" y="342" on="0"/>
        <pt x="313" y="291" on="1"/>
        <pt x="335" y="239" on="0"/>
        <pt x="371" y="153" on="0"/>
        <pt x="383" y="121" on="1"/>
        <pt x="385" y="157" on="0"/>
        <pt x="389" y="246" on="0"/>
        <pt x="391" y="340" on="0"/>
        <pt x="392" y="431" on="0"/>
        <pt x="393" y="510" on="0"/>
        <pt x="393" y="570" on="0"/>
        <pt x="393" y="584" on="1"/>
        <pt x="393" y="609" on="0"/>
        <pt x="420" y="642" on="0"/>
        <pt x="455" y="662" on="0"/>
        <pt x="490" y="670" on="0"/>
        <pt x="498" y="670" on="1"/>
        <pt x="504" y="670" on="0"/>
        <pt x="508" y="669" on="1"/>
        <pt x="512" y="668" on="0"/>
        <pt x="519" y="666" on="0"/>
        <pt x="521" y="664" on="1"/>
        <pt x="504" y="641" on="0"/>
        <pt x="488" y="589" on="0"/>
        <pt x="481" y="537" on="0"/>
        <pt x="481" y="487" on="0"/>
        <pt x="481" y="466" on="1"/>
        <pt x="480" y="416" on="0"/>
        <pt x="478" y="343" on="1"/>
        <pt x="476" y="280" on="0"/>
        <pt x="474" y="92" on="0"/>
        <pt x="474" y="-39" on="1"/>
        <pt x="453" y="-56" on="0"/>
        <pt x="417" y="-80" on="0"/>
        <pt x="389" y="-76" on="1"/>
        <pt x="377" y="-75" on="0"/>
        <pt x="362" y="-57" on="0"/>
        <pt x="347" y="-24" on="0"/>
        <pt x="331" y="25" on="0"/>
        <pt x="318" y="58" on="1"/>
        <pt x="295" y="116" on="0"/>
        <pt x="247" y="234" on="0"/>
        <pt x="203" y="340" on="0"/>
        <pt x="166" y="427" on="0"/>
        <pt x="154" y="454" on="1"/>
        <pt x="136" y="317" on="0"/>
        <pt x="139" y="119" on="0"/>
        <pt x="144" y="73" on="1"/>
        <pt x="147" y="53" on="0"/>
        <pt x="151" y="32" on="1"/>
        <pt x="155" y="14" on="0"/>
        <pt x="167" y="-31" on="0"/>
        <pt x="177" y="-54" on="1"/>
        <pt x="160" y="-71" on="0"/>
        <pt x="127" y="-83" on="0"/>
        <pt x="114" y="-85" on="1"/>
        <pt x="99" y="-87" on="0"/>
        <pt x="85" y="-84" on="1"/>
        <pt x="78" y="-82" on="0"/>
        <pt x="65" y="-59" on="0"/>
        <pt x="55" y="-25" on="0"/>
        <pt x="48" y="16" on="0"/>
      </contour>
    </TTGlyph>
    <TTGlyph name="Ntilde" xMin="46" yMin="-87" xMax="521" yMax="823">
      <component glyphName="N" x="0" y="0" flags="0x204"/>
      <component glyphName="tilde" x="20" y="143" flags="0x4"/>
    </TTGlyph>
    <TTGlyph name="O" xMin="29" yMin="-86" xMax="526" yMax="678">
      <contour>
        <pt x="333" y="662" on="1"/>
        <pt x="370" y="661" on="0"/>
        <pt x="441" y="611" on="0"/>
        <pt x="495" y="521" on="0"/>
        <pt x="526" y="395" on="0"/>
        <pt x="525" y="317" on="1"/>
        <pt x="523" y="230" on="0"/>
        <pt x="485" y="82" on="0"/>
        <pt x="418" y="-26" on="0"/>
        <pt x="324" y="-86" on="0"/>
        <pt x="267" y="-85" on="1"/>
        <pt x="213" y="-84" on="0"/>
        <pt x="124" y="-38" on="0"/>
        <pt x="62" y="54" on="0"/>
        <pt x="29" y="194" on="0"/>
        <pt x="31" y="289" on="1"/>
        <pt x="33" y="384" on="0"/>
        <pt x="86" y="527" on="0"/>
        <pt x="160" y="624" on="0"/>
        <pt x="238" y="675" on="0"/>
        <pt x="265" y="678" on="1"/>
        <pt x="282" y="666" on="0"/>
        <pt x="289" y="655" on="1"/>
        <pt x="297" y="658" on="0"/>
        <pt x="318" y="662" on="0"/>
      </contour>
      <contour>
        <pt x="423" y="311" on="1"/>
        <pt x="424" y="362" on="0"/>
        <pt x="408" y="457" on="0"/>
        <pt x="381" y="531" on="0"/>
        <pt x="347" y="576" on="0"/>
        <pt x="330" y="577" on="1"/>
        <pt x="317" y="576" on="0"/>
        <pt x="304" y="569" on="1"/>
        <pt x="293" y="562" on="0"/>
        <pt x="267" y="534" on="0"/>
        <pt x="256" y="508" on="1"/>
        <pt x="246" y="522" on="0"/>
        <pt x="241" y="554" on="0"/>
        <pt x="243" y="570" on="1"/>
        <pt x="216" y="550" on="0"/>
        <pt x="176" y="491" on="0"/>
        <pt x="150" y="420" on="0"/>
        <pt x="136" y="341" on="0"/>
        <pt x="135" y="300" on="1"/>
        <pt x="133" y="218" on="0"/>
        <pt x="154" y="102" on="0"/>
        <pt x="191" y="27" on="0"/>
        <pt x="241" y="-8" on="0"/>
        <pt x="270" y="-8" on="1"/>
        <pt x="304" y="-9" on="0"/>
        <pt x="359" y="42" on="0"/>
        <pt x="399" y="130" on="0"/>
        <pt x="422" y="246" on="0"/>
      </contour>
    </TTGlyph>
    <TTGlyph name="OE" xMin="29" yMin="-81" xMax="747" yMax="683">
      <contour>
        <pt x="302" y="-81" on="1"/>
        <pt x="249" y="-81" on="0"/>
        <pt x="149" y="-37" on="0"/>
        <pt x="73" y="54" on="0"/>
        <pt x="29" y="194" on="0"/>
        <pt x="31" y="289" on="1"/>
        <pt x="33" y="384" on="0"/>
        <pt x="93" y="527" on="0"/>
        <pt x="175" y="624" on="0"/>
        <pt x="261" y="675" on="0"/>
        <pt x="288" y="678" on="1"/>
        <pt x="302" y="669" on="0"/>
        <pt x="315" y="651" on="0"/>
        <pt x="318" y="643" on="1"/>
        <pt x="327" y="647" on="0"/>
        <pt x="346" y="654" on="0"/>
        <pt x="357" y="656" on="1"/>
        <pt x="365" y="662" on="0"/>
        <pt x="390" y="673" on="0"/>
        <pt x="414" y="680" on="0"/>
        <pt x="434" y="683" on="0"/>
        <pt x="439" y="681" on="1"/>
        <pt x="439" y="666" on="1"/>
        <pt x="466" y="667" on="0"/>
        <pt x="524" y="668" on="0"/>
        <pt x="553" y="668" on="1"/>
        <pt x="592" y="669" on="0"/>
        <pt x="626" y="670" on="1"/>
        <pt x="655" y="671" on="0"/>
        <pt x="714" y="670" on="0"/>
        <pt x="730" y="669" on="1"/>
        <pt x="738" y="668" on="0"/>
        <pt x="747" y="647" on="0"/>
        <pt x="744" y="615" on="0"/>
        <pt x="726" y="577" on="0"/>
        <pt x="708" y="560" on="1"/>
        <pt x="684" y="565" on="0"/>
        <pt x="631" y="571" on="0"/>
        <pt x="609" y="573" on="1"/>
        <pt x="583" y="575" on="0"/>
        <pt x="559" y="574" on="1"/>
        <pt x="522" y="574" on="0"/>
        <pt x="464" y="573" on="0"/>
        <pt x="440" y="572" on="1"/>
        <pt x="441" y="522" on="0"/>
        <pt x="442" y="397" on="0"/>
        <pt x="442" y="331" on="1"/>
        <pt x="456" y="332" on="0"/>
        <pt x="483" y="334" on="0"/>
        <pt x="497" y="335" on="1"/>
        <pt x="533" y="337" on="0"/>
        <pt x="601" y="341" on="0"/>
        <pt x="652" y="334" on="0"/>
        <pt x="678" y="310" on="0"/>
        <pt x="671" y="284" on="1"/>
        <pt x="657" y="236" on="1"/>
        <pt x="655" y="241" on="0"/>
        <pt x="637" y="248" on="0"/>
        <pt x="626" y="250" on="1"/>
        <pt x="614" y="253" on="0"/>
        <pt x="599" y="255" on="1"/>
        <pt x="565" y="259" on="0"/>
        <pt x="482" y="253" on="0"/>
        <pt x="443" y="247" on="1"/>
        <pt x="443" y="246" on="1"/>
        <pt x="443" y="158" on="0"/>
        <pt x="441" y="43" on="0"/>
        <pt x="439" y="10" on="1"/>
        <pt x="450" y="12" on="0"/>
        <pt x="476" y="14" on="0"/>
        <pt x="492" y="16" on="1"/>
        <pt x="528" y="19" on="0"/>
        <pt x="567" y="20" on="1"/>
        <pt x="600" y="21" on="0"/>
        <pt x="680" y="20" on="0"/>
        <pt x="718" y="15" on="1"/>
        <pt x="724" y="5" on="0"/>
        <pt x="719" y="-27" on="0"/>
        <pt x="714" y="-42" on="1"/>
        <pt x="708" y="-60" on="0"/>
        <pt x="699" y="-80" on="1"/>
        <pt x="655" y="-75" on="0"/>
        <pt x="571" y="-71" on="0"/>
        <pt x="538" y="-70" on="1"/>
        <pt x="499" y="-69" on="0"/>
        <pt x="465" y="-70" on="1"/>
        <pt x="434" y="-69" on="0"/>
        <pt x="400" y="-72" on="0"/>
        <pt x="370" y="-77" on="0"/>
        <pt x="335" y="-81" on="0"/>
      </contour>
      <contour>
        <pt x="135" y="300" on="1"/>
        <pt x="133" y="219" on="0"/>
        <pt x="165" y="103" on="0"/>
        <pt x="216" y="30" on="0"/>
        <pt x="277" y="-4" on="0"/>
        <pt x="305" y="-4" on="1"/>
        <pt x="317" y="-4" on="0"/>
        <pt x="336" y="-4" on="0"/>
        <pt x="344" y="-3" on="1"/>
        <pt x="344" y="18" on="0"/>
        <pt x="345" y="71" on="0"/>
        <pt x="347" y="131" on="0"/>
        <pt x="348" y="194" on="0"/>
        <pt x="349" y="226" on="1"/>
        <pt x="333" y="229" on="0"/>
        <pt x="307" y="278" on="0"/>
        <pt x="308" y="308" on="1"/>
        <pt x="315" y="310" on="0"/>
        <pt x="330" y="312" on="0"/>
        <pt x="337" y="314" on="1"/>
        <pt x="345" y="316" on="0"/>
        <pt x="352" y="317" on="1"/>
        <pt x="352" y="343" on="0"/>
        <pt x="353" y="385" on="0"/>
        <pt x="354" y="401" on="1"/>
        <pt x="355" y="445" on="0"/>
        <pt x="354" y="531" on="0"/>
        <pt x="352" y="566" on="1"/>
        <pt x="346" y="565" on="0"/>
        <pt x="334" y="564" on="0"/>
        <pt x="328" y="562" on="1"/>
        <pt x="314" y="559" on="0"/>
        <pt x="303" y="552" on="1"/>
        <pt x="294" y="546" on="0"/>
        <pt x="279" y="525" on="0"/>
        <pt x="280" y="508" on="1"/>
        <pt x="267" y="524" on="0"/>
        <pt x="262" y="557" on="0"/>
        <pt x="266" y="571" on="1"/>
        <pt x="236" y="551" on="0"/>
        <pt x="189" y="492" on="0"/>
        <pt x="155" y="421" on="0"/>
        <pt x="136" y="341" on="0"/>
      </contour>
    </TTGlyph>
    <TTGlyph name="Oacute" xMin="29" yMin="-86" xMax="526" yMax="919">
      <component glyphName="O" x="0" y="0" flags="0x204"/>
      <component glyphName="acute" x="41" y="215" flags="0x4"/>
    </TTGlyph>
    <TTGlyph name="Ocircumflex" xMin="29" yMin="-86" xMax="526" yMax="872">
      <component glyphName="O" x="0" y="0" flags="0x204"/>
      <component glyphName="circumflex" x="10" y="184" flags="0x4"/>
    </TTGlyph>
    <TTGlyph name="Odieresis" xMin="29" yMin="-86" xMax="526" yMax="836">
      <component glyphName="O" x="0" y="0" flags="0x204"/>
      <component glyphName="dieresis" x="20" y="164" flags="0x4"/>
    </TTGlyph>
    <TTGlyph name="Ograve" xMin="29" yMin="-86" xMax="526" yMax="919">
      <component glyphName="O" x="0" y="0" flags="0x204"/>
      <component glyphName="grave" x="10" y="215" flags="0x4"/>
    </TTGlyph>
    <TTGlyph name="Oslash" xMin="24" yMin="-86" xMax="522" yMax="678">
      <contour>
        <pt x="73" y="32" on="1"/>
        <pt x="49" y="78" on="0"/>
        <pt x="24" y="204" on="0"/>
        <pt x="26" y="289" on="1"/>
        <pt x="28" y="384" on="0"/>
        <pt x="81" y="527" on="0"/>
        <pt x="154" y="624" on="0"/>
        <pt x="233" y="675" on="0"/>
        <pt x="260" y="678" on="1"/>
        <pt x="277" y="666" on="0"/>
        <pt x="284" y="655" on="1"/>
        <pt x="292" y="658" on="0"/>
        <pt x="313" y="662" on="0"/>
        <pt x="328" y="662" on="1"/>
        <pt x="357" y="660" on="0"/>
        <pt x="414" y="631" on="0"/>
        <pt x="437" y="602" on="1"/>
        <pt x="474" y="659" on="1"/>
        <pt x="482" y="658" on="0"/>
        <pt x="494" y="650" on="0"/>
        <pt x="499" y="645" on="1"/>
        <pt x="504" y="639" on="0"/>
        <pt x="509" y="632" on="1"/>
        <pt x="513" y="624" on="0"/>
        <pt x="516" y="616" on="1"/>
        <pt x="521" y="600" on="0"/>
        <pt x="517" y="588" on="1"/>
        <pt x="481" y="531" on="1"/>
        <pt x="501" y="489" on="0"/>
        <pt x="522" y="381" on="0"/>
        <pt x="520" y="317" on="1"/>
        <pt x="518" y="230" on="0"/>
        <pt x="480" y="82" on="0"/>
        <pt x="413" y="-26" on="0"/>
        <pt x="319" y="-86" on="0"/>
        <pt x="262" y="-85" on="1"/>
        <pt x="221" y="-84" on="0"/>
        <pt x="151" y="-59" on="0"/>
        <pt x="122" y="-33" on="1"/>
        <pt x="92" y="-79" on="1"/>
        <pt x="84" y="-79" on="0"/>
        <pt x="69" y="-74" on="0"/>
        <pt x="64" y="-71" on="1"/>
        <pt x="58" y="-67" on="0"/>
        <pt x="53" y="-62" on="1"/>
        <pt x="49" y="-57" on="0"/>
        <pt x="45" y="-51" on="1"/>
        <pt x="42" y="-46" on="0"/>
        <pt x="36" y="-34" on="0"/>
        <pt x="36" y="-26" on="1"/>
      </contour>
      <contour>
        <pt x="418" y="311" on="1"/>
        <pt x="419" y="339" on="0"/>
        <pt x="415" y="393" on="0"/>
        <pt x="410" y="419" on="1"/>
        <pt x="175" y="50" on="1"/>
        <pt x="210" y="-6" on="0"/>
        <pt x="265" y="-8" on="1"/>
        <pt x="299" y="-9" on="0"/>
        <pt x="354" y="42" on="0"/>
        <pt x="394" y="130" on="0"/>
        <pt x="417" y="246" on="0"/>
      </contour>
      <contour>
        <pt x="130" y="300" on="1"/>
        <pt x="128" y="205" on="0"/>
        <pt x="142" y="140" on="1"/>
        <pt x="382" y="515" on="1"/>
        <pt x="369" y="544" on="0"/>
        <pt x="339" y="577" on="0"/>
        <pt x="325" y="577" on="1"/>
        <pt x="312" y="576" on="0"/>
        <pt x="299" y="569" on="1"/>
        <pt x="288" y="562" on="0"/>
        <pt x="262" y="534" on="0"/>
        <pt x="251" y="508" on="1"/>
        <pt x="241" y="522" on="0"/>
        <pt x="236" y="554" on="0"/>
        <pt x="238" y="570" on="1"/>
        <pt x="211" y="550" on="0"/>
        <pt x="171" y="491" on="0"/>
        <pt x="145" y="420" on="0"/>
        <pt x="131" y="340" on="0"/>
      </contour>
    </TTGlyph>
    <TTGlyph name="Otilde" xMin="29" yMin="-86" xMax="526" yMax="844">
      <component glyphName="O" x="0" y="0" flags="0x204"/>
      <component glyphName="tilde" x="20" y="164" flags="0x4"/>
    </TTGlyph>
    <TTGlyph name="P" xMin="-18" yMin="-93" xMax="485" yMax="706">
      <contour>
        <pt x="252" y="683" on="1"/>
        <pt x="290" y="683" on="0"/>
        <pt x="372" y="659" on="0"/>
        <pt x="441" y="606" on="0"/>
        <pt x="485" y="521" on="0"/>
        <pt x="485" y="460" on="1"/>
        <pt x="485" y="405" on="0"/>
        <pt x="444" y="301" on="0"/>
        <pt x="369" y="215" on="0"/>
        <pt x="263" y="154" on="0"/>
        <pt x="198" y="143" on="1"/>
        <pt x="198" y="102" on="0"/>
        <pt x="201" y="72" on="1"/>
        <pt x="202" y="44" on="0"/>
        <pt x="205" y="5" on="0"/>
        <pt x="208" y="-23" on="0"/>
        <pt x="212" y="-46" on="0"/>
        <pt x="215" y="-57" on="1"/>
        <pt x="195" y="-72" on="0"/>
        <pt x="159" y="-86" on="0"/>
        <pt x="145" y="-89" on="1"/>
        <pt x="129" y="-93" on="0"/>
        <pt x="115" y="-91" on="1"/>
        <pt x="110" y="-78" on="0"/>
        <pt x="102" y="-47" on="0"/>
        <pt x="99" y="3" on="0"/>
        <pt x="99" y="80" on="0"/>
        <pt x="101" y="140" on="1"/>
        <pt x="93" y="141" on="0"/>
        <pt x="75" y="142" on="0"/>
        <pt x="67" y="144" on="1"/>
        <pt x="60" y="160" on="0"/>
        <pt x="56" y="184" on="0"/>
        <pt x="56" y="192" on="1"/>
        <pt x="56" y="202" on="0"/>
        <pt x="58" y="208" on="1"/>
        <pt x="66" y="207" on="0"/>
        <pt x="82" y="206" on="0"/>
        <pt x="89" y="206" on="1"/>
        <pt x="97" y="205" on="0"/>
        <pt x="104" y="205" on="1"/>
        <pt x="106" y="251" on="0"/>
        <pt x="111" y="350" on="0"/>
        <pt x="114" y="444" on="0"/>
        <pt x="117" y="531" on="0"/>
        <pt x="118" y="565" on="1"/>
        <pt x="88" y="545" on="0"/>
        <pt x="43" y="481" on="0"/>
        <pt x="36" y="439" on="1"/>
        <pt x="23" y="441" on="0"/>
        <pt x="5" y="462" on="0"/>
        <pt x="-1" y="473" on="1"/>
        <pt x="-8" y="486" on="0"/>
        <pt x="-13" y="502" on="1"/>
        <pt x="-18" y="521" on="0"/>
        <pt x="-9" y="560" on="0"/>
        <pt x="11" y="595" on="0"/>
        <pt x="37" y="622" on="0"/>
        <pt x="49" y="630" on="1"/>
        <pt x="71" y="643" on="0"/>
        <pt x="115" y="664" on="0"/>
        <pt x="143" y="671" on="1"/>
        <pt x="154" y="682" on="0"/>
        <pt x="181" y="700" on="0"/>
        <pt x="194" y="702" on="1"/>
        <pt x="210" y="706" on="0"/>
        <pt x="212" y="681" on="1"/>
        <pt x="221" y="682" on="0"/>
        <pt x="241" y="683" on="0"/>
      </contour>
      <contour>
        <pt x="198" y="218" on="1"/>
        <pt x="225" y="226" on="0"/>
        <pt x="289" y="258" on="0"/>
        <pt x="345" y="311" on="0"/>
        <pt x="383" y="389" on="0"/>
        <pt x="383" y="444" on="1"/>
        <pt x="383" y="486" on="0"/>
        <pt x="354" y="545" on="0"/>
        <pt x="308" y="582" on="0"/>
        <pt x="253" y="599" on="0"/>
        <pt x="226" y="599" on="1"/>
        <pt x="221" y="599" on="0"/>
        <pt x="211" y="599" on="0"/>
        <pt x="206" y="598" on="1"/>
        <pt x="203" y="566" on="0"/>
        <pt x="203" y="529" on="1"/>
        <pt x="203" y="504" on="0"/>
        <pt x="201" y="433" on="0"/>
        <pt x="199" y="351" on="0"/>
        <pt x="198" y="261" on="0"/>
      </contour>
    </TTGlyph>
    <TTGlyph name="Q" xMin="18" yMin="-155" xMax="534" yMax="678">
      <contour>
        <pt x="260" y="-8" on="1"/>
        <pt x="280" y="-8" on="0"/>
        <pt x="294" y="-1" on="1"/>
        <pt x="285" y="15" on="0"/>
        <pt x="263" y="46" on="0"/>
        <pt x="239" y="71" on="0"/>
        <pt x="213" y="87" on="0"/>
        <pt x="198" y="87" on="1"/>
        <pt x="187" y="87" on="0"/>
        <pt x="174" y="70" on="0"/>
        <pt x="176" y="45" on="0"/>
        <pt x="194" y="17" on="0"/>
        <pt x="214" y="5" on="1"/>
        <pt x="234" y="-8" on="0"/>
      </contour>
      <contour>
        <pt x="323" y="662" on="1"/>
        <pt x="360" y="661" on="0"/>
        <pt x="431" y="611" on="0"/>
        <pt x="485" y="521" on="0"/>
        <pt x="516" y="395" on="0"/>
        <pt x="515" y="317" on="1"/>
        <pt x="513" y="205" on="0"/>
        <pt x="453" y="27" on="0"/>
        <pt x="399" y="-26" on="1"/>
        <pt x="427" y="-58" on="0"/>
        <pt x="486" y="-90" on="0"/>
        <pt x="534" y="-90" on="1"/>
        <pt x="530" y="-111" on="0"/>
        <pt x="503" y="-135" on="0"/>
        <pt x="489" y="-142" on="1"/>
        <pt x="471" y="-150" on="0"/>
        <pt x="451" y="-153" on="1"/>
        <pt x="426" y="-155" on="0"/>
        <pt x="389" y="-140" on="0"/>
        <pt x="362" y="-114" on="0"/>
        <pt x="342" y="-84" on="0"/>
        <pt x="334" y="-71" on="1"/>
        <pt x="297" y="-86" on="0"/>
        <pt x="257" y="-85" on="1"/>
        <pt x="203" y="-84" on="0"/>
        <pt x="114" y="-38" on="0"/>
        <pt x="51" y="54" on="0"/>
        <pt x="18" y="194" on="0"/>
        <pt x="20" y="289" on="1"/>
        <pt x="22" y="384" on="0"/>
        <pt x="76" y="527" on="0"/>
        <pt x="149" y="624" on="0"/>
        <pt x="228" y="675" on="0"/>
        <pt x="255" y="678" on="1"/>
        <pt x="269" y="668" on="0"/>
        <pt x="279" y="655" on="1"/>
        <pt x="287" y="658" on="0"/>
        <pt x="308" y="662" on="0"/>
      </contour>
      <contour>
        <pt x="413" y="311" on="1"/>
        <pt x="414" y="362" on="0"/>
        <pt x="398" y="457" on="0"/>
        <pt x="371" y="531" on="0"/>
        <pt x="337" y="576" on="0"/>
        <pt x="319" y="577" on="1"/>
        <pt x="306" y="576" on="0"/>
        <pt x="293" y="569" on="1"/>
        <pt x="282" y="562" on="0"/>
        <pt x="257" y="534" on="0"/>
        <pt x="246" y="508" on="1"/>
        <pt x="235" y="522" on="0"/>
        <pt x="230" y="554" on="0"/>
        <pt x="232" y="570" on="1"/>
        <pt x="205" y="550" on="0"/>
        <pt x="166" y="491" on="0"/>
        <pt x="140" y="420" on="0"/>
        <pt x="126" y="341" on="0"/>
        <pt x="125" y="300" on="1"/>
        <pt x="124" y="241" on="0"/>
        <pt x="134" y="149" on="0"/>
        <pt x="143" y="114" on="1"/>
        <pt x="150" y="130" on="0"/>
        <pt x="180" y="150" on="0"/>
        <pt x="206" y="150" on="1"/>
        <pt x="242" y="150" on="0"/>
        <pt x="305" y="103" on="0"/>
        <pt x="346" y="45" on="1"/>
        <pt x="377" y="89" on="0"/>
        <pt x="411" y="230" on="0"/>
      </contour>
    </TTGlyph>
    <TTGlyph name="R" xMin="-34" yMin="-115" xMax="544" yMax="706">
      <contour>
        <pt x="303" y="103" on="1"/>
        <pt x="293" y="134" on="0"/>
        <pt x="274" y="182" on="0"/>
        <pt x="267" y="199" on="1"/>
        <pt x="228" y="186" on="0"/>
        <pt x="182" y="181" on="1"/>
        <pt x="182" y="117" on="0"/>
        <pt x="185" y="72" on="1"/>
        <pt x="186" y="44" on="0"/>
        <pt x="189" y="5" on="0"/>
        <pt x="192" y="-23" on="0"/>
        <pt x="196" y="-46" on="0"/>
        <pt x="200" y="-57" on="1"/>
        <pt x="180" y="-72" on="0"/>
        <pt x="143" y="-86" on="0"/>
        <pt x="129" y="-89" on="1"/>
        <pt x="112" y="-93" on="0"/>
        <pt x="99" y="-91" on="1"/>
        <pt x="94" y="-77" on="0"/>
        <pt x="86" y="-46" on="0"/>
        <pt x="83" y="7" on="0"/>
        <pt x="83" y="89" on="0"/>
        <pt x="86" y="153" on="1"/>
        <pt x="87" y="160" on="0"/>
        <pt x="87" y="174" on="0"/>
        <pt x="88" y="181" on="1"/>
        <pt x="79" y="182" on="0"/>
        <pt x="60" y="184" on="0"/>
        <pt x="51" y="185" on="1"/>
        <pt x="45" y="201" on="0"/>
        <pt x="41" y="226" on="0"/>
        <pt x="41" y="234" on="1"/>
        <pt x="41" y="244" on="0"/>
        <pt x="43" y="250" on="1"/>
        <pt x="59" y="247" on="0"/>
        <pt x="75" y="247" on="1"/>
        <pt x="90" y="247" on="1"/>
        <pt x="92" y="289" on="0"/>
        <pt x="96" y="376" on="0"/>
        <pt x="99" y="459" on="0"/>
        <pt x="101" y="534" on="0"/>
        <pt x="102" y="565" on="1"/>
        <pt x="72" y="545" on="0"/>
        <pt x="28" y="481" on="0"/>
        <pt x="20" y="439" on="1"/>
        <pt x="7" y="441" on="0"/>
        <pt x="-11" y="462" on="0"/>
        <pt x="-17" y="473" on="1"/>
        <pt x="-24" y="486" on="0"/>
        <pt x="-29" y="502" on="1"/>
        <pt x="-34" y="521" on="0"/>
        <pt x="-24" y="560" on="0"/>
        <pt x="-4" y="595" on="0"/>
        <pt x="22" y="622" on="0"/>
        <pt x="34" y="630" on="1"/>
        <pt x="55" y="643" on="0"/>
        <pt x="100" y="664" on="0"/>
        <pt x="128" y="671" on="1"/>
        <pt x="139" y="682" on="0"/>
        <pt x="166" y="700" on="0"/>
        <pt x="178" y="702" on="1"/>
        <pt x="195" y="706" on="0"/>
        <pt x="197" y="681" on="1"/>
        <pt x="206" y="682" on="0"/>
        <pt x="226" y="683" on="0"/>
        <pt x="237" y="683" on="1"/>
        <pt x="275" y="683" on="0"/>
        <pt x="357" y="659" on="0"/>
        <pt x="426" y="606" on="0"/>
        <pt x="470" y="521" on="0"/>
        <pt x="470" y="460" on="1"/>
        <pt x="470" y="391" on="0"/>
        <pt x="405" y="275" on="0"/>
        <pt x="345" y="237" on="1"/>
        <pt x="352" y="219" on="0"/>
        <pt x="374" y="165" on="0"/>
        <pt x="385" y="131" on="1"/>
        <pt x="401" y="89" on="0"/>
        <pt x="438" y="16" on="0"/>
        <pt x="478" y="-38" on="0"/>
        <pt x="522" y="-71" on="0"/>
        <pt x="544" y="-74" on="1"/>
        <pt x="531" y="-94" on="0"/>
        <pt x="497" y="-110" on="0"/>
        <pt x="480" y="-112" on="1"/>
        <pt x="461" y="-115" on="0"/>
        <pt x="440" y="-112" on="1"/>
        <pt x="411" y="-106" on="0"/>
        <pt x="369" y="-62" on="0"/>
        <pt x="338" y="0" on="0"/>
        <pt x="313" y="71" on="0"/>
      </contour>
      <contour>
        <pt x="187" y="529" on="1"/>
        <pt x="187" y="507" on="0"/>
        <pt x="185" y="445" on="0"/>
        <pt x="184" y="373" on="0"/>
        <pt x="182" y="294" on="0"/>
        <pt x="182" y="255" on="1"/>
        <pt x="209" y="259" on="0"/>
        <pt x="274" y="277" on="0"/>
        <pt x="330" y="319" on="0"/>
        <pt x="368" y="389" on="0"/>
        <pt x="368" y="444" on="1"/>
        <pt x="368" y="486" on="0"/>
        <pt x="339" y="545" on="0"/>
        <pt x="293" y="582" on="0"/>
        <pt x="238" y="599" on="0"/>
        <pt x="211" y="599" on="1"/>
        <pt x="206" y="599" on="0"/>
        <pt x="196" y="599" on="0"/>
        <pt x="190" y="598" on="1"/>
        <pt x="187" y="566" on="0"/>
      </contour>
    </TTGlyph>
    <TTGlyph name="S" xMin="26" yMin="-87" xMax="489" yMax="679">
      <contour>
        <pt x="168" y="181" on="1"/>
        <pt x="151" y="167" on="0"/>
        <pt x="148" y="96" on="0"/>
        <pt x="175" y="23" on="0"/>
        <pt x="231" y="-33" on="0"/>
        <pt x="273" y="-33" on="1"/>
        <pt x="300" y="-33" on="0"/>
        <pt x="339" y="-7" on="0"/>
        <pt x="364" y="32" on="0"/>
        <pt x="376" y="80" on="0"/>
        <pt x="376" y="103" on="1"/>
        <pt x="376" y="136" on="0"/>
        <pt x="351" y="180" on="0"/>
        <pt x="310" y="213" on="0"/>
        <pt x="257" y="236" on="0"/>
        <pt x="230" y="248" on="1"/>
        <pt x="205" y="258" on="0"/>
        <pt x="135" y="289" on="0"/>
        <pt x="71" y="340" on="0"/>
        <pt x="26" y="415" on="0"/>
        <pt x="26" y="470" on="1"/>
        <pt x="26" y="506" on="0"/>
        <pt x="64" y="580" on="0"/>
        <pt x="134" y="641" on="0"/>
        <pt x="233" y="679" on="0"/>
        <pt x="295" y="679" on="1"/>
        <pt x="356" y="679" on="0"/>
        <pt x="432" y="657" on="0"/>
        <pt x="474" y="622" on="0"/>
        <pt x="489" y="581" on="0"/>
        <pt x="489" y="563" on="1"/>
        <pt x="489" y="545" on="0"/>
        <pt x="467" y="508" on="0"/>
        <pt x="437" y="477" on="0"/>
        <pt x="405" y="454" on="0"/>
        <pt x="395" y="450" on="1"/>
        <pt x="400" y="463" on="0"/>
        <pt x="410" y="509" on="0"/>
        <pt x="395" y="555" on="0"/>
        <pt x="340" y="589" on="0"/>
        <pt x="279" y="589" on="1"/>
        <pt x="244" y="589" on="0"/>
        <pt x="178" y="567" on="0"/>
        <pt x="127" y="532" on="0"/>
        <pt x="97" y="488" on="0"/>
        <pt x="97" y="465" on="1"/>
        <pt x="97" y="443" on="0"/>
        <pt x="128" y="406" on="0"/>
        <pt x="181" y="373" on="0"/>
        <pt x="250" y="341" on="0"/>
        <pt x="288" y="325" on="1"/>
        <pt x="325" y="309" on="0"/>
        <pt x="397" y="272" on="0"/>
        <pt x="454" y="224" on="0"/>
        <pt x="488" y="164" on="0"/>
        <pt x="488" y="125" on="1"/>
        <pt x="488" y="83" on="0"/>
        <pt x="457" y="6" on="0"/>
        <pt x="400" y="-52" on="0"/>
        <pt x="318" y="-87" on="0"/>
        <pt x="266" y="-87" on="1"/>
        <pt x="220" y="-87" on="0"/>
        <pt x="138" y="-57" on="0"/>
        <pt x="77" y="-9" on="0"/>
        <pt x="41" y="49" on="0"/>
        <pt x="41" y="77" on="1"/>
        <pt x="41" y="107" on="0"/>
        <pt x="68" y="149" on="0"/>
        <pt x="108" y="174" on="0"/>
        <pt x="151" y="184" on="0"/>
      </contour>
    </TTGlyph>
    <TTGlyph name="Scaron" xMin="26" yMin="-87" xMax="489" yMax="869">
      <component glyphName="S" x="0" y="0" flags="0x204"/>
      <component glyphName="caron" x="-9" y="184" flags="0x4"/>
    </TTGlyph>
    <TTGlyph name="T" xMin="-20" yMin="-83" xMax="416" yMax="679">
      <contour>
        <pt x="-4" y="549" on="1"/>
        <pt x="-9" y="555" on="0"/>
        <pt x="-15" y="571" on="0"/>
        <pt x="-17" y="579" on="1"/>
        <pt x="-19" y="588" on="0"/>
        <pt x="-20" y="597" on="1"/>
        <pt x="-20" y="614" on="1"/>
        <pt x="-20" y="621" on="0"/>
        <pt x="-18" y="634" on="0"/>
        <pt x="-14" y="638" on="1"/>
        <pt x="17" y="646" on="0"/>
        <pt x="89" y="655" on="0"/>
        <pt x="121" y="659" on="1"/>
        <pt x="158" y="663" on="0"/>
        <pt x="194" y="666" on="1"/>
        <pt x="204" y="673" on="0"/>
        <pt x="220" y="679" on="0"/>
        <pt x="225" y="676" on="1"/>
        <pt x="227" y="676" on="0"/>
        <pt x="229" y="668" on="1"/>
        <pt x="233" y="668" on="1"/>
        <pt x="269" y="669" on="0"/>
        <pt x="302" y="670" on="1"/>
        <pt x="330" y="671" on="0"/>
        <pt x="385" y="670" on="0"/>
        <pt x="400" y="669" on="1"/>
        <pt x="408" y="668" on="0"/>
        <pt x="416" y="646" on="0"/>
        <pt x="413" y="612" on="0"/>
        <pt x="397" y="572" on="0"/>
        <pt x="379" y="554" on="1"/>
        <pt x="356" y="560" on="0"/>
        <pt x="306" y="565" on="0"/>
        <pt x="286" y="567" on="1"/>
        <pt x="261" y="569" on="0"/>
        <pt x="239" y="569" on="1"/>
        <pt x="234" y="569" on="1"/>
        <pt x="235" y="529" on="0"/>
        <pt x="235" y="432" on="0"/>
        <pt x="234" y="333" on="0"/>
        <pt x="232" y="238" on="0"/>
        <pt x="231" y="201" on="1"/>
        <pt x="231" y="142" on="0"/>
        <pt x="231" y="57" on="0"/>
        <pt x="237" y="-2" on="0"/>
        <pt x="249" y="-38" on="0"/>
        <pt x="260" y="-49" on="1"/>
        <pt x="259" y="-50" on="0"/>
        <pt x="250" y="-61" on="0"/>
        <pt x="235" y="-73" on="0"/>
        <pt x="214" y="-83" on="0"/>
        <pt x="201" y="-82" on="1"/>
        <pt x="168" y="-81" on="0"/>
        <pt x="136" y="-39" on="0"/>
        <pt x="124" y="37" on="0"/>
        <pt x="127" y="145" on="0"/>
        <pt x="131" y="214" on="1"/>
        <pt x="134" y="261" on="0"/>
        <pt x="139" y="361" on="0"/>
        <pt x="144" y="454" on="0"/>
        <pt x="148" y="535" on="0"/>
        <pt x="150" y="565" on="1"/>
        <pt x="125" y="564" on="0"/>
        <pt x="99" y="561" on="1"/>
        <pt x="76" y="559" on="0"/>
        <pt x="22" y="553" on="0"/>
      </contour>
    </TTGlyph>
    <TTGlyph name="Thorn" xMin="-18" yMin="-118" xMax="485" yMax="697">
      <contour>
        <pt x="252" y="578" on="1"/>
        <pt x="290" y="578" on="0"/>
        <pt x="372" y="554" on="0"/>
        <pt x="441" y="501" on="0"/>
        <pt x="485" y="416" on="0"/>
        <pt x="485" y="355" on="1"/>
        <pt x="485" y="300" on="0"/>
        <pt x="444" y="196" on="0"/>
        <pt x="369" y="110" on="0"/>
        <pt x="263" y="49" on="0"/>
        <pt x="198" y="39" on="1"/>
        <pt x="200" y="-9" on="0"/>
        <pt x="213" y="-75" on="0"/>
        <pt x="225" y="-88" on="1"/>
        <pt x="218" y="-94" on="0"/>
        <pt x="196" y="-108" on="0"/>
        <pt x="171" y="-116" on="0"/>
        <pt x="145" y="-118" on="0"/>
        <pt x="134" y="-112" on="1"/>
        <pt x="118" y="-102" on="0"/>
        <pt x="111" y="-62" on="0"/>
        <pt x="111" y="-37" on="1"/>
        <pt x="111" y="35" on="1"/>
        <pt x="100" y="36" on="0"/>
        <pt x="78" y="38" on="0"/>
        <pt x="67" y="40" on="1"/>
        <pt x="60" y="56" on="0"/>
        <pt x="56" y="79" on="0"/>
        <pt x="56" y="87" on="1"/>
        <pt x="56" y="96" on="0"/>
        <pt x="58" y="103" on="1"/>
        <pt x="76" y="100" on="0"/>
        <pt x="93" y="100" on="1"/>
        <pt x="111" y="100" on="1"/>
        <pt x="112" y="154" on="0"/>
        <pt x="112" y="278" on="0"/>
        <pt x="113" y="339" on="1"/>
        <pt x="113" y="369" on="0"/>
        <pt x="114" y="429" on="0"/>
        <pt x="114" y="457" on="1"/>
        <pt x="85" y="436" on="0"/>
        <pt x="43" y="375" on="0"/>
        <pt x="36" y="335" on="1"/>
        <pt x="23" y="337" on="0"/>
        <pt x="5" y="357" on="0"/>
        <pt x="-1" y="368" on="1"/>
        <pt x="-8" y="380" on="0"/>
        <pt x="-13" y="396" on="1"/>
        <pt x="-18" y="415" on="0"/>
        <pt x="-9" y="455" on="0"/>
        <pt x="11" y="489" on="0"/>
        <pt x="37" y="517" on="0"/>
        <pt x="49" y="524" on="1"/>
        <pt x="66" y="535" on="0"/>
        <pt x="97" y="551" on="0"/>
        <pt x="116" y="558" on="1"/>
        <pt x="117" y="574" on="0"/>
        <pt x="117" y="591" on="1"/>
        <pt x="117" y="605" on="0"/>
        <pt x="117" y="639" on="0"/>
        <pt x="118" y="654" on="1"/>
        <pt x="131" y="670" on="0"/>
        <pt x="164" y="688" on="0"/>
        <pt x="179" y="692" on="1"/>
        <pt x="197" y="696" on="0"/>
        <pt x="214" y="697" on="1"/>
        <pt x="212" y="678" on="0"/>
        <pt x="209" y="635" on="0"/>
        <pt x="208" y="617" on="1"/>
        <pt x="206" y="596" on="0"/>
        <pt x="206" y="575" on="1"/>
        <pt x="227" y="578" on="0"/>
      </contour>
      <contour>
        <pt x="196" y="113" on="1"/>
        <pt x="223" y="121" on="0"/>
        <pt x="288" y="152" on="0"/>
        <pt x="345" y="204" on="0"/>
        <pt x="383" y="283" on="0"/>
        <pt x="383" y="339" on="1"/>
        <pt x="383" y="382" on="0"/>
        <pt x="354" y="441" on="0"/>
        <pt x="308" y="478" on="0"/>
        <pt x="253" y="495" on="0"/>
        <pt x="226" y="495" on="1"/>
        <pt x="220" y="495" on="0"/>
        <pt x="208" y="494" on="0"/>
        <pt x="202" y="493" on="1"/>
        <pt x="200" y="439" on="0"/>
        <pt x="196" y="324" on="0"/>
        <pt x="196" y="273" on="1"/>
        <pt x="196" y="231" on="0"/>
        <pt x="195" y="150" on="0"/>
      </contour>
    </TTGlyph>
    <TTGlyph name="U" xMin="40" yMin="-90" xMax="471" yMax="674">
      <contour>
        <pt x="145" y="173" on="1"/>
        <pt x="148" y="124" on="0"/>
        <pt x="172" y="54" on="0"/>
        <pt x="206" y="10" on="0"/>
        <pt x="246" y="-11" on="0"/>
        <pt x="264" y="-11" on="1"/>
        <pt x="283" y="-11" on="0"/>
        <pt x="322" y="14" on="0"/>
        <pt x="354" y="65" on="0"/>
        <pt x="372" y="140" on="0"/>
        <pt x="370" y="191" on="1"/>
        <pt x="370" y="238" on="0"/>
        <pt x="368" y="303" on="1"/>
        <pt x="366" y="359" on="0"/>
        <pt x="359" y="523" on="0"/>
        <pt x="352" y="634" on="1"/>
        <pt x="351" y="641" on="0"/>
        <pt x="374" y="658" on="0"/>
        <pt x="407" y="670" on="0"/>
        <pt x="441" y="674" on="0"/>
        <pt x="452" y="668" on="1"/>
        <pt x="460" y="579" on="0"/>
        <pt x="467" y="415" on="0"/>
        <pt x="468" y="352" on="1"/>
        <pt x="469" y="278" on="0"/>
        <pt x="468" y="213" on="1"/>
        <pt x="471" y="134" on="0"/>
        <pt x="435" y="20" on="0"/>
        <pt x="373" y="-53" on="0"/>
        <pt x="295" y="-89" on="0"/>
        <pt x="256" y="-89" on="1"/>
        <pt x="198" y="-90" on="0"/>
        <pt x="116" y="-42" on="0"/>
        <pt x="65" y="58" on="0"/>
        <pt x="41" y="208" on="0"/>
        <pt x="41" y="309" on="1"/>
        <pt x="40" y="358" on="0"/>
        <pt x="44" y="411" on="1"/>
        <pt x="47" y="456" on="0"/>
        <pt x="59" y="565" on="0"/>
        <pt x="71" y="617" on="1"/>
        <pt x="70" y="640" on="0"/>
        <pt x="103" y="662" on="0"/>
        <pt x="123" y="667" on="1"/>
        <pt x="146" y="672" on="0"/>
        <pt x="176" y="671" on="1"/>
        <pt x="161" y="550" on="0"/>
        <pt x="148" y="364" on="0"/>
        <pt x="146" y="301" on="1"/>
        <pt x="143" y="227" on="0"/>
      </contour>
    </TTGlyph>
    <TTGlyph name="Uacute" xMin="40" yMin="-90" xMax="471" yMax="909">
      <component glyphName="U" x="0" y="0" flags="0x204"/>
      <component glyphName="acute" x="31" y="205" flags="0x4"/>
    </TTGlyph>
    <TTGlyph name="Ucircumflex" xMin="40" yMin="-90" xMax="471" yMax="872">
      <component glyphName="U" x="0" y="0" flags="0x204"/>
      <component glyphName="circumflex" x="-9" y="184" flags="0x4"/>
    </TTGlyph>
    <TTGlyph name="Udieresis" xMin="40" yMin="-90" xMax="471" yMax="826">
      <component glyphName="U" x="0" y="0" flags="0x204"/>
      <component glyphName="dieresis" x="0" y="154" flags="0x4"/>
    </TTGlyph>
    <TTGlyph name="Ugrave" xMin="40" yMin="-90" xMax="471" yMax="909">
      <component glyphName="U" x="0" y="0" flags="0x204"/>
      <component glyphName="grave" x="-19" y="205" flags="0x4"/>
    </TTGlyph>
    <TTGlyph name="V" xMin="9" yMin="-87" xMax="473" yMax="681">
      <contour>
        <pt x="69" y="256" on="1"/>
        <pt x="42" y="355" on="0"/>
        <pt x="18" y="483" on="0"/>
        <pt x="9" y="558" on="0"/>
        <pt x="11" y="591" on="0"/>
        <pt x="11" y="595" on="1"/>
        <pt x="10" y="611" on="0"/>
        <pt x="21" y="647" on="0"/>
        <pt x="43" y="659" on="1"/>
        <pt x="69" y="676" on="0"/>
        <pt x="114" y="681" on="0"/>
        <pt x="116" y="679" on="1"/>
        <pt x="111" y="668" on="0"/>
        <pt x="109" y="640" on="0"/>
        <pt x="115" y="587" on="0"/>
        <pt x="128" y="498" on="0"/>
        <pt x="139" y="425" on="1"/>
        <pt x="147" y="371" on="0"/>
        <pt x="166" y="269" on="0"/>
        <pt x="185" y="178" on="0"/>
        <pt x="203" y="100" on="0"/>
        <pt x="211" y="70" on="1"/>
        <pt x="217" y="96" on="0"/>
        <pt x="230" y="165" on="0"/>
        <pt x="245" y="243" on="0"/>
        <pt x="264" y="325" on="0"/>
        <pt x="275" y="365" on="1"/>
        <pt x="286" y="414" on="0"/>
        <pt x="299" y="464" on="1"/>
        <pt x="310" y="507" on="0"/>
        <pt x="339" y="606" on="0"/>
        <pt x="356" y="648" on="1"/>
        <pt x="380" y="662" on="0"/>
        <pt x="423" y="670" on="0"/>
        <pt x="439" y="668" on="1"/>
        <pt x="457" y="666" on="0"/>
        <pt x="473" y="660" on="1"/>
        <pt x="463" y="639" on="0"/>
        <pt x="441" y="584" on="0"/>
        <pt x="420" y="525" on="0"/>
        <pt x="400" y="463" on="0"/>
        <pt x="391" y="434" on="1"/>
        <pt x="370" y="365" on="0"/>
        <pt x="349" y="293" on="1"/>
        <pt x="332" y="233" on="0"/>
        <pt x="316" y="171" on="1"/>
        <pt x="302" y="118" on="0"/>
        <pt x="273" y="-4" on="0"/>
        <pt x="262" y="-58" on="1"/>
        <pt x="262" y="-63" on="0"/>
        <pt x="239" y="-75" on="0"/>
        <pt x="208" y="-84" on="0"/>
        <pt x="173" y="-87" on="0"/>
        <pt x="160" y="-82" on="1"/>
        <pt x="142" y="-36" on="0"/>
        <pt x="110" y="81" on="0"/>
        <pt x="97" y="133" on="1"/>
        <pt x="82" y="194" on="0"/>
      </contour>
    </TTGlyph>
    <TTGlyph name="W" xMin="35" yMin="-83" xMax="644" yMax="673">
      <contour>
        <pt x="226" y="-45" on="1"/>
        <pt x="225" y="-45" on="1"/>
        <pt x="226" y="-46" on="1"/>
        <pt x="217" y="-57" on="0"/>
        <pt x="200" y="-69" on="0"/>
        <pt x="192" y="-73" on="1"/>
        <pt x="183" y="-77" on="0"/>
        <pt x="176" y="-79" on="1"/>
        <pt x="170" y="-80" on="0"/>
        <pt x="164" y="-80" on="1"/>
        <pt x="158" y="-80" on="0"/>
        <pt x="143" y="-79" on="0"/>
        <pt x="135" y="-77" on="1"/>
        <pt x="116" y="-17" on="0"/>
        <pt x="88" y="114" on="0"/>
        <pt x="78" y="169" on="1"/>
        <pt x="67" y="233" on="0"/>
        <pt x="59" y="296" on="1"/>
        <pt x="51" y="357" on="0"/>
        <pt x="46" y="418" on="1"/>
        <pt x="44" y="444" on="0"/>
        <pt x="39" y="500" on="0"/>
        <pt x="36" y="557" on="0"/>
        <pt x="35" y="612" on="0"/>
        <pt x="36" y="636" on="1"/>
        <pt x="56" y="650" on="0"/>
        <pt x="97" y="664" on="0"/>
        <pt x="113" y="668" on="1"/>
        <pt x="131" y="672" on="0"/>
        <pt x="148" y="673" on="1"/>
        <pt x="141" y="665" on="0"/>
        <pt x="134" y="628" on="0"/>
        <pt x="134" y="560" on="0"/>
        <pt x="140" y="454" on="0"/>
        <pt x="147" y="378" on="1"/>
        <pt x="150" y="351" on="0"/>
        <pt x="157" y="287" on="0"/>
        <pt x="165" y="218" on="0"/>
        <pt x="174" y="149" on="0"/>
        <pt x="178" y="118" on="1"/>
        <pt x="187" y="172" on="0"/>
        <pt x="214" y="316" on="0"/>
        <pt x="234" y="393" on="1"/>
        <pt x="248" y="449" on="0"/>
        <pt x="260" y="497" on="1"/>
        <pt x="271" y="539" on="0"/>
        <pt x="292" y="618" on="0"/>
        <pt x="298" y="637" on="1"/>
        <pt x="317" y="645" on="0"/>
        <pt x="331" y="648" on="1"/>
        <pt x="339" y="650" on="0"/>
        <pt x="345" y="651" on="1"/>
        <pt x="359" y="651" on="1"/>
        <pt x="366" y="651" on="0"/>
        <pt x="382" y="649" on="0"/>
        <pt x="391" y="646" on="1"/>
        <pt x="399" y="561" on="0"/>
        <pt x="417" y="408" on="0"/>
        <pt x="425" y="348" on="1"/>
        <pt x="435" y="278" on="0"/>
        <pt x="444" y="219" on="1"/>
        <pt x="449" y="179" on="0"/>
        <pt x="462" y="113" on="0"/>
        <pt x="467" y="85" on="1"/>
        <pt x="472" y="112" on="0"/>
        <pt x="489" y="191" on="0"/>
        <pt x="496" y="248" on="1"/>
        <pt x="506" y="309" on="0"/>
        <pt x="514" y="374" on="1"/>
        <pt x="521" y="430" on="0"/>
        <pt x="534" y="567" on="0"/>
        <pt x="538" y="636" on="1"/>
        <pt x="546" y="643" on="0"/>
        <pt x="563" y="653" on="0"/>
        <pt x="571" y="657" on="1"/>
        <pt x="580" y="661" on="0"/>
        <pt x="589" y="664" on="1"/>
        <pt x="598" y="667" on="0"/>
        <pt x="608" y="669" on="1"/>
        <pt x="616" y="671" on="0"/>
        <pt x="636" y="673" on="0"/>
        <pt x="644" y="672" on="1"/>
        <pt x="639" y="619" on="0"/>
        <pt x="621" y="492" on="0"/>
        <pt x="612" y="437" on="1"/>
        <pt x="601" y="372" on="0"/>
        <pt x="590" y="308" on="1"/>
        <pt x="578" y="244" on="0"/>
        <pt x="563" y="178" on="1"/>
        <pt x="550" y="121" on="0"/>
        <pt x="517" y="-10" on="0"/>
        <pt x="498" y="-68" on="1"/>
        <pt x="492" y="-74" on="0"/>
        <pt x="476" y="-79" on="0"/>
        <pt x="468" y="-81" on="1"/>
        <pt x="459" y="-83" on="0"/>
        <pt x="451" y="-83" on="1"/>
        <pt x="435" y="-83" on="0"/>
        <pt x="417" y="-76" on="0"/>
        <pt x="408" y="-63" on="0"/>
        <pt x="404" y="-45" on="0"/>
        <pt x="402" y="-34" on="1"/>
        <pt x="331" y="471" on="1"/>
      </contour>
    </TTGlyph>
    <TTGlyph name="X" xMin="-20" yMin="-95" xMax="485" yMax="676">
      <contour>
        <pt x="55" y="-76" on="1"/>
        <pt x="40" y="-82" on="0"/>
        <pt x="26" y="-81" on="1"/>
        <pt x="14" y="-80" on="0"/>
        <pt x="-12" y="-68" on="0"/>
        <pt x="-20" y="-49" on="1"/>
        <pt x="15" y="17" on="0"/>
        <pt x="79" y="132" on="0"/>
        <pt x="103" y="176" on="1"/>
        <pt x="131" y="227" on="0"/>
        <pt x="156" y="269" on="1"/>
        <pt x="155" y="271" on="0"/>
        <pt x="153" y="276" on="0"/>
        <pt x="152" y="279" on="1"/>
        <pt x="135" y="318" on="0"/>
        <pt x="115" y="371" on="1"/>
        <pt x="98" y="416" on="0"/>
        <pt x="48" y="545" on="0"/>
        <pt x="19" y="628" on="1"/>
        <pt x="23" y="637" on="0"/>
        <pt x="35" y="651" on="0"/>
        <pt x="41" y="656" on="1"/>
        <pt x="48" y="661" on="0"/>
        <pt x="55" y="666" on="1"/>
        <pt x="62" y="668" on="0"/>
        <pt x="69" y="671" on="1"/>
        <pt x="75" y="673" on="0"/>
        <pt x="87" y="676" on="0"/>
        <pt x="91" y="674" on="1"/>
        <pt x="115" y="611" on="0"/>
        <pt x="159" y="502" on="0"/>
        <pt x="176" y="460" on="1"/>
        <pt x="195" y="411" on="0"/>
        <pt x="213" y="369" on="1"/>
        <pt x="238" y="410" on="0"/>
        <pt x="266" y="458" on="1"/>
        <pt x="290" y="498" on="0"/>
        <pt x="351" y="601" on="0"/>
        <pt x="383" y="656" on="1"/>
        <pt x="391" y="661" on="0"/>
        <pt x="408" y="667" on="0"/>
        <pt x="416" y="669" on="1"/>
        <pt x="425" y="671" on="0"/>
        <pt x="434" y="670" on="1"/>
        <pt x="443" y="669" on="0"/>
        <pt x="452" y="667" on="1"/>
        <pt x="460" y="665" on="0"/>
        <pt x="477" y="659" on="0"/>
        <pt x="485" y="653" on="1"/>
        <pt x="431" y="568" on="0"/>
        <pt x="347" y="435" on="0"/>
        <pt x="318" y="387" on="1"/>
        <pt x="284" y="332" on="0"/>
        <pt x="259" y="289" on="1"/>
        <pt x="257" y="286" on="0"/>
        <pt x="255" y="281" on="0"/>
        <pt x="253" y="278" on="1"/>
        <pt x="282" y="215" on="0"/>
        <pt x="316" y="153" on="1"/>
        <pt x="345" y="99" on="0"/>
        <pt x="421" y="-25" on="0"/>
        <pt x="463" y="-79" on="1"/>
        <pt x="451" y="-87" on="0"/>
        <pt x="425" y="-93" on="0"/>
        <pt x="414" y="-94" on="1"/>
        <pt x="402" y="-95" on="0"/>
        <pt x="390" y="-94" on="1"/>
        <pt x="360" y="-89" on="0"/>
        <pt x="316" y="-47" on="0"/>
        <pt x="294" y="-12" on="1"/>
        <pt x="277" y="14" on="0"/>
        <pt x="226" y="110" on="0"/>
        <pt x="197" y="174" on="1"/>
        <pt x="171" y="121" on="0"/>
        <pt x="132" y="36" on="0"/>
        <pt x="101" y="-28" on="0"/>
        <pt x="72" y="-69" on="0"/>
      </contour>
    </TTGlyph>
    <TTGlyph name="Y" xMin="34" yMin="-168" xMax="458" yMax="683">
      <contour>
        <pt x="233" y="71" on="1"/>
        <pt x="148" y="71" on="0"/>
        <pt x="49" y="221" on="0"/>
        <pt x="38" y="360" on="1"/>
        <pt x="34" y="408" on="0"/>
        <pt x="40" y="502" on="0"/>
        <pt x="54" y="580" on="0"/>
        <pt x="74" y="636" on="0"/>
        <pt x="84" y="646" on="1"/>
        <pt x="94" y="656" on="0"/>
        <pt x="120" y="672" on="0"/>
        <pt x="145" y="681" on="0"/>
        <pt x="167" y="680" on="0"/>
        <pt x="174" y="674" on="1"/>
        <pt x="153" y="608" on="0"/>
        <pt x="131" y="479" on="0"/>
        <pt x="128" y="363" on="0"/>
        <pt x="141" y="263" on="0"/>
        <pt x="169" y="191" on="0"/>
        <pt x="211" y="150" on="0"/>
        <pt x="238" y="150" on="1"/>
        <pt x="285" y="150" on="0"/>
        <pt x="334" y="232" on="0"/>
        <pt x="354" y="360" on="0"/>
        <pt x="354" y="516" on="0"/>
        <pt x="353" y="591" on="1"/>
        <pt x="352" y="627" on="0"/>
        <pt x="365" y="666" on="0"/>
        <pt x="387" y="674" on="1"/>
        <pt x="395" y="677" on="0"/>
        <pt x="403" y="679" on="1"/>
        <pt x="419" y="683" on="0"/>
        <pt x="429" y="677" on="1"/>
        <pt x="437" y="645" on="0"/>
        <pt x="446" y="550" on="0"/>
        <pt x="448" y="504" on="1"/>
        <pt x="451" y="450" on="0"/>
        <pt x="451" y="393" on="1"/>
        <pt x="453" y="373" on="0"/>
        <pt x="458" y="303" on="0"/>
        <pt x="458" y="217" on="0"/>
        <pt x="452" y="120" on="0"/>
        <pt x="434" y="25" on="0"/>
        <pt x="402" y="-62" on="0"/>
        <pt x="348" y="-129" on="0"/>
        <pt x="272" y="-168" on="0"/>
        <pt x="220" y="-168" on="1"/>
        <pt x="178" y="-168" on="0"/>
        <pt x="114" y="-122" on="0"/>
        <pt x="75" y="-63" on="0"/>
        <pt x="62" y="-9" on="0"/>
        <pt x="71" y="0" on="1"/>
        <pt x="121" y="45" on="1"/>
        <pt x="131" y="-4" on="0"/>
        <pt x="168" y="-56" on="0"/>
        <pt x="187" y="-68" on="1"/>
        <pt x="209" y="-82" on="0"/>
        <pt x="233" y="-84" on="1"/>
        <pt x="272" y="-84" on="0"/>
        <pt x="321" y="-45" on="0"/>
        <pt x="351" y="25" on="0"/>
        <pt x="365" y="122" on="0"/>
        <pt x="368" y="179" on="1"/>
        <pt x="349" y="134" on="0"/>
        <pt x="284" y="71" on="0"/>
      </contour>
    </TTGlyph>
    <TTGlyph name="Yacute" xMin="34" yMin="-168" xMax="458" yMax="909">
      <component glyphName="Y" x="0" y="0" flags="0x204"/>
      <component glyphName="acute" x="31" y="205" flags="0x4"/>
    </TTGlyph>
    <TTGlyph name="Ydieresis" xMin="34" yMin="-168" xMax="458" yMax="836">
      <component glyphName="Y" x="0" y="0" flags="0x204"/>
      <component glyphName="dieresis" x="0" y="164" flags="0x4"/>
    </TTGlyph>
    <TTGlyph name="Z" xMin="5" yMin="-83" xMax="460" yMax="673">
      <contour>
        <pt x="5" y="22" on="1"/>
        <pt x="34" y="73" on="0"/>
        <pt x="107" y="184" on="0"/>
        <pt x="139" y="232" on="1"/>
        <pt x="177" y="287" on="0"/>
        <pt x="216" y="340" on="1"/>
        <pt x="281" y="437" on="0"/>
        <pt x="363" y="546" on="0"/>
        <pt x="380" y="571" on="1"/>
        <pt x="355" y="576" on="0"/>
        <pt x="283" y="586" on="0"/>
        <pt x="247" y="585" on="1"/>
        <pt x="218" y="585" on="0"/>
        <pt x="146" y="580" on="0"/>
        <pt x="83" y="562" on="0"/>
        <pt x="39" y="527" on="0"/>
        <pt x="38" y="496" on="1"/>
        <pt x="27" y="513" on="0"/>
        <pt x="16" y="546" on="0"/>
        <pt x="14" y="559" on="1"/>
        <pt x="11" y="574" on="0"/>
        <pt x="11" y="587" on="1"/>
        <pt x="13" y="620" on="0"/>
        <pt x="34" y="652" on="0"/>
        <pt x="58" y="657" on="1"/>
        <pt x="84" y="664" on="0"/>
        <pt x="168" y="673" on="0"/>
        <pt x="242" y="672" on="1"/>
        <pt x="276" y="672" on="0"/>
        <pt x="341" y="664" on="0"/>
        <pt x="394" y="653" on="0"/>
        <pt x="433" y="642" on="0"/>
        <pt x="441" y="639" on="1"/>
        <pt x="450" y="635" on="0"/>
        <pt x="458" y="609" on="0"/>
        <pt x="460" y="578" on="0"/>
        <pt x="459" y="552" on="0"/>
        <pt x="458" y="548" on="1"/>
        <pt x="455" y="525" on="0"/>
        <pt x="431" y="499" on="0"/>
        <pt x="423" y="486" on="1"/>
        <pt x="92" y="7" on="1"/>
        <pt x="114" y="13" on="0"/>
        <pt x="197" y="32" on="0"/>
        <pt x="252" y="36" on="1"/>
        <pt x="282" y="37" on="0"/>
        <pt x="311" y="38" on="1"/>
        <pt x="336" y="38" on="0"/>
        <pt x="393" y="37" on="0"/>
        <pt x="416" y="33" on="1"/>
        <pt x="426" y="26" on="0"/>
        <pt x="437" y="-4" on="0"/>
        <pt x="435" y="-39" on="0"/>
        <pt x="418" y="-72" on="0"/>
        <pt x="402" y="-83" on="1"/>
        <pt x="379" y="-74" on="0"/>
        <pt x="315" y="-65" on="0"/>
        <pt x="286" y="-63" on="1"/>
        <pt x="252" y="-60" on="0"/>
        <pt x="217" y="-60" on="1"/>
        <pt x="183" y="-60" on="0"/>
        <pt x="153" y="-63" on="1"/>
        <pt x="127" y="-65" on="0"/>
        <pt x="79" y="-73" on="0"/>
        <pt x="71" y="-80" on="1"/>
        <pt x="64" y="-83" on="0"/>
        <pt x="50" y="-72" on="0"/>
        <pt x="44" y="-64" on="1"/>
        <pt x="37" y="-55" on="0"/>
        <pt x="30" y="-42" on="1"/>
        <pt x="23" y="-29" on="0"/>
        <pt x="18" y="-17" on="1"/>
        <pt x="13" y="-6" on="0"/>
        <pt x="6" y="14" on="0"/>
      </contour>
    </TTGlyph>
    <TTGlyph name="Zcaron" xMin="5" yMin="-83" xMax="460" yMax="869">
      <component glyphName="Z" x="0" y="0" flags="0x204"/>
      <component glyphName="caron" x="-30" y="184" flags="0x4"/>
    </TTGlyph>
    <TTGlyph name="a" xMin="19" yMin="-5" xMax="349" yMax="390">
      <contour>
        <pt x="321" y="51" on="1"/>
        <pt x="323" y="44" on="0"/>
        <pt x="327" y="38" on="1"/>
        <pt x="330" y="33" on="0"/>
        <pt x="341" y="24" on="0"/>
        <pt x="349" y="23" on="1"/>
        <pt x="342" y="9" on="0"/>
        <pt x="335" y="4" on="1"/>
        <pt x="331" y="1" on="0"/>
        <pt x="328" y="0" on="1"/>
        <pt x="319" y="-3" on="0"/>
        <pt x="283" y="-3" on="0"/>
        <pt x="266" y="8" on="1"/>
        <pt x="260" y="13" on="0"/>
        <pt x="255" y="23" on="1"/>
        <pt x="250" y="31" on="0"/>
        <pt x="243" y="60" on="0"/>
        <pt x="241" y="83" on="1"/>
        <pt x="227" y="53" on="0"/>
        <pt x="192" y="18" on="0"/>
        <pt x="175" y="10" on="1"/>
        <pt x="156" y="-1" on="0"/>
        <pt x="136" y="-3" on="1"/>
        <pt x="111" y="-5" on="0"/>
        <pt x="66" y="16" on="0"/>
        <pt x="35" y="59" on="0"/>
        <pt x="19" y="121" on="0"/>
        <pt x="22" y="160" on="1"/>
        <pt x="25" y="201" on="0"/>
        <pt x="51" y="265" on="0"/>
        <pt x="87" y="315" on="0"/>
        <pt x="127" y="350" on="0"/>
        <pt x="164" y="373" on="0"/>
        <pt x="191" y="384" on="0"/>
        <pt x="195" y="385" on="1"/>
        <pt x="206" y="388" on="0"/>
        <pt x="222" y="386" on="0"/>
        <pt x="228" y="378" on="1"/>
        <pt x="230" y="375" on="0"/>
        <pt x="233" y="371" on="1"/>
        <pt x="235" y="367" on="0"/>
        <pt x="241" y="354" on="0"/>
        <pt x="243" y="346" on="1"/>
        <pt x="219" y="335" on="0"/>
        <pt x="177" y="308" on="0"/>
        <pt x="142" y="270" on="0"/>
        <pt x="116" y="216" on="0"/>
        <pt x="109" y="177" on="1"/>
        <pt x="99" y="128" on="0"/>
        <pt x="130" y="68" on="0"/>
        <pt x="157" y="73" on="1"/>
        <pt x="173" y="78" on="0"/>
        <pt x="188" y="92" on="1"/>
        <pt x="201" y="104" on="0"/>
        <pt x="230" y="152" on="0"/>
        <pt x="243" y="194" on="1"/>
        <pt x="248" y="254" on="0"/>
        <pt x="255" y="323" on="0"/>
        <pt x="258" y="341" on="1"/>
        <pt x="262" y="362" on="0"/>
        <pt x="264" y="369" on="1"/>
        <pt x="267" y="374" on="0"/>
        <pt x="285" y="383" on="0"/>
        <pt x="307" y="389" on="0"/>
        <pt x="325" y="390" on="0"/>
        <pt x="328" y="389" on="1"/>
        <pt x="330" y="388" on="0"/>
        <pt x="330" y="341" on="0"/>
        <pt x="327" y="270" on="0"/>
        <pt x="323" y="187" on="0"/>
        <pt x="320" y="113" on="0"/>
        <pt x="319" y="58" on="0"/>
      </contour>
    </TTGlyph>
    <TTGlyph name="aacute" xMin="19" yMin="-5" xMax="349" yMax="644">
      <component glyphName="a" x="0" y="0" flags="0x204"/>
      <component glyphName="acute" x="-60" y="-60" flags="0x4"/>
    </TTGlyph>
    <TTGlyph name="acircumflex" xMin="19" yMin="-5" xMax="349" yMax="607">
      <component glyphName="a" x="0" y="0" flags="0x204"/>
      <component glyphName="circumflex" x="-71" y="-81" flags="0x4"/>
    </TTGlyph>
    <TTGlyph name="acute" xMin="204" yMin="514" xMax="355" yMax="704">
      <contour>
        <pt x="325" y="690" on="1"/>
        <pt x="338" y="679" on="0"/>
        <pt x="355" y="640" on="0"/>
        <pt x="348" y="622" on="1"/>
        <pt x="345" y="613" on="0"/>
        <pt x="316" y="580" on="0"/>
        <pt x="283" y="547" on="0"/>
        <pt x="255" y="521" on="0"/>
        <pt x="252" y="519" on="1"/>
        <pt x="247" y="514" on="0"/>
        <pt x="223" y="519" on="0"/>
        <pt x="214" y="530" on="1"/>
        <pt x="211" y="534" on="0"/>
        <pt x="209" y="538" on="1"/>
        <pt x="207" y="542" on="0"/>
        <pt x="204" y="551" on="0"/>
        <pt x="205" y="556" on="1"/>
        <pt x="230" y="593" on="0"/>
        <pt x="259" y="637" on="0"/>
        <pt x="267" y="648" on="1"/>
        <pt x="279" y="666" on="1"/>
        <pt x="284" y="674" on="0"/>
        <pt x="293" y="692" on="0"/>
        <pt x="293" y="703" on="1"/>
        <pt x="298" y="704" on="0"/>
        <pt x="309" y="699" on="0"/>
        <pt x="314" y="697" on="1"/>
        <pt x="319" y="693" on="0"/>
      </contour>
    </TTGlyph>
    <TTGlyph name="adieresis" xMin="19" yMin="-5" xMax="349" yMax="550">
      <component glyphName="a" x="0" y="0" flags="0x204"/>
      <component glyphName="dieresis" x="-60" y="-122" flags="0x4"/>
    </TTGlyph>
    <TTGlyph name="ae" xMin="19" yMin="-11" xMax="534" yMax="412">
      <contour>
        <pt x="534" y="124" on="1"/>
        <pt x="534" y="113" on="0"/>
        <pt x="519" y="68" on="0"/>
        <pt x="485" y="23" on="0"/>
        <pt x="431" y="-11" on="0"/>
        <pt x="393" y="-11" on="1"/>
        <pt x="358" y="-10" on="0"/>
        <pt x="330" y="1" on="1"/>
        <pt x="306" y="10" on="0"/>
        <pt x="261" y="49" on="0"/>
        <pt x="256" y="85" on="1"/>
        <pt x="240" y="54" on="0"/>
        <pt x="200" y="19" on="0"/>
        <pt x="181" y="10" on="1"/>
        <pt x="159" y="-1" on="0"/>
        <pt x="136" y="-3" on="1"/>
        <pt x="111" y="-5" on="0"/>
        <pt x="66" y="16" on="0"/>
        <pt x="35" y="59" on="0"/>
        <pt x="19" y="121" on="0"/>
        <pt x="22" y="160" on="1"/>
        <pt x="25" y="201" on="0"/>
        <pt x="51" y="265" on="0"/>
        <pt x="87" y="315" on="0"/>
        <pt x="127" y="350" on="0"/>
        <pt x="164" y="373" on="0"/>
        <pt x="191" y="384" on="0"/>
        <pt x="195" y="385" on="1"/>
        <pt x="206" y="388" on="0"/>
        <pt x="222" y="386" on="0"/>
        <pt x="228" y="378" on="1"/>
        <pt x="230" y="375" on="0"/>
        <pt x="233" y="371" on="1"/>
        <pt x="235" y="367" on="0"/>
        <pt x="241" y="354" on="0"/>
        <pt x="243" y="346" on="1"/>
        <pt x="219" y="335" on="0"/>
        <pt x="177" y="308" on="0"/>
        <pt x="142" y="270" on="0"/>
        <pt x="116" y="216" on="0"/>
        <pt x="109" y="177" on="1"/>
        <pt x="99" y="128" on="0"/>
        <pt x="130" y="68" on="0"/>
        <pt x="157" y="73" on="1"/>
        <pt x="173" y="78" on="0"/>
        <pt x="188" y="92" on="1"/>
        <pt x="201" y="104" on="0"/>
        <pt x="230" y="152" on="0"/>
        <pt x="243" y="194" on="1"/>
        <pt x="248" y="254" on="0"/>
        <pt x="255" y="323" on="0"/>
        <pt x="258" y="341" on="1"/>
        <pt x="262" y="362" on="0"/>
        <pt x="264" y="369" on="1"/>
        <pt x="267" y="374" on="0"/>
        <pt x="285" y="383" on="0"/>
        <pt x="307" y="389" on="0"/>
        <pt x="325" y="390" on="0"/>
        <pt x="328" y="389" on="1"/>
        <pt x="330" y="388" on="0"/>
        <pt x="330" y="367" on="1"/>
        <pt x="353" y="388" on="0"/>
        <pt x="408" y="412" on="0"/>
        <pt x="438" y="412" on="1"/>
        <pt x="475" y="412" on="0"/>
        <pt x="527" y="359" on="0"/>
        <pt x="527" y="310" on="1"/>
        <pt x="527" y="278" on="0"/>
        <pt x="499" y="215" on="0"/>
        <pt x="455" y="166" on="0"/>
        <pt x="401" y="136" on="0"/>
        <pt x="376" y="136" on="1"/>
        <pt x="345" y="136" on="0"/>
        <pt x="329" y="152" on="1"/>
        <pt x="332" y="95" on="0"/>
        <pt x="376" y="50" on="0"/>
        <pt x="411" y="50" on="1"/>
        <pt x="435" y="50" on="0"/>
        <pt x="471" y="70" on="0"/>
        <pt x="497" y="96" on="0"/>
        <pt x="513" y="123" on="0"/>
        <pt x="516" y="130" on="1"/>
        <pt x="519" y="136" on="0"/>
        <pt x="534" y="136" on="0"/>
      </contour>
      <contour>
        <pt x="439" y="369" on="1"/>
        <pt x="433" y="369" on="0"/>
        <pt x="400" y="344" on="0"/>
        <pt x="364" y="296" on="0"/>
        <pt x="333" y="229" on="0"/>
        <pt x="330" y="187" on="1"/>
        <pt x="390" y="201" on="0"/>
        <pt x="460" y="261" on="0"/>
        <pt x="460" y="319" on="1"/>
        <pt x="460" y="348" on="0"/>
        <pt x="444" y="369" on="0"/>
      </contour>
    </TTGlyph>
    <TTGlyph name="agrave" xMin="19" yMin="-5" xMax="349" yMax="644">
      <component glyphName="a" x="0" y="0" flags="0x204"/>
      <component glyphName="grave" x="-91" y="-60" flags="0x4"/>
    </TTGlyph>
    <TTGlyph name="ampersand" xMin="15" yMin="-84" xMax="563" yMax="679">
      <contour>
        <pt x="477" y="45" on="1"/>
        <pt x="503" y="16" on="0"/>
        <pt x="548" y="-30" on="0"/>
        <pt x="563" y="-44" on="1"/>
        <pt x="551" y="-52" on="0"/>
        <pt x="528" y="-62" on="0"/>
        <pt x="519" y="-66" on="1"/>
        <pt x="508" y="-70" on="0"/>
        <pt x="499" y="-73" on="1"/>
        <pt x="475" y="-78" on="0"/>
        <pt x="436" y="-52" on="0"/>
        <pt x="422" y="-35" on="1"/>
        <pt x="418" y="-31" on="0"/>
        <pt x="410" y="-19" on="1"/>
        <pt x="390" y="-33" on="0"/>
        <pt x="344" y="-59" on="0"/>
        <pt x="290" y="-77" on="0"/>
        <pt x="227" y="-84" on="0"/>
        <pt x="191" y="-81" on="1"/>
        <pt x="154" y="-78" on="0"/>
        <pt x="90" y="-42" on="0"/>
        <pt x="42" y="12" on="0"/>
        <pt x="15" y="79" on="0"/>
        <pt x="15" y="114" on="1"/>
        <pt x="15" y="150" on="0"/>
        <pt x="39" y="217" on="0"/>
        <pt x="76" y="278" on="0"/>
        <pt x="121" y="332" on="0"/>
        <pt x="143" y="354" on="1"/>
        <pt x="135" y="369" on="0"/>
        <pt x="122" y="396" on="0"/>
        <pt x="117" y="410" on="1"/>
        <pt x="93" y="468" on="0"/>
        <pt x="96" y="568" on="0"/>
        <pt x="138" y="641" on="0"/>
        <pt x="216" y="679" on="0"/>
        <pt x="269" y="674" on="1"/>
        <pt x="300" y="671" on="0"/>
        <pt x="346" y="650" on="0"/>
        <pt x="376" y="619" on="0"/>
        <pt x="390" y="580" on="0"/>
        <pt x="390" y="559" on="1"/>
        <pt x="390" y="538" on="0"/>
        <pt x="377" y="488" on="0"/>
        <pt x="347" y="432" on="0"/>
        <pt x="297" y="370" on="0"/>
        <pt x="259" y="337" on="1"/>
        <pt x="270" y="319" on="0"/>
        <pt x="294" y="282" on="0"/>
        <pt x="306" y="262" on="1"/>
        <pt x="331" y="225" on="0"/>
        <pt x="393" y="145" on="0"/>
        <pt x="425" y="105" on="1"/>
        <pt x="448" y="134" on="0"/>
        <pt x="474" y="206" on="0"/>
        <pt x="474" y="244" on="1"/>
        <pt x="485" y="239" on="0"/>
        <pt x="500" y="224" on="0"/>
        <pt x="505" y="217" on="1"/>
        <pt x="511" y="208" on="0"/>
        <pt x="516" y="200" on="1"/>
        <pt x="528" y="172" on="0"/>
        <pt x="527" y="110" on="0"/>
        <pt x="497" y="70" on="1"/>
        <pt x="494" y="65" on="0"/>
        <pt x="483" y="52" on="0"/>
      </contour>
      <contour>
        <pt x="265" y="597" on="1"/>
        <pt x="252" y="598" on="0"/>
        <pt x="220" y="592" on="0"/>
        <pt x="192" y="575" on="0"/>
        <pt x="173" y="546" on="0"/>
        <pt x="173" y="524" on="1"/>
        <pt x="173" y="510" on="0"/>
        <pt x="193" y="456" on="0"/>
        <pt x="213" y="420" on="1"/>
        <pt x="262" y="466" on="0"/>
        <pt x="313" y="529" on="0"/>
        <pt x="313" y="553" on="1"/>
        <pt x="313" y="594" on="0"/>
      </contour>
      <contour>
        <pt x="230" y="9" on="1"/>
        <pt x="262" y="6" on="0"/>
        <pt x="328" y="24" on="0"/>
        <pt x="358" y="44" on="1"/>
        <pt x="321" y="90" on="0"/>
        <pt x="230" y="215" on="0"/>
        <pt x="188" y="278" on="1"/>
        <pt x="145" y="233" on="0"/>
        <pt x="119" y="160" on="0"/>
        <pt x="119" y="130" on="1"/>
        <pt x="119" y="114" on="0"/>
        <pt x="133" y="74" on="0"/>
        <pt x="161" y="38" on="0"/>
        <pt x="203" y="12" on="0"/>
      </contour>
    </TTGlyph>
    <TTGlyph name="aring" xMin="19" yMin="-5" xMax="349" yMax="606">
      <component glyphName="a" x="0" y="0" flags="0x204"/>
      <component glyphName="ring" x="-71" y="-101" flags="0x4"/>
    </TTGlyph>
    <TTGlyph name="asciicircum" xMin="9" yMin="232" xMax="339" yMax="668">
      <contour>
        <pt x="220" y="651" on="1"/>
        <pt x="225" y="619" on="0"/>
        <pt x="241" y="550" on="0"/>
        <pt x="249" y="520" on="1"/>
        <pt x="258" y="485" on="0"/>
        <pt x="267" y="451" on="1"/>
        <pt x="279" y="410" on="0"/>
        <pt x="291" y="371" on="1"/>
        <pt x="302" y="338" on="0"/>
        <pt x="326" y="268" on="0"/>
        <pt x="339" y="245" on="1"/>
        <pt x="327" y="241" on="0"/>
        <pt x="312" y="240" on="1"/>
        <pt x="299" y="239" on="0"/>
        <pt x="265" y="244" on="0"/>
        <pt x="244" y="252" on="1"/>
        <pt x="234" y="275" on="0"/>
        <pt x="218" y="329" on="0"/>
        <pt x="212" y="353" on="1"/>
        <pt x="205" y="381" on="0"/>
        <pt x="199" y="410" on="1"/>
        <pt x="189" y="444" on="0"/>
        <pt x="178" y="515" on="0"/>
        <pt x="173" y="544" on="1"/>
        <pt x="160" y="510" on="0"/>
        <pt x="131" y="423" on="0"/>
        <pt x="118" y="374" on="1"/>
        <pt x="106" y="332" on="0"/>
        <pt x="92" y="283" on="0"/>
        <pt x="86" y="254" on="0"/>
        <pt x="86" y="240" on="0"/>
        <pt x="89" y="233" on="1"/>
        <pt x="88" y="232" on="0"/>
        <pt x="76" y="233" on="0"/>
        <pt x="59" y="236" on="0"/>
        <pt x="40" y="242" on="0"/>
        <pt x="31" y="247" on="1"/>
        <pt x="16" y="254" on="0"/>
        <pt x="9" y="274" on="0"/>
        <pt x="10" y="284" on="1"/>
        <pt x="10" y="286" on="0"/>
        <pt x="11" y="304" on="0"/>
        <pt x="21" y="346" on="0"/>
        <pt x="44" y="416" on="0"/>
        <pt x="68" y="472" on="1"/>
        <pt x="81" y="508" on="0"/>
        <pt x="94" y="542" on="1"/>
        <pt x="105" y="571" on="0"/>
        <pt x="134" y="638" on="0"/>
        <pt x="148" y="665" on="1"/>
        <pt x="157" y="668" on="0"/>
        <pt x="182" y="666" on="0"/>
        <pt x="205" y="660" on="0"/>
        <pt x="220" y="653" on="0"/>
      </contour>
    </TTGlyph>
    <TTGlyph name="asciitilde" xMin="9" yMin="231" xMax="407" yMax="362">
      <contour>
        <pt x="394" y="262" on="1"/>
        <pt x="387" y="253" on="0"/>
        <pt x="350" y="231" on="0"/>
        <pt x="324" y="231" on="1"/>
        <pt x="294" y="231" on="0"/>
        <pt x="242" y="247" on="0"/>
        <pt x="197" y="267" on="0"/>
        <pt x="158" y="283" on="0"/>
        <pt x="140" y="283" on="1"/>
        <pt x="126" y="282" on="0"/>
        <pt x="110" y="277" on="1"/>
        <pt x="96" y="272" on="0"/>
        <pt x="61" y="252" on="0"/>
        <pt x="42" y="233" on="1"/>
        <pt x="30" y="237" on="0"/>
        <pt x="17" y="258" on="0"/>
        <pt x="10" y="282" on="0"/>
        <pt x="9" y="305" on="0"/>
        <pt x="11" y="311" on="1"/>
        <pt x="30" y="328" on="0"/>
        <pt x="69" y="346" on="0"/>
        <pt x="85" y="351" on="1"/>
        <pt x="103" y="356" on="0"/>
        <pt x="120" y="357" on="1"/>
        <pt x="146" y="357" on="0"/>
        <pt x="187" y="341" on="0"/>
        <pt x="226" y="322" on="0"/>
        <pt x="270" y="307" on="0"/>
        <pt x="300" y="308" on="1"/>
        <pt x="314" y="310" on="0"/>
        <pt x="330" y="316" on="1"/>
        <pt x="344" y="321" on="0"/>
        <pt x="376" y="342" on="0"/>
        <pt x="391" y="362" on="1"/>
        <pt x="397" y="355" on="0"/>
        <pt x="405" y="330" on="0"/>
        <pt x="407" y="301" on="0"/>
        <pt x="402" y="272" on="0"/>
      </contour>
    </TTGlyph>
    <TTGlyph name="asterisk" xMin="15" yMin="215" xMax="368" yMax="574">
      <contour>
        <pt x="351" y="464" on="1"/>
        <pt x="360" y="455" on="0"/>
        <pt x="364" y="442" on="1"/>
        <pt x="366" y="436" on="0"/>
        <pt x="367" y="429" on="1"/>
        <pt x="368" y="423" on="0"/>
        <pt x="368" y="416" on="1"/>
        <pt x="368" y="402" on="0"/>
        <pt x="364" y="387" on="1"/>
        <pt x="358" y="382" on="0"/>
        <pt x="337" y="375" on="0"/>
        <pt x="326" y="373" on="1"/>
        <pt x="314" y="370" on="0"/>
        <pt x="300" y="370" on="1"/>
        <pt x="277" y="368" on="0"/>
        <pt x="238" y="371" on="0"/>
        <pt x="223" y="373" on="1"/>
        <pt x="231" y="362" on="0"/>
        <pt x="256" y="324" on="0"/>
        <pt x="267" y="298" on="1"/>
        <pt x="269" y="290" on="0"/>
        <pt x="273" y="282" on="1"/>
        <pt x="275" y="275" on="0"/>
        <pt x="281" y="258" on="0"/>
        <pt x="283" y="250" on="1"/>
        <pt x="277" y="238" on="0"/>
        <pt x="266" y="231" on="1"/>
        <pt x="261" y="227" on="0"/>
        <pt x="256" y="225" on="1"/>
        <pt x="251" y="222" on="0"/>
        <pt x="244" y="220" on="1"/>
        <pt x="238" y="218" on="0"/>
        <pt x="221" y="215" on="0"/>
        <pt x="211" y="215" on="1"/>
        <pt x="211" y="226" on="0"/>
        <pt x="209" y="247" on="0"/>
        <pt x="208" y="255" on="1"/>
        <pt x="207" y="265" on="0"/>
        <pt x="206" y="273" on="1"/>
        <pt x="204" y="291" on="0"/>
        <pt x="187" y="338" on="0"/>
        <pt x="176" y="355" on="1"/>
        <pt x="169" y="348" on="0"/>
        <pt x="149" y="327" on="0"/>
        <pt x="129" y="307" on="0"/>
        <pt x="112" y="289" on="0"/>
        <pt x="108" y="285" on="1"/>
        <pt x="102" y="280" on="0"/>
        <pt x="86" y="269" on="0"/>
        <pt x="68" y="265" on="0"/>
        <pt x="51" y="268" on="0"/>
        <pt x="44" y="276" on="1"/>
        <pt x="38" y="282" on="0"/>
        <pt x="34" y="291" on="1"/>
        <pt x="30" y="299" on="0"/>
        <pt x="22" y="318" on="0"/>
        <pt x="20" y="331" on="1"/>
        <pt x="26" y="330" on="0"/>
        <pt x="39" y="332" on="0"/>
        <pt x="57" y="339" on="0"/>
        <pt x="80" y="353" on="0"/>
        <pt x="96" y="364" on="1"/>
        <pt x="110" y="373" on="0"/>
        <pt x="132" y="392" on="0"/>
        <pt x="140" y="400" on="1"/>
        <pt x="132" y="408" on="0"/>
        <pt x="107" y="432" on="0"/>
        <pt x="88" y="444" on="1"/>
        <pt x="64" y="461" on="0"/>
        <pt x="29" y="470" on="0"/>
        <pt x="15" y="469" on="1"/>
        <pt x="21" y="492" on="0"/>
        <pt x="31" y="507" on="1"/>
        <pt x="36" y="515" on="0"/>
        <pt x="42" y="521" on="1"/>
        <pt x="56" y="538" on="0"/>
        <pt x="88" y="529" on="0"/>
        <pt x="101" y="519" on="1"/>
        <pt x="113" y="511" on="0"/>
        <pt x="151" y="470" on="0"/>
        <pt x="166" y="439" on="1"/>
        <pt x="171" y="450" on="0"/>
        <pt x="187" y="486" on="0"/>
        <pt x="197" y="513" on="1"/>
        <pt x="205" y="538" on="0"/>
        <pt x="212" y="564" on="0"/>
        <pt x="210" y="574" on="1"/>
        <pt x="216" y="573" on="0"/>
        <pt x="227" y="572" on="0"/>
        <pt x="232" y="570" on="1"/>
        <pt x="241" y="567" on="1"/>
        <pt x="248" y="563" on="0"/>
        <pt x="256" y="559" on="1"/>
        <pt x="262" y="555" on="0"/>
        <pt x="277" y="544" on="0"/>
        <pt x="283" y="536" on="1"/>
        <pt x="280" y="527" on="0"/>
        <pt x="271" y="506" on="0"/>
        <pt x="266" y="496" on="1"/>
        <pt x="261" y="485" on="0"/>
        <pt x="254" y="473" on="1"/>
        <pt x="249" y="461" on="0"/>
        <pt x="230" y="435" on="0"/>
        <pt x="222" y="424" on="1"/>
        <pt x="236" y="426" on="0"/>
        <pt x="265" y="430" on="0"/>
        <pt x="278" y="433" on="1"/>
        <pt x="292" y="437" on="0"/>
        <pt x="305" y="441" on="1"/>
        <pt x="316" y="445" on="0"/>
        <pt x="341" y="456" on="0"/>
      </contour>
    </TTGlyph>
    <TTGlyph name="at" xMin="10" yMin="-18" xMax="574" yMax="589">
      <contour>
        <pt x="315" y="589" on="1"/>
        <pt x="392" y="589" on="0"/>
        <pt x="494" y="527" on="0"/>
        <pt x="553" y="433" on="0"/>
        <pt x="574" y="321" on="0"/>
        <pt x="571" y="271" on="1"/>
        <pt x="567" y="214" on="0"/>
        <pt x="531" y="122" on="0"/>
        <pt x="479" y="59" on="0"/>
        <pt x="418" y="29" on="0"/>
        <pt x="390" y="36" on="1"/>
        <pt x="364" y="42" on="0"/>
        <pt x="337" y="74" on="0"/>
        <pt x="326" y="112" on="0"/>
        <pt x="325" y="150" on="0"/>
        <pt x="327" y="163" on="1"/>
        <pt x="328" y="168" on="0"/>
        <pt x="329" y="177" on="0"/>
        <pt x="330" y="182" on="1"/>
        <pt x="311" y="148" on="0"/>
        <pt x="261" y="100" on="0"/>
        <pt x="233" y="100" on="1"/>
        <pt x="213" y="100" on="0"/>
        <pt x="181" y="118" on="0"/>
        <pt x="159" y="149" on="0"/>
        <pt x="148" y="188" on="0"/>
        <pt x="148" y="209" on="1"/>
        <pt x="148" y="250" on="0"/>
        <pt x="177" y="338" on="0"/>
        <pt x="223" y="412" on="0"/>
        <pt x="282" y="459" on="0"/>
        <pt x="312" y="459" on="1"/>
        <pt x="339" y="459" on="0"/>
        <pt x="367" y="427" on="0"/>
        <pt x="372" y="413" on="1"/>
        <pt x="383" y="447" on="1"/>
        <pt x="386" y="456" on="0"/>
        <pt x="403" y="453" on="0"/>
        <pt x="422" y="442" on="0"/>
        <pt x="436" y="427" on="0"/>
        <pt x="435" y="424" on="1"/>
        <pt x="393" y="249" on="1"/>
        <pt x="388" y="227" on="0"/>
        <pt x="376" y="174" on="0"/>
        <pt x="374" y="127" on="0"/>
        <pt x="388" y="95" on="0"/>
        <pt x="410" y="95" on="1"/>
        <pt x="434" y="95" on="0"/>
        <pt x="470" y="137" on="0"/>
        <pt x="493" y="202" on="0"/>
        <pt x="504" y="281" on="0"/>
        <pt x="504" y="318" on="1"/>
        <pt x="504" y="361" on="0"/>
        <pt x="483" y="444" on="0"/>
        <pt x="440" y="507" on="0"/>
        <pt x="375" y="546" on="0"/>
        <pt x="332" y="546" on="1"/>
        <pt x="283" y="546" on="0"/>
        <pt x="193" y="494" on="0"/>
        <pt x="124" y="404" on="0"/>
        <pt x="83" y="281" on="0"/>
        <pt x="83" y="210" on="1"/>
        <pt x="83" y="153" on="0"/>
        <pt x="120" y="77" on="0"/>
        <pt x="172" y="32" on="0"/>
        <pt x="229" y="14" on="0"/>
        <pt x="249" y="14" on="1"/>
        <pt x="256" y="13" on="0"/>
        <pt x="266" y="15" on="1"/>
        <pt x="281" y="17" on="0"/>
        <pt x="308" y="26" on="1"/>
        <pt x="317" y="25" on="0"/>
        <pt x="323" y="21" on="1"/>
        <pt x="328" y="18" on="0"/>
        <pt x="336" y="8" on="0"/>
        <pt x="335" y="0" on="1"/>
        <pt x="321" y="-7" on="0"/>
        <pt x="292" y="-14" on="0"/>
        <pt x="280" y="-16" on="1"/>
        <pt x="266" y="-18" on="0"/>
        <pt x="252" y="-18" on="1"/>
        <pt x="207" y="-18" on="0"/>
        <pt x="121" y="6" on="0"/>
        <pt x="52" y="65" on="0"/>
        <pt x="10" y="164" on="0"/>
        <pt x="10" y="239" on="1"/>
        <pt x="10" y="311" on="0"/>
        <pt x="61" y="439" on="0"/>
        <pt x="147" y="534" on="0"/>
        <pt x="256" y="589" on="0"/>
      </contour>
      <contour>
        <pt x="249" y="169" on="1"/>
        <pt x="266" y="169" on="0"/>
        <pt x="302" y="210" on="0"/>
        <pt x="331" y="270" on="0"/>
        <pt x="349" y="337" on="0"/>
        <pt x="349" y="362" on="1"/>
        <pt x="349" y="386" on="0"/>
        <pt x="333" y="411" on="0"/>
        <pt x="319" y="411" on="1"/>
        <pt x="301" y="411" on="0"/>
        <pt x="266" y="374" on="0"/>
        <pt x="238" y="319" on="0"/>
        <pt x="221" y="253" on="0"/>
        <pt x="221" y="224" on="1"/>
        <pt x="221" y="169" on="0"/>
      </contour>
    </TTGlyph>
    <TTGlyph name="atilde" xMin="19" yMin="-5" xMax="349" yMax="558">
      <component glyphName="a" x="0" y="0" flags="0x204"/>
      <component glyphName="tilde" x="-71" y="-122" flags="0x4"/>
    </TTGlyph>
    <TTGlyph name="b" xMin="41" yMin="-11" xMax="382" yMax="665">
      <contour>
        <pt x="45" y="623" on="1"/>
        <pt x="53" y="634" on="0"/>
        <pt x="72" y="650" on="0"/>
        <pt x="82" y="655" on="1"/>
        <pt x="93" y="660" on="0"/>
        <pt x="105" y="663" on="1"/>
        <pt x="114" y="665" on="0"/>
        <pt x="122" y="665" on="1"/>
        <pt x="129" y="665" on="0"/>
        <pt x="142" y="663" on="0"/>
        <pt x="146" y="659" on="1"/>
        <pt x="144" y="611" on="0"/>
        <pt x="141" y="544" on="0"/>
        <pt x="138" y="494" on="0"/>
        <pt x="136" y="455" on="0"/>
        <pt x="133" y="415" on="0"/>
        <pt x="129" y="368" on="0"/>
        <pt x="127" y="335" on="1"/>
        <pt x="125" y="314" on="0"/>
        <pt x="123" y="271" on="0"/>
        <pt x="122" y="249" on="1"/>
        <pt x="131" y="274" on="0"/>
        <pt x="158" y="328" on="0"/>
        <pt x="194" y="372" on="0"/>
        <pt x="240" y="401" on="0"/>
        <pt x="267" y="401" on="1"/>
        <pt x="305" y="401" on="0"/>
        <pt x="351" y="357" on="0"/>
        <pt x="375" y="294" on="0"/>
        <pt x="382" y="224" on="0"/>
        <pt x="382" y="197" on="1"/>
        <pt x="382" y="171" on="0"/>
        <pt x="369" y="100" on="0"/>
        <pt x="336" y="35" on="0"/>
        <pt x="282" y="-11" on="0"/>
        <pt x="241" y="-11" on="1"/>
        <pt x="212" y="-11" on="0"/>
        <pt x="172" y="13" on="0"/>
        <pt x="146" y="45" on="0"/>
        <pt x="135" y="77" on="0"/>
        <pt x="135" y="84" on="1"/>
        <pt x="135" y="91" on="0"/>
        <pt x="145" y="110" on="0"/>
        <pt x="159" y="127" on="0"/>
        <pt x="175" y="138" on="0"/>
        <pt x="180" y="137" on="1"/>
        <pt x="178" y="104" on="0"/>
        <pt x="191" y="69" on="0"/>
        <pt x="200" y="61" on="1"/>
        <pt x="211" y="51" on="0"/>
        <pt x="224" y="50" on="1"/>
        <pt x="243" y="50" on="0"/>
        <pt x="272" y="86" on="0"/>
        <pt x="292" y="138" on="0"/>
        <pt x="303" y="199" on="0"/>
        <pt x="303" y="223" on="1"/>
        <pt x="303" y="241" on="0"/>
        <pt x="298" y="282" on="0"/>
        <pt x="288" y="317" on="0"/>
        <pt x="270" y="339" on="0"/>
        <pt x="257" y="339" on="1"/>
        <pt x="235" y="339" on="0"/>
        <pt x="187" y="289" on="0"/>
        <pt x="147" y="208" on="0"/>
        <pt x="121" y="106" on="0"/>
        <pt x="122" y="53" on="1"/>
        <pt x="122" y="39" on="0"/>
        <pt x="125" y="18" on="0"/>
        <pt x="127" y="10" on="1"/>
        <pt x="103" y="0" on="0"/>
        <pt x="89" y="-2" on="1"/>
        <pt x="81" y="-4" on="0"/>
        <pt x="76" y="-3" on="1"/>
        <pt x="62" y="-3" on="0"/>
        <pt x="44" y="13" on="0"/>
        <pt x="42" y="39" on="1"/>
        <pt x="41" y="48" on="0"/>
        <pt x="41" y="129" on="0"/>
        <pt x="41" y="244" on="0"/>
        <pt x="42" y="378" on="0"/>
        <pt x="43" y="502" on="0"/>
        <pt x="44" y="601" on="0"/>
      </contour>
    </TTGlyph>
    <TTGlyph name="backslash" xMin="10" yMin="-94" xMax="316" yMax="677">
      <contour>
        <pt x="190" y="-18" on="1"/>
        <pt x="187" y="-8" on="0"/>
        <pt x="166" y="64" on="0"/>
        <pt x="138" y="163" on="0"/>
        <pt x="105" y="280" on="0"/>
        <pt x="90" y="337" on="1"/>
        <pt x="77" y="382" on="0"/>
        <pt x="64" y="431" on="1"/>
        <pt x="53" y="473" on="0"/>
        <pt x="24" y="579" on="0"/>
        <pt x="10" y="635" on="1"/>
        <pt x="18" y="651" on="0"/>
        <pt x="46" y="668" on="0"/>
        <pt x="60" y="672" on="1"/>
        <pt x="76" y="676" on="0"/>
        <pt x="93" y="677" on="1"/>
        <pt x="112" y="586" on="0"/>
        <pt x="146" y="439" on="0"/>
        <pt x="160" y="386" on="1"/>
        <pt x="176" y="324" on="0"/>
        <pt x="189" y="275" on="1"/>
        <pt x="204" y="214" on="0"/>
        <pt x="236" y="101" on="0"/>
        <pt x="268" y="10" on="0"/>
        <pt x="300" y="-54" on="0"/>
        <pt x="316" y="-67" on="1"/>
        <pt x="311" y="-73" on="0"/>
        <pt x="293" y="-85" on="0"/>
        <pt x="271" y="-93" on="0"/>
        <pt x="246" y="-94" on="0"/>
        <pt x="234" y="-89" on="1"/>
        <pt x="216" y="-80" on="0"/>
        <pt x="198" y="-41" on="0"/>
      </contour>
    </TTGlyph>
    <TTGlyph name="bar" xMin="41" yMin="-90" xMax="154" yMax="672">
      <contour>
        <pt x="143" y="672" on="1"/>
        <pt x="136" y="583" on="0"/>
        <pt x="129" y="438" on="0"/>
        <pt x="127" y="385" on="1"/>
        <pt x="125" y="323" on="0"/>
        <pt x="125" y="275" on="1"/>
        <pt x="122" y="215" on="0"/>
        <pt x="121" y="104" on="0"/>
        <pt x="127" y="14" on="0"/>
        <pt x="142" y="-50" on="0"/>
        <pt x="154" y="-62" on="1"/>
        <pt x="147" y="-68" on="0"/>
        <pt x="125" y="-81" on="0"/>
        <pt x="100" y="-89" on="0"/>
        <pt x="75" y="-90" on="0"/>
        <pt x="65" y="-84" on="1"/>
        <pt x="49" y="-76" on="0"/>
        <pt x="42" y="-38" on="0"/>
        <pt x="41" y="-15" on="1"/>
        <pt x="41" y="-5" on="0"/>
        <pt x="41" y="66" on="0"/>
        <pt x="41" y="165" on="0"/>
        <pt x="42" y="281" on="0"/>
        <pt x="43" y="337" on="1"/>
        <pt x="43" y="381" on="0"/>
        <pt x="44" y="429" on="1"/>
        <pt x="45" y="471" on="0"/>
        <pt x="46" y="576" on="0"/>
        <pt x="48" y="632" on="1"/>
        <pt x="60" y="647" on="0"/>
        <pt x="93" y="663" on="0"/>
        <pt x="108" y="667" on="1"/>
        <pt x="126" y="671" on="0"/>
      </contour>
    </TTGlyph>
    <TTGlyph name="braceleft" xMin="10" yMin="-119" xMax="216" yMax="709">
      <contour>
        <pt x="207" y="620" on="1"/>
        <pt x="190" y="618" on="0"/>
        <pt x="165" y="593" on="0"/>
        <pt x="157" y="578" on="1"/>
        <pt x="147" y="560" on="0"/>
        <pt x="140" y="539" on="1"/>
        <pt x="132" y="510" on="0"/>
        <pt x="137" y="455" on="0"/>
        <pt x="145" y="404" on="0"/>
        <pt x="149" y="355" on="0"/>
        <pt x="141" y="332" on="1"/>
        <pt x="137" y="319" on="0"/>
        <pt x="120" y="303" on="0"/>
        <pt x="112" y="298" on="1"/>
        <pt x="125" y="284" on="0"/>
        <pt x="158" y="229" on="0"/>
        <pt x="163" y="185" on="1"/>
        <pt x="166" y="161" on="0"/>
        <pt x="157" y="122" on="0"/>
        <pt x="145" y="88" on="0"/>
        <pt x="137" y="53" on="0"/>
        <pt x="141" y="34" on="1"/>
        <pt x="144" y="20" on="0"/>
        <pt x="150" y="9" on="1"/>
        <pt x="155" y="-1" on="0"/>
        <pt x="171" y="-22" on="0"/>
        <pt x="184" y="-27" on="1"/>
        <pt x="177" y="-119" on="1"/>
        <pt x="132" y="-96" on="0"/>
        <pt x="83" y="-46" on="0"/>
        <pt x="70" y="-26" on="1"/>
        <pt x="55" y="-2" on="0"/>
        <pt x="50" y="19" on="1"/>
        <pt x="46" y="50" on="0"/>
        <pt x="57" y="102" on="0"/>
        <pt x="71" y="147" on="0"/>
        <pt x="79" y="189" on="0"/>
        <pt x="72" y="210" on="1"/>
        <pt x="67" y="222" on="0"/>
        <pt x="59" y="233" on="1"/>
        <pt x="52" y="242" on="0"/>
        <pt x="30" y="261" on="0"/>
        <pt x="14" y="268" on="1"/>
        <pt x="16" y="274" on="0"/>
        <pt x="14" y="286" on="0"/>
        <pt x="13" y="291" on="1"/>
        <pt x="11" y="297" on="0"/>
        <pt x="10" y="303" on="1"/>
        <pt x="30" y="310" on="0"/>
        <pt x="52" y="335" on="0"/>
        <pt x="57" y="349" on="1"/>
        <pt x="63" y="364" on="0"/>
        <pt x="65" y="382" on="1"/>
        <pt x="65" y="404" on="0"/>
        <pt x="55" y="475" on="0"/>
        <pt x="56" y="555" on="0"/>
        <pt x="80" y="637" on="0"/>
        <pt x="114" y="671" on="1"/>
        <pt x="126" y="681" on="0"/>
        <pt x="142" y="690" on="1"/>
        <pt x="156" y="697" on="0"/>
        <pt x="193" y="709" on="0"/>
        <pt x="216" y="707" on="1"/>
        <pt x="207" y="620" on="1"/>
      </contour>
    </TTGlyph>
    <TTGlyph name="braceright" xMin="10" yMin="-119" xMax="216" yMax="709">
      <contour>
        <pt x="18" y="620" on="1"/>
        <pt x="10" y="707" on="1"/>
        <pt x="33" y="709" on="0"/>
        <pt x="71" y="697" on="0"/>
        <pt x="85" y="690" on="1"/>
        <pt x="101" y="681" on="0"/>
        <pt x="113" y="671" on="1"/>
        <pt x="147" y="637" on="0"/>
        <pt x="171" y="555" on="0"/>
        <pt x="172" y="475" on="0"/>
        <pt x="162" y="404" on="0"/>
        <pt x="162" y="382" on="1"/>
        <pt x="163" y="364" on="0"/>
        <pt x="169" y="349" on="1"/>
        <pt x="174" y="335" on="0"/>
        <pt x="196" y="310" on="0"/>
        <pt x="216" y="303" on="1"/>
        <pt x="214" y="297" on="0"/>
        <pt x="212" y="291" on="1"/>
        <pt x="208" y="278" on="0"/>
        <pt x="212" y="268" on="1"/>
        <pt x="195" y="261" on="0"/>
        <pt x="174" y="242" on="0"/>
        <pt x="167" y="233" on="1"/>
        <pt x="159" y="222" on="0"/>
        <pt x="155" y="210" on="1"/>
        <pt x="147" y="189" on="0"/>
        <pt x="155" y="147" on="0"/>
        <pt x="169" y="102" on="0"/>
        <pt x="180" y="50" on="0"/>
        <pt x="176" y="19" on="1"/>
        <pt x="171" y="-2" on="0"/>
        <pt x="156" y="-26" on="1"/>
        <pt x="143" y="-46" on="0"/>
        <pt x="93" y="-96" on="0"/>
        <pt x="48" y="-119" on="1"/>
        <pt x="41" y="-27" on="1"/>
        <pt x="54" y="-22" on="0"/>
        <pt x="71" y="-1" on="0"/>
        <pt x="76" y="9" on="1"/>
        <pt x="82" y="20" on="0"/>
        <pt x="85" y="34" on="1"/>
        <pt x="88" y="53" on="0"/>
        <pt x="80" y="88" on="0"/>
        <pt x="69" y="122" on="0"/>
        <pt x="60" y="161" on="0"/>
        <pt x="63" y="185" on="1"/>
        <pt x="68" y="229" on="0"/>
        <pt x="101" y="284" on="0"/>
        <pt x="115" y="298" on="1"/>
        <pt x="106" y="303" on="0"/>
        <pt x="89" y="319" on="0"/>
        <pt x="85" y="332" on="1"/>
        <pt x="77" y="355" on="0"/>
        <pt x="81" y="404" on="0"/>
        <pt x="90" y="455" on="0"/>
        <pt x="94" y="510" on="0"/>
        <pt x="86" y="539" on="1"/>
        <pt x="80" y="560" on="0"/>
        <pt x="70" y="578" on="1"/>
        <pt x="62" y="593" on="0"/>
        <pt x="35" y="618" on="0"/>
      </contour>
    </TTGlyph>
    <TTGlyph name="bracketleft" xMin="41" yMin="-116" xMax="185" yMax="703">
      <contour>
        <pt x="120" y="76" on="1"/>
        <pt x="120" y="41" on="0"/>
        <pt x="135" y="6" on="0"/>
        <pt x="156" y="-8" on="0"/>
        <pt x="178" y="-8" on="0"/>
        <pt x="185" y="-8" on="1"/>
        <pt x="183" y="-116" on="1"/>
        <pt x="92" y="-115" on="1"/>
        <pt x="57" y="-114" on="0"/>
        <pt x="41" y="-75" on="0"/>
        <pt x="41" y="-30" on="1"/>
        <pt x="41" y="-7" on="0"/>
        <pt x="41" y="71" on="0"/>
        <pt x="42" y="164" on="0"/>
        <pt x="43" y="265" on="0"/>
        <pt x="44" y="313" on="1"/>
        <pt x="45" y="361" on="0"/>
        <pt x="45" y="477" on="0"/>
        <pt x="45" y="581" on="0"/>
        <pt x="44" y="658" on="0"/>
        <pt x="44" y="668" on="1"/>
        <pt x="44" y="687" on="0"/>
        <pt x="55" y="700" on="0"/>
        <pt x="66" y="700" on="1"/>
        <pt x="172" y="703" on="1"/>
        <pt x="175" y="683" on="0"/>
        <pt x="177" y="665" on="1"/>
        <pt x="179" y="649" on="0"/>
        <pt x="178" y="614" on="0"/>
        <pt x="176" y="600" on="1"/>
        <pt x="153" y="598" on="0"/>
        <pt x="124" y="573" on="0"/>
        <pt x="124" y="553" on="1"/>
        <pt x="120" y="76" on="1"/>
      </contour>
    </TTGlyph>
    <TTGlyph name="bracketright" xMin="31" yMin="-116" xMax="175" yMax="703">
      <contour>
        <pt x="96" y="76" on="1"/>
        <pt x="92" y="553" on="1"/>
        <pt x="91" y="573" on="0"/>
        <pt x="62" y="598" on="0"/>
        <pt x="39" y="600" on="1"/>
        <pt x="36" y="614" on="0"/>
        <pt x="36" y="649" on="0"/>
        <pt x="38" y="665" on="1"/>
        <pt x="40" y="683" on="0"/>
        <pt x="43" y="703" on="1"/>
        <pt x="151" y="700" on="1"/>
        <pt x="161" y="700" on="0"/>
        <pt x="172" y="687" on="0"/>
        <pt x="172" y="668" on="1"/>
        <pt x="172" y="658" on="0"/>
        <pt x="171" y="581" on="0"/>
        <pt x="171" y="477" on="0"/>
        <pt x="171" y="361" on="0"/>
        <pt x="172" y="313" on="1"/>
        <pt x="173" y="265" on="0"/>
        <pt x="174" y="164" on="0"/>
        <pt x="175" y="71" on="0"/>
        <pt x="175" y="-7" on="0"/>
        <pt x="175" y="-30" on="1"/>
        <pt x="175" y="-75" on="0"/>
        <pt x="158" y="-114" on="0"/>
        <pt x="124" y="-115" on="1"/>
        <pt x="32" y="-116" on="1"/>
        <pt x="31" y="-8" on="1"/>
        <pt x="38" y="-8" on="0"/>
        <pt x="60" y="-8" on="0"/>
        <pt x="81" y="6" on="0"/>
        <pt x="96" y="41" on="0"/>
      </contour>
    </TTGlyph>
    <TTGlyph name="breve" xMin="153" yMin="550" xMax="404" yMax="678">
      <contour>
        <pt x="336" y="671" on="1"/>
        <pt x="362" y="676" on="0"/>
        <pt x="382" y="674" on="1"/>
        <pt x="393" y="673" on="0"/>
        <pt x="402" y="672" on="1"/>
        <pt x="404" y="670" on="0"/>
        <pt x="396" y="633" on="0"/>
        <pt x="369" y="589" on="0"/>
        <pt x="321" y="552" on="0"/>
        <pt x="285" y="551" on="1"/>
        <pt x="248" y="550" on="0"/>
        <pt x="198" y="578" on="0"/>
        <pt x="167" y="618" on="0"/>
        <pt x="153" y="662" on="0"/>
        <pt x="153" y="678" on="1"/>
        <pt x="221" y="678" on="1"/>
        <pt x="226" y="653" on="0"/>
        <pt x="245" y="627" on="0"/>
        <pt x="256" y="621" on="1"/>
        <pt x="268" y="614" on="0"/>
        <pt x="282" y="613" on="1"/>
        <pt x="297" y="613" on="0"/>
        <pt x="318" y="628" on="0"/>
        <pt x="331" y="647" on="0"/>
        <pt x="336" y="666" on="0"/>
      </contour>
    </TTGlyph>
    <TTGlyph name="brokenbar" xMin="41" yMin="-92" xMax="150" yMax="672">
      <contour>
        <pt x="124" y="223" on="1"/>
        <pt x="124" y="196" on="0"/>
        <pt x="120" y="135" on="0"/>
        <pt x="127" y="84" on="1"/>
        <pt x="128" y="56" on="0"/>
        <pt x="132" y="27" on="1"/>
        <pt x="134" y="2" on="0"/>
        <pt x="143" y="-58" on="0"/>
        <pt x="150" y="-86" on="1"/>
        <pt x="133" y="-92" on="0"/>
        <pt x="106" y="-91" on="0"/>
        <pt x="96" y="-88" on="1"/>
        <pt x="85" y="-84" on="0"/>
        <pt x="75" y="-78" on="1"/>
        <pt x="66" y="-71" on="0"/>
        <pt x="55" y="-42" on="0"/>
        <pt x="48" y="-6" on="0"/>
        <pt x="45" y="32" on="0"/>
        <pt x="45" y="48" on="1"/>
        <pt x="44" y="80" on="0"/>
        <pt x="43" y="116" on="1"/>
        <pt x="42" y="147" on="0"/>
        <pt x="42" y="224" on="0"/>
        <pt x="42" y="263" on="1"/>
        <pt x="56" y="263" on="0"/>
        <pt x="85" y="258" on="0"/>
        <pt x="109" y="248" on="0"/>
        <pt x="124" y="233" on="0"/>
      </contour>
      <contour>
        <pt x="83" y="348" on="1"/>
        <pt x="66" y="353" on="0"/>
        <pt x="41" y="375" on="0"/>
        <pt x="41" y="384" on="1"/>
        <pt x="41" y="424" on="1"/>
        <pt x="41" y="450" on="0"/>
        <pt x="42" y="547" on="0"/>
        <pt x="44" y="632" on="1"/>
        <pt x="57" y="647" on="0"/>
        <pt x="89" y="663" on="0"/>
        <pt x="104" y="667" on="1"/>
        <pt x="121" y="671" on="0"/>
        <pt x="139" y="672" on="1"/>
        <pt x="134" y="606" on="0"/>
        <pt x="127" y="489" on="0"/>
        <pt x="125" y="444" on="1"/>
        <pt x="122" y="391" on="0"/>
        <pt x="122" y="346" on="1"/>
        <pt x="108" y="343" on="0"/>
        <pt x="95" y="345" on="1"/>
        <pt x="89" y="346" on="0"/>
      </contour>
    </TTGlyph>
    <TTGlyph name="bullet" xMin="17" yMin="208" xMax="175" yMax="387">
      <contour>
        <pt x="123" y="385" on="1"/>
        <pt x="127" y="385" on="0"/>
        <pt x="145" y="374" on="0"/>
        <pt x="163" y="351" on="0"/>
        <pt x="175" y="314" on="0"/>
        <pt x="173" y="289" on="1"/>
        <pt x="170" y="254" on="0"/>
        <pt x="125" y="210" on="0"/>
        <pt x="90" y="209" on="1"/>
        <pt x="59" y="208" on="0"/>
        <pt x="17" y="260" on="0"/>
        <pt x="22" y="299" on="1"/>
        <pt x="24" y="321" on="0"/>
        <pt x="41" y="353" on="0"/>
        <pt x="60" y="374" on="0"/>
        <pt x="77" y="384" on="0"/>
        <pt x="79" y="385" on="1"/>
        <pt x="83" y="387" on="0"/>
        <pt x="89" y="385" on="0"/>
        <pt x="92" y="384" on="1"/>
        <pt x="93" y="384" on="0"/>
        <pt x="94" y="382" on="1"/>
        <pt x="95" y="380" on="0"/>
        <pt x="97" y="376" on="0"/>
        <pt x="97" y="371" on="1"/>
        <pt x="99" y="376" on="0"/>
        <pt x="108" y="381" on="0"/>
        <pt x="113" y="383" on="1"/>
        <pt x="118" y="385" on="0"/>
      </contour>
    </TTGlyph>
    <TTGlyph name="c" xMin="12" yMin="-9" xMax="306" yMax="413">
      <contour>
        <pt x="306" y="126" on="1"/>
        <pt x="306" y="115" on="0"/>
        <pt x="291" y="70" on="0"/>
        <pt x="257" y="25" on="0"/>
        <pt x="204" y="-9" on="0"/>
        <pt x="166" y="-9" on="1"/>
        <pt x="112" y="-9" on="0"/>
        <pt x="39" y="50" on="0"/>
        <pt x="24" y="105" on="1"/>
        <pt x="12" y="151" on="0"/>
        <pt x="23" y="256" on="0"/>
        <pt x="69" y="346" on="0"/>
        <pt x="151" y="409" on="0"/>
        <pt x="210" y="412" on="1"/>
        <pt x="240" y="413" on="0"/>
        <pt x="280" y="389" on="0"/>
        <pt x="302" y="351" on="0"/>
        <pt x="306" y="306" on="0"/>
        <pt x="293" y="266" on="0"/>
        <pt x="266" y="239" on="0"/>
        <pt x="245" y="238" on="1"/>
        <pt x="224" y="236" on="0"/>
        <pt x="197" y="251" on="0"/>
        <pt x="182" y="273" on="0"/>
        <pt x="177" y="297" on="0"/>
        <pt x="179" y="306" on="1"/>
        <pt x="182" y="319" on="0"/>
        <pt x="189" y="330" on="1"/>
        <pt x="195" y="340" on="0"/>
        <pt x="218" y="360" on="0"/>
        <pt x="237" y="366" on="1"/>
        <pt x="234" y="368" on="0"/>
        <pt x="228" y="368" on="0"/>
        <pt x="225" y="369" on="1"/>
        <pt x="221" y="369" on="0"/>
        <pt x="219" y="370" on="1"/>
        <pt x="203" y="370" on="0"/>
        <pt x="162" y="348" on="0"/>
        <pt x="125" y="300" on="0"/>
        <pt x="100" y="225" on="0"/>
        <pt x="100" y="172" on="1"/>
        <pt x="100" y="149" on="0"/>
        <pt x="110" y="104" on="0"/>
        <pt x="131" y="69" on="0"/>
        <pt x="162" y="48" on="0"/>
        <pt x="183" y="48" on="1"/>
        <pt x="207" y="48" on="0"/>
        <pt x="244" y="69" on="0"/>
        <pt x="270" y="97" on="0"/>
        <pt x="285" y="125" on="0"/>
        <pt x="288" y="132" on="1"/>
        <pt x="291" y="138" on="0"/>
        <pt x="306" y="138" on="0"/>
      </contour>
    </TTGlyph>
    <TTGlyph name="caron" xMin="137" yMin="544" xMax="417" yMax="685">
      <contour>
        <pt x="256" y="553" on="1"/>
        <pt x="241" y="566" on="0"/>
        <pt x="223" y="584" on="1"/>
        <pt x="191" y="615" on="0"/>
        <pt x="139" y="668" on="1"/>
        <pt x="137" y="668" on="0"/>
        <pt x="147" y="672" on="1"/>
        <pt x="151" y="674" on="0"/>
        <pt x="158" y="675" on="1"/>
        <pt x="165" y="677" on="0"/>
        <pt x="174" y="679" on="1"/>
        <pt x="182" y="681" on="0"/>
        <pt x="199" y="682" on="0"/>
        <pt x="210" y="683" on="1"/>
        <pt x="227" y="665" on="0"/>
        <pt x="254" y="637" on="0"/>
        <pt x="264" y="626" on="1"/>
        <pt x="275" y="614" on="0"/>
        <pt x="285" y="605" on="1"/>
        <pt x="293" y="616" on="0"/>
        <pt x="303" y="628" on="1"/>
        <pt x="311" y="639" on="0"/>
        <pt x="333" y="668" on="0"/>
        <pt x="346" y="685" on="1"/>
        <pt x="355" y="685" on="0"/>
        <pt x="372" y="684" on="0"/>
        <pt x="378" y="683" on="1"/>
        <pt x="385" y="682" on="0"/>
        <pt x="391" y="682" on="1"/>
        <pt x="397" y="681" on="0"/>
        <pt x="402" y="679" on="1"/>
        <pt x="413" y="675" on="0"/>
        <pt x="417" y="669" on="1"/>
        <pt x="384" y="632" on="0"/>
        <pt x="343" y="586" on="0"/>
        <pt x="331" y="572" on="1"/>
        <pt x="317" y="556" on="0"/>
        <pt x="310" y="548" on="1"/>
        <pt x="308" y="545" on="0"/>
        <pt x="293" y="544" on="0"/>
        <pt x="275" y="546" on="0"/>
        <pt x="259" y="550" on="0"/>
      </contour>
    </TTGlyph>
    <TTGlyph name="ccedilla" xMin="12" yMin="-203" xMax="306" yMax="413">
      <contour>
        <pt x="196" y="-56" on="1"/>
        <pt x="205" y="-56" on="0"/>
        <pt x="230" y="-63" on="0"/>
        <pt x="253" y="-80" on="0"/>
        <pt x="268" y="-109" on="0"/>
        <pt x="267" y="-132" on="1"/>
        <pt x="266" y="-150" on="0"/>
        <pt x="248" y="-177" on="0"/>
        <pt x="221" y="-195" on="0"/>
        <pt x="187" y="-203" on="0"/>
        <pt x="170" y="-203" on="1"/>
        <pt x="158" y="-203" on="0"/>
        <pt x="147" y="-201" on="1"/>
        <pt x="137" y="-199" on="0"/>
        <pt x="114" y="-192" on="0"/>
        <pt x="104" y="-185" on="1"/>
        <pt x="105" y="-147" on="1"/>
        <pt x="118" y="-152" on="0"/>
        <pt x="155" y="-154" on="0"/>
        <pt x="188" y="-148" on="0"/>
        <pt x="211" y="-134" on="0"/>
        <pt x="212" y="-123" on="1"/>
        <pt x="212" y="-112" on="0"/>
        <pt x="193" y="-102" on="0"/>
        <pt x="168" y="-99" on="0"/>
        <pt x="142" y="-101" on="0"/>
        <pt x="135" y="-102" on="1"/>
        <pt x="115" y="-106" on="0"/>
        <pt x="114" y="-83" on="1"/>
        <pt x="114" y="-76" on="0"/>
        <pt x="113" y="-65" on="1"/>
        <pt x="112" y="-55" on="0"/>
        <pt x="111" y="-23" on="0"/>
        <pt x="110" y="1" on="1"/>
        <pt x="47" y="25" on="0"/>
        <pt x="24" y="105" on="1"/>
        <pt x="12" y="151" on="0"/>
        <pt x="23" y="256" on="0"/>
        <pt x="69" y="346" on="0"/>
        <pt x="151" y="409" on="0"/>
        <pt x="210" y="412" on="1"/>
        <pt x="240" y="413" on="0"/>
        <pt x="280" y="389" on="0"/>
        <pt x="302" y="351" on="0"/>
        <pt x="306" y="306" on="0"/>
        <pt x="293" y="266" on="0"/>
        <pt x="266" y="239" on="0"/>
        <pt x="245" y="238" on="1"/>
        <pt x="224" y="236" on="0"/>
        <pt x="197" y="251" on="0"/>
        <pt x="182" y="273" on="0"/>
        <pt x="177" y="297" on="0"/>
        <pt x="179" y="306" on="1"/>
        <pt x="182" y="319" on="0"/>
        <pt x="189" y="330" on="1"/>
        <pt x="195" y="340" on="0"/>
        <pt x="218" y="360" on="0"/>
        <pt x="237" y="366" on="1"/>
        <pt x="234" y="368" on="0"/>
        <pt x="228" y="368" on="0"/>
        <pt x="225" y="369" on="1"/>
        <pt x="221" y="369" on="0"/>
        <pt x="219" y="370" on="1"/>
        <pt x="203" y="370" on="0"/>
        <pt x="162" y="348" on="0"/>
        <pt x="125" y="300" on="0"/>
        <pt x="100" y="225" on="0"/>
        <pt x="100" y="172" on="1"/>
        <pt x="100" y="149" on="0"/>
        <pt x="110" y="104" on="0"/>
        <pt x="131" y="69" on="0"/>
        <pt x="162" y="48" on="0"/>
        <pt x="183" y="48" on="1"/>
        <pt x="207" y="48" on="0"/>
        <pt x="244" y="69" on="0"/>
        <pt x="270" y="97" on="0"/>
        <pt x="285" y="125" on="0"/>
        <pt x="288" y="132" on="1"/>
        <pt x="291" y="138" on="0"/>
        <pt x="306" y="138" on="0"/>
        <pt x="306" y="126" on="1"/>
        <pt x="306" y="115" on="0"/>
        <pt x="292" y="73" on="0"/>
        <pt x="261" y="30" on="0"/>
        <pt x="212" y="-5" on="0"/>
        <pt x="178" y="-8" on="1"/>
        <pt x="178" y="-17" on="0"/>
        <pt x="177" y="-35" on="0"/>
        <pt x="176" y="-42" on="1"/>
        <pt x="175" y="-50" on="0"/>
        <pt x="173" y="-57" on="1"/>
        <pt x="178" y="-56" on="0"/>
        <pt x="188" y="-56" on="0"/>
      </contour>
    </TTGlyph>
    <TTGlyph name="cedilla" xMin="197" yMin="-141" xMax="360" yMax="79">
      <contour>
        <pt x="288" y="5" on="1"/>
        <pt x="297" y="5" on="0"/>
        <pt x="322" y="-2" on="0"/>
        <pt x="345" y="-18" on="0"/>
        <pt x="360" y="-48" on="0"/>
        <pt x="359" y="-71" on="1"/>
        <pt x="358" y="-89" on="0"/>
        <pt x="340" y="-116" on="0"/>
        <pt x="313" y="-133" on="0"/>
        <pt x="279" y="-141" on="0"/>
        <pt x="262" y="-141" on="1"/>
        <pt x="250" y="-141" on="0"/>
        <pt x="239" y="-139" on="1"/>
        <pt x="229" y="-137" on="0"/>
        <pt x="207" y="-131" on="0"/>
        <pt x="197" y="-124" on="1"/>
        <pt x="198" y="-86" on="1"/>
        <pt x="211" y="-90" on="0"/>
        <pt x="247" y="-92" on="0"/>
        <pt x="280" y="-86" on="0"/>
        <pt x="303" y="-72" on="0"/>
        <pt x="304" y="-61" on="1"/>
        <pt x="304" y="-50" on="0"/>
        <pt x="285" y="-40" on="0"/>
        <pt x="260" y="-38" on="0"/>
        <pt x="234" y="-40" on="0"/>
        <pt x="227" y="-41" on="1"/>
        <pt x="207" y="-45" on="0"/>
        <pt x="206" y="-22" on="1"/>
        <pt x="206" y="-15" on="0"/>
        <pt x="205" y="-3" on="1"/>
        <pt x="204" y="8" on="0"/>
        <pt x="203" y="43" on="0"/>
        <pt x="201" y="69" on="1"/>
        <pt x="205" y="73" on="0"/>
        <pt x="218" y="77" on="0"/>
        <pt x="223" y="78" on="1"/>
        <pt x="229" y="79" on="0"/>
        <pt x="236" y="79" on="1"/>
        <pt x="243" y="79" on="0"/>
        <pt x="249" y="78" on="1"/>
        <pt x="254" y="77" on="0"/>
        <pt x="265" y="74" on="0"/>
        <pt x="268" y="72" on="1"/>
        <pt x="270" y="61" on="0"/>
        <pt x="271" y="39" on="0"/>
        <pt x="269" y="28" on="1"/>
        <pt x="267" y="16" on="0"/>
        <pt x="265" y="4" on="1"/>
        <pt x="270" y="5" on="0"/>
        <pt x="281" y="5" on="0"/>
      </contour>
    </TTGlyph>
    <TTGlyph name="cent" xMin="15" yMin="-84" xMax="408" yMax="678">
      <contour>
        <pt x="387" y="206" on="1"/>
        <pt x="395" y="200" on="0"/>
        <pt x="403" y="187" on="0"/>
        <pt x="405" y="182" on="1"/>
        <pt x="408" y="176" on="0"/>
        <pt x="408" y="170" on="1"/>
        <pt x="408" y="163" on="0"/>
        <pt x="387" y="119" on="0"/>
        <pt x="346" y="70" on="0"/>
        <pt x="289" y="26" on="0"/>
        <pt x="253" y="18" on="1"/>
        <pt x="255" y="-66" on="1"/>
        <pt x="254" y="-75" on="0"/>
        <pt x="233" y="-84" on="0"/>
        <pt x="209" y="-83" on="0"/>
        <pt x="187" y="-72" on="0"/>
        <pt x="184" y="-61" on="1"/>
        <pt x="182" y="-54" on="0"/>
        <pt x="178" y="-7" on="0"/>
        <pt x="175" y="19" on="1"/>
        <pt x="100" y="36" on="0"/>
        <pt x="15" y="163" on="0"/>
        <pt x="15" y="254" on="1"/>
        <pt x="15" y="312" on="0"/>
        <pt x="43" y="412" on="0"/>
        <pt x="91" y="492" on="0"/>
        <pt x="156" y="550" on="0"/>
        <pt x="193" y="566" on="1"/>
        <pt x="189" y="613" on="0"/>
        <pt x="201" y="655" on="0"/>
        <pt x="215" y="664" on="1"/>
        <pt x="220" y="667" on="0"/>
        <pt x="229" y="670" on="1"/>
        <pt x="237" y="672" on="0"/>
        <pt x="259" y="677" on="0"/>
        <pt x="276" y="678" on="1"/>
        <pt x="274" y="657" on="0"/>
        <pt x="270" y="610" on="0"/>
        <pt x="272" y="585" on="1"/>
        <pt x="278" y="585" on="1"/>
        <pt x="317" y="585" on="0"/>
        <pt x="366" y="554" on="0"/>
        <pt x="391" y="507" on="0"/>
        <pt x="399" y="450" on="0"/>
        <pt x="396" y="399" on="0"/>
        <pt x="386" y="359" on="0"/>
        <pt x="382" y="353" on="1"/>
        <pt x="367" y="333" on="0"/>
        <pt x="310" y="311" on="0"/>
        <pt x="274" y="317" on="1"/>
        <pt x="287" y="330" on="0"/>
        <pt x="303" y="365" on="0"/>
        <pt x="312" y="401" on="0"/>
        <pt x="316" y="434" on="0"/>
        <pt x="316" y="446" on="1"/>
        <pt x="316" y="458" on="0"/>
        <pt x="313" y="488" on="0"/>
        <pt x="303" y="514" on="0"/>
        <pt x="286" y="532" on="0"/>
        <pt x="271" y="532" on="1"/>
        <pt x="238" y="532" on="0"/>
        <pt x="181" y="483" on="0"/>
        <pt x="139" y="407" on="0"/>
        <pt x="115" y="313" on="0"/>
        <pt x="115" y="267" on="1"/>
        <pt x="115" y="252" on="0"/>
        <pt x="120" y="189" on="0"/>
        <pt x="142" y="126" on="0"/>
        <pt x="190" y="78" on="0"/>
        <pt x="232" y="78" on="1"/>
        <pt x="261" y="80" on="0"/>
        <pt x="289" y="94" on="1"/>
        <pt x="313" y="106" on="0"/>
        <pt x="366" y="158" on="0"/>
      </contour>
    </TTGlyph>
    <TTGlyph name="circumflex" xMin="138" yMin="548" xMax="417" yMax="688">
      <contour>
        <pt x="256" y="680" on="1"/>
        <pt x="259" y="683" on="0"/>
        <pt x="275" y="687" on="0"/>
        <pt x="293" y="688" on="0"/>
        <pt x="308" y="687" on="0"/>
        <pt x="310" y="685" on="1"/>
        <pt x="317" y="676" on="0"/>
        <pt x="331" y="660" on="1"/>
        <pt x="343" y="646" on="0"/>
        <pt x="384" y="599" on="0"/>
        <pt x="417" y="563" on="1"/>
        <pt x="413" y="557" on="0"/>
        <pt x="402" y="553" on="1"/>
        <pt x="397" y="551" on="0"/>
        <pt x="391" y="550" on="1"/>
        <pt x="385" y="549" on="0"/>
        <pt x="378" y="549" on="1"/>
        <pt x="372" y="548" on="0"/>
        <pt x="355" y="548" on="0"/>
        <pt x="346" y="548" on="1"/>
        <pt x="333" y="565" on="0"/>
        <pt x="311" y="594" on="0"/>
        <pt x="303" y="605" on="1"/>
        <pt x="293" y="617" on="0"/>
        <pt x="285" y="627" on="1"/>
        <pt x="275" y="618" on="0"/>
        <pt x="264" y="606" on="1"/>
        <pt x="254" y="595" on="0"/>
        <pt x="227" y="566" on="0"/>
        <pt x="210" y="549" on="1"/>
        <pt x="199" y="549" on="0"/>
        <pt x="182" y="552" on="0"/>
        <pt x="174" y="554" on="1"/>
        <pt x="165" y="556" on="0"/>
        <pt x="158" y="558" on="1"/>
        <pt x="151" y="559" on="0"/>
        <pt x="147" y="561" on="1"/>
        <pt x="138" y="565" on="0"/>
        <pt x="139" y="565" on="1"/>
        <pt x="191" y="618" on="0"/>
        <pt x="223" y="649" on="1"/>
        <pt x="241" y="667" on="0"/>
      </contour>
    </TTGlyph>
    <TTGlyph name="colon" xMin="10" yMin="-14" xMax="147" yMax="296">
      <contour>
        <pt x="102" y="296" on="1"/>
        <pt x="117" y="296" on="0"/>
        <pt x="147" y="274" on="0"/>
        <pt x="147" y="249" on="1"/>
        <pt x="147" y="225" on="0"/>
        <pt x="102" y="183" on="0"/>
        <pt x="62" y="183" on="1"/>
        <pt x="47" y="183" on="0"/>
        <pt x="29" y="191" on="0"/>
        <pt x="18" y="203" on="0"/>
        <pt x="14" y="217" on="0"/>
        <pt x="14" y="223" on="1"/>
        <pt x="14" y="235" on="0"/>
        <pt x="28" y="261" on="0"/>
        <pt x="52" y="282" on="0"/>
        <pt x="84" y="296" on="0"/>
      </contour>
      <contour>
        <pt x="93" y="104" on="1"/>
        <pt x="112" y="104" on="0"/>
        <pt x="137" y="82" on="0"/>
        <pt x="137" y="62" on="1"/>
        <pt x="137" y="50" on="0"/>
        <pt x="128" y="24" on="0"/>
        <pt x="107" y="1" on="0"/>
        <pt x="74" y="-14" on="0"/>
        <pt x="51" y="-14" on="1"/>
        <pt x="32" y="-14" on="0"/>
        <pt x="10" y="10" on="0"/>
        <pt x="10" y="28" on="1"/>
        <pt x="10" y="58" on="0"/>
        <pt x="58" y="104" on="0"/>
      </contour>
    </TTGlyph>
    <TTGlyph name="comma" xMin="5" yMin="-92" xMax="141" yMax="96">
      <contour>
        <pt x="80" y="96" on="1"/>
        <pt x="96" y="96" on="0"/>
        <pt x="119" y="83" on="0"/>
        <pt x="134" y="64" on="0"/>
        <pt x="141" y="41" on="0"/>
        <pt x="141" y="31" on="1"/>
        <pt x="141" y="6" on="0"/>
        <pt x="120" y="-38" on="0"/>
        <pt x="91" y="-72" on="0"/>
        <pt x="63" y="-92" on="0"/>
        <pt x="57" y="-92" on="1"/>
        <pt x="54" y="-92" on="0"/>
        <pt x="51" y="-89" on="1"/>
        <pt x="49" y="-87" on="0"/>
        <pt x="44" y="-78" on="0"/>
        <pt x="42" y="-70" on="1"/>
        <pt x="52" y="-57" on="0"/>
        <pt x="75" y="-27" on="0"/>
        <pt x="77" y="-5" on="1"/>
        <pt x="71" y="-7" on="0"/>
        <pt x="56" y="-9" on="0"/>
        <pt x="48" y="-9" on="1"/>
        <pt x="28" y="-9" on="0"/>
        <pt x="5" y="11" on="0"/>
        <pt x="5" y="25" on="1"/>
        <pt x="5" y="35" on="0"/>
        <pt x="15" y="60" on="0"/>
        <pt x="34" y="81" on="0"/>
        <pt x="62" y="96" on="0"/>
      </contour>
    </TTGlyph>
    <TTGlyph name="copyright" xMin="8" yMin="119" xMax="471" yMax="668">
      <contour>
        <pt x="273" y="660" on="1"/>
        <pt x="308" y="662" on="0"/>
        <pt x="376" y="626" on="0"/>
        <pt x="432" y="560" on="0"/>
        <pt x="467" y="468" on="0"/>
        <pt x="469" y="414" on="1"/>
        <pt x="471" y="352" on="0"/>
        <pt x="442" y="247" on="0"/>
        <pt x="384" y="170" on="0"/>
        <pt x="300" y="125" on="0"/>
        <pt x="247" y="122" on="1"/>
        <pt x="194" y="119" on="0"/>
        <pt x="108" y="155" on="0"/>
        <pt x="47" y="224" on="0"/>
        <pt x="12" y="322" on="0"/>
        <pt x="10" y="380" on="1"/>
        <pt x="8" y="447" on="0"/>
        <pt x="51" y="551" on="0"/>
        <pt x="114" y="623" on="0"/>
        <pt x="184" y="664" on="0"/>
        <pt x="209" y="668" on="1"/>
        <pt x="217" y="665" on="0"/>
        <pt x="227" y="657" on="0"/>
        <pt x="231" y="653" on="1"/>
        <pt x="239" y="655" on="0"/>
        <pt x="259" y="659" on="0"/>
      </contour>
      <contour>
        <pt x="246" y="171" on="1"/>
        <pt x="280" y="172" on="0"/>
        <pt x="341" y="204" on="0"/>
        <pt x="386" y="264" on="0"/>
        <pt x="411" y="354" on="0"/>
        <pt x="409" y="415" on="1"/>
        <pt x="407" y="460" on="0"/>
        <pt x="379" y="535" on="0"/>
        <pt x="339" y="588" on="0"/>
        <pt x="295" y="616" on="0"/>
        <pt x="278" y="615" on="1"/>
        <pt x="265" y="613" on="0"/>
        <pt x="252" y="607" on="1"/>
        <pt x="241" y="602" on="0"/>
        <pt x="216" y="579" on="0"/>
        <pt x="206" y="559" on="1"/>
        <pt x="192" y="570" on="0"/>
        <pt x="189" y="597" on="0"/>
        <pt x="193" y="608" on="1"/>
        <pt x="133" y="576" on="0"/>
        <pt x="71" y="465" on="0"/>
        <pt x="73" y="391" on="1"/>
        <pt x="75" y="328" on="0"/>
        <pt x="108" y="242" on="0"/>
        <pt x="157" y="190" on="0"/>
        <pt x="216" y="169" on="0"/>
      </contour>
      <contour>
        <pt x="340" y="330" on="1"/>
        <pt x="340" y="329" on="1"/>
        <pt x="340" y="327" on="1"/>
        <pt x="340" y="321" on="0"/>
        <pt x="337" y="300" on="0"/>
        <pt x="332" y="286" on="1"/>
        <pt x="327" y="272" on="0"/>
        <pt x="309" y="246" on="0"/>
        <pt x="294" y="236" on="1"/>
        <pt x="284" y="229" on="0"/>
        <pt x="258" y="221" on="0"/>
        <pt x="242" y="221" on="1"/>
        <pt x="215" y="221" on="0"/>
        <pt x="171" y="245" on="0"/>
        <pt x="157" y="265" on="1"/>
        <pt x="126" y="307" on="0"/>
        <pt x="126" y="370" on="1"/>
        <pt x="126" y="415" on="0"/>
        <pt x="148" y="484" on="0"/>
        <pt x="168" y="509" on="1"/>
        <pt x="208" y="560" on="0"/>
        <pt x="262" y="560" on="1"/>
        <pt x="285" y="560" on="0"/>
        <pt x="318" y="546" on="0"/>
        <pt x="329" y="535" on="1"/>
        <pt x="339" y="523" on="0"/>
        <pt x="348" y="496" on="0"/>
        <pt x="348" y="482" on="1"/>
        <pt x="348" y="480" on="0"/>
        <pt x="347" y="477" on="0"/>
        <pt x="347" y="475" on="1"/>
        <pt x="345" y="449" on="0"/>
        <pt x="310" y="416" on="0"/>
        <pt x="287" y="416" on="1"/>
        <pt x="276" y="416" on="0"/>
        <pt x="261" y="421" on="0"/>
        <pt x="255" y="425" on="1"/>
        <pt x="248" y="429" on="0"/>
        <pt x="243" y="434" on="1"/>
        <pt x="234" y="442" on="1"/>
        <pt x="246" y="441" on="1"/>
        <pt x="247" y="441" on="1"/>
        <pt x="249" y="441" on="0"/>
        <pt x="265" y="444" on="0"/>
        <pt x="273" y="449" on="1"/>
        <pt x="281" y="454" on="0"/>
        <pt x="294" y="473" on="0"/>
        <pt x="294" y="493" on="1"/>
        <pt x="294" y="509" on="0"/>
        <pt x="284" y="517" on="1"/>
        <pt x="276" y="524" on="0"/>
        <pt x="263" y="524" on="1"/>
        <pt x="252" y="524" on="0"/>
        <pt x="223" y="508" on="0"/>
        <pt x="211" y="490" on="1"/>
        <pt x="199" y="473" on="0"/>
        <pt x="181" y="419" on="0"/>
        <pt x="181" y="381" on="1"/>
        <pt x="181" y="344" on="0"/>
        <pt x="196" y="298" on="0"/>
        <pt x="206" y="285" on="1"/>
        <pt x="217" y="272" on="0"/>
        <pt x="239" y="263" on="0"/>
        <pt x="247" y="263" on="1"/>
        <pt x="261" y="263" on="0"/>
        <pt x="275" y="272" on="1"/>
        <pt x="287" y="282" on="0"/>
        <pt x="294" y="295" on="1"/>
        <pt x="302" y="308" on="0"/>
        <pt x="308" y="334" on="0"/>
        <pt x="309" y="339" on="1"/>
        <pt x="309" y="343" on="1"/>
        <pt x="310" y="347" on="1"/>
        <pt x="314" y="346" on="1"/>
        <pt x="317" y="346" on="1"/>
        <pt x="318" y="346" on="0"/>
        <pt x="324" y="344" on="1"/>
        <pt x="328" y="342" on="0"/>
        <pt x="337" y="336" on="0"/>
        <pt x="339" y="331" on="1"/>
      </contour>
    </TTGlyph>
    <TTGlyph name="currency" xMin="10" yMin="57" xMax="390" yMax="503">
      <contour>
        <pt x="366" y="490" on="1"/>
        <pt x="371" y="489" on="0"/>
        <pt x="375" y="485" on="1"/>
        <pt x="382" y="480" on="0"/>
        <pt x="390" y="468" on="1"/>
        <pt x="374" y="450" on="0"/>
        <pt x="343" y="415" on="0"/>
        <pt x="331" y="401" on="1"/>
        <pt x="316" y="384" on="0"/>
        <pt x="303" y="370" on="1"/>
        <pt x="315" y="343" on="0"/>
        <pt x="315" y="305" on="1"/>
        <pt x="315" y="279" on="0"/>
        <pt x="304" y="229" on="0"/>
        <pt x="292" y="208" on="1"/>
        <pt x="380" y="94" on="1"/>
        <pt x="369" y="91" on="0"/>
        <pt x="352" y="88" on="0"/>
        <pt x="346" y="87" on="1"/>
        <pt x="339" y="86" on="0"/>
        <pt x="333" y="86" on="1"/>
        <pt x="327" y="86" on="0"/>
        <pt x="320" y="87" on="1"/>
        <pt x="314" y="88" on="0"/>
        <pt x="297" y="90" on="0"/>
        <pt x="288" y="92" on="1"/>
        <pt x="280" y="103" on="0"/>
        <pt x="263" y="126" on="0"/>
        <pt x="256" y="136" on="1"/>
        <pt x="248" y="147" on="0"/>
        <pt x="240" y="158" on="1"/>
        <pt x="227" y="152" on="0"/>
        <pt x="197" y="144" on="0"/>
        <pt x="180" y="144" on="1"/>
        <pt x="161" y="144" on="0"/>
        <pt x="142" y="153" on="1"/>
        <pt x="134" y="137" on="0"/>
        <pt x="125" y="120" on="1"/>
        <pt x="117" y="106" on="0"/>
        <pt x="101" y="72" on="0"/>
        <pt x="94" y="57" on="1"/>
        <pt x="79" y="67" on="0"/>
        <pt x="60" y="82" on="0"/>
        <pt x="54" y="88" on="1"/>
        <pt x="47" y="94" on="0"/>
        <pt x="44" y="100" on="1"/>
        <pt x="36" y="114" on="0"/>
        <pt x="41" y="143" on="0"/>
        <pt x="52" y="162" on="1"/>
        <pt x="56" y="169" on="0"/>
        <pt x="72" y="193" on="0"/>
        <pt x="82" y="210" on="1"/>
        <pt x="66" y="240" on="0"/>
        <pt x="66" y="281" on="1"/>
        <pt x="66" y="302" on="0"/>
        <pt x="78" y="348" on="0"/>
        <pt x="90" y="368" on="1"/>
        <pt x="77" y="387" on="0"/>
        <pt x="64" y="406" on="1"/>
        <pt x="53" y="423" on="0"/>
        <pt x="24" y="464" on="0"/>
        <pt x="10" y="486" on="1"/>
        <pt x="27" y="495" on="0"/>
        <pt x="54" y="501" on="0"/>
        <pt x="65" y="501" on="1"/>
        <pt x="77" y="501" on="0"/>
        <pt x="87" y="499" on="1"/>
        <pt x="100" y="495" on="0"/>
        <pt x="130" y="453" on="0"/>
        <pt x="148" y="422" on="1"/>
        <pt x="173" y="433" on="0"/>
        <pt x="201" y="433" on="1"/>
        <pt x="229" y="433" on="0"/>
        <pt x="253" y="423" on="1"/>
        <pt x="264" y="436" on="0"/>
        <pt x="276" y="449" on="1"/>
        <pt x="287" y="460" on="0"/>
        <pt x="312" y="489" on="0"/>
        <pt x="326" y="503" on="1"/>
        <pt x="335" y="501" on="0"/>
        <pt x="350" y="496" on="0"/>
        <pt x="355" y="494" on="1"/>
        <pt x="361" y="491" on="0"/>
      </contour>
      <contour>
        <pt x="179" y="211" on="1"/>
        <pt x="209" y="211" on="0"/>
        <pt x="248" y="269" on="0"/>
        <pt x="248" y="314" on="1"/>
        <pt x="248" y="338" on="0"/>
        <pt x="231" y="372" on="0"/>
        <pt x="211" y="372" on="1"/>
        <pt x="194" y="372" on="0"/>
        <pt x="166" y="354" on="0"/>
        <pt x="146" y="325" on="0"/>
        <pt x="136" y="290" on="0"/>
        <pt x="136" y="272" on="1"/>
        <pt x="136" y="243" on="0"/>
        <pt x="160" y="211" on="0"/>
      </contour>
    </TTGlyph>
    <TTGlyph name="d" xMin="20" yMin="-17" xMax="357" yMax="681">
      <contour>
        <pt x="357" y="635" on="1"/>
        <pt x="357" y="624" on="0"/>
        <pt x="353" y="560" on="0"/>
        <pt x="347" y="470" on="0"/>
        <pt x="341" y="362" on="0"/>
        <pt x="339" y="306" on="1"/>
        <pt x="337" y="250" on="0"/>
        <pt x="334" y="153" on="0"/>
        <pt x="335" y="77" on="0"/>
        <pt x="341" y="26" on="0"/>
        <pt x="347" y="17" on="1"/>
        <pt x="302" y="0" on="1"/>
        <pt x="297" y="-2" on="0"/>
        <pt x="283" y="-2" on="0"/>
        <pt x="268" y="6" on="0"/>
        <pt x="258" y="26" on="0"/>
        <pt x="258" y="44" on="1"/>
        <pt x="258" y="51" on="0"/>
        <pt x="259" y="72" on="0"/>
        <pt x="259" y="86" on="1"/>
        <pt x="247" y="66" on="0"/>
        <pt x="219" y="28" on="0"/>
        <pt x="186" y="0" on="0"/>
        <pt x="148" y="-17" on="0"/>
        <pt x="127" y="-17" on="1"/>
        <pt x="107" y="-17" on="0"/>
        <pt x="69" y="0" on="0"/>
        <pt x="39" y="34" on="0"/>
        <pt x="20" y="88" on="0"/>
        <pt x="20" y="126" on="1"/>
        <pt x="20" y="195" on="0"/>
        <pt x="52" y="298" on="0"/>
        <pt x="101" y="367" on="0"/>
        <pt x="158" y="402" on="0"/>
        <pt x="182" y="402" on="1"/>
        <pt x="219" y="402" on="0"/>
        <pt x="259" y="363" on="0"/>
        <pt x="268" y="342" on="1"/>
        <pt x="269" y="371" on="0"/>
        <pt x="270" y="422" on="0"/>
        <pt x="270" y="440" on="1"/>
        <pt x="270" y="514" on="0"/>
        <pt x="264" y="630" on="0"/>
        <pt x="252" y="660" on="1"/>
        <pt x="266" y="668" on="0"/>
        <pt x="289" y="676" on="0"/>
        <pt x="298" y="678" on="1"/>
        <pt x="309" y="681" on="0"/>
        <pt x="317" y="681" on="1"/>
        <pt x="339" y="681" on="0"/>
        <pt x="357" y="656" on="0"/>
      </contour>
      <contour>
        <pt x="262" y="171" on="1"/>
        <pt x="264" y="197" on="0"/>
        <pt x="265" y="254" on="0"/>
        <pt x="266" y="283" on="1"/>
        <pt x="259" y="272" on="0"/>
        <pt x="240" y="256" on="0"/>
        <pt x="229" y="260" on="1"/>
        <pt x="233" y="290" on="0"/>
        <pt x="224" y="322" on="0"/>
        <pt x="216" y="330" on="1"/>
        <pt x="207" y="339" on="0"/>
        <pt x="195" y="340" on="1"/>
        <pt x="177" y="340" on="0"/>
        <pt x="142" y="300" on="0"/>
        <pt x="115" y="241" on="0"/>
        <pt x="99" y="174" on="0"/>
        <pt x="99" y="146" on="1"/>
        <pt x="99" y="90" on="0"/>
        <pt x="130" y="46" on="0"/>
        <pt x="148" y="46" on="1"/>
        <pt x="163" y="46" on="0"/>
        <pt x="196" y="70" on="0"/>
        <pt x="227" y="108" on="0"/>
        <pt x="254" y="151" on="0"/>
      </contour>
    </TTGlyph>
    <TTGlyph name="degree" xMin="20" yMin="546" xMax="180" yMax="707">
      <contour>
        <pt x="108" y="707" on="1"/>
        <pt x="137" y="707" on="0"/>
        <pt x="180" y="669" on="0"/>
        <pt x="180" y="631" on="1"/>
        <pt x="180" y="593" on="0"/>
        <pt x="134" y="546" on="0"/>
        <pt x="99" y="546" on="1"/>
        <pt x="63" y="546" on="0"/>
        <pt x="20" y="591" on="0"/>
        <pt x="20" y="624" on="1"/>
        <pt x="20" y="641" on="0"/>
        <pt x="34" y="671" on="0"/>
        <pt x="58" y="694" on="0"/>
        <pt x="90" y="707" on="0"/>
      </contour>
      <contour>
        <pt x="104" y="592" on="1"/>
        <pt x="119" y="592" on="0"/>
        <pt x="134" y="614" on="0"/>
        <pt x="134" y="631" on="1"/>
        <pt x="134" y="645" on="0"/>
        <pt x="118" y="658" on="0"/>
        <pt x="110" y="658" on="1"/>
        <pt x="95" y="658" on="0"/>
        <pt x="72" y="638" on="0"/>
        <pt x="72" y="624" on="1"/>
        <pt x="72" y="609" on="0"/>
        <pt x="92" y="592" on="0"/>
      </contour>
    </TTGlyph>
    <TTGlyph name="dieresis" xMin="156" yMin="575" xMax="400" yMax="672">
      <contour>
        <pt x="359" y="672" on="1"/>
        <pt x="373" y="672" on="0"/>
        <pt x="393" y="658" on="0"/>
        <pt x="397" y="641" on="1"/>
        <pt x="400" y="628" on="0"/>
        <pt x="392" y="604" on="0"/>
        <pt x="375" y="586" on="0"/>
        <pt x="352" y="575" on="0"/>
        <pt x="339" y="575" on="1"/>
        <pt x="322" y="575" on="0"/>
        <pt x="304" y="593" on="0"/>
        <pt x="302" y="605" on="1"/>
        <pt x="299" y="617" on="0"/>
        <pt x="307" y="641" on="0"/>
        <pt x="324" y="660" on="0"/>
        <pt x="347" y="672" on="0"/>
      </contour>
      <contour>
        <pt x="218" y="670" on="1"/>
        <pt x="232" y="669" on="0"/>
        <pt x="253" y="655" on="0"/>
        <pt x="256" y="639" on="1"/>
        <pt x="259" y="626" on="0"/>
        <pt x="251" y="603" on="0"/>
        <pt x="234" y="586" on="0"/>
        <pt x="210" y="577" on="0"/>
        <pt x="197" y="578" on="1"/>
        <pt x="179" y="579" on="0"/>
        <pt x="161" y="597" on="0"/>
        <pt x="159" y="607" on="1"/>
        <pt x="156" y="619" on="0"/>
        <pt x="164" y="642" on="0"/>
        <pt x="181" y="660" on="0"/>
        <pt x="205" y="671" on="0"/>
      </contour>
    </TTGlyph>
    <TTGlyph name="divide" xMin="8" yMin="128" xMax="327" yMax="460">
      <contour>
        <pt x="182" y="218" on="1"/>
        <pt x="208" y="218" on="0"/>
        <pt x="230" y="199" on="0"/>
        <pt x="230" y="185" on="1"/>
        <pt x="230" y="174" on="0"/>
        <pt x="215" y="154" on="0"/>
        <pt x="192" y="138" on="0"/>
        <pt x="164" y="128" on="0"/>
        <pt x="151" y="128" on="1"/>
        <pt x="128" y="128" on="0"/>
        <pt x="113" y="151" on="0"/>
        <pt x="113" y="161" on="1"/>
        <pt x="113" y="181" on="0"/>
        <pt x="148" y="218" on="0"/>
      </contour>
      <contour>
        <pt x="22" y="234" on="1"/>
        <pt x="14" y="242" on="0"/>
        <pt x="8" y="278" on="0"/>
        <pt x="15" y="303" on="1"/>
        <pt x="32" y="308" on="0"/>
        <pt x="78" y="316" on="0"/>
        <pt x="98" y="319" on="1"/>
        <pt x="122" y="323" on="0"/>
        <pt x="146" y="326" on="1"/>
        <pt x="212" y="337" on="0"/>
        <pt x="298" y="339" on="0"/>
        <pt x="315" y="326" on="1"/>
        <pt x="323" y="320" on="0"/>
        <pt x="327" y="299" on="0"/>
        <pt x="326" y="278" on="0"/>
        <pt x="322" y="258" on="0"/>
        <pt x="322" y="252" on="1"/>
        <pt x="310" y="256" on="0"/>
        <pt x="261" y="258" on="0"/>
        <pt x="236" y="259" on="1"/>
        <pt x="174" y="259" on="1"/>
        <pt x="141" y="258" on="0"/>
        <pt x="111" y="254" on="1"/>
        <pt x="85" y="251" on="0"/>
        <pt x="35" y="242" on="0"/>
      </contour>
      <contour>
        <pt x="230" y="427" on="1"/>
        <pt x="230" y="416" on="0"/>
        <pt x="215" y="395" on="0"/>
        <pt x="192" y="379" on="0"/>
        <pt x="164" y="370" on="0"/>
        <pt x="151" y="370" on="1"/>
        <pt x="128" y="370" on="0"/>
        <pt x="113" y="393" on="0"/>
        <pt x="113" y="402" on="1"/>
        <pt x="113" y="422" on="0"/>
        <pt x="148" y="460" on="0"/>
        <pt x="182" y="460" on="1"/>
        <pt x="208" y="460" on="0"/>
        <pt x="230" y="441" on="0"/>
      </contour>
    </TTGlyph>
</ttFont>
